<svg id="Layer_1" enable-background="new 0 0 512.001 512.001" height="512" viewBox="0 0 512.001 512.001" width="512" xmlns="http://www.w3.org/2000/svg"><g><path d="m447.441 254.391v209.1h-381.74v-208.24l190.71-190.71 162.03 161.03z" fill="#9fc3d7"/><path d="m447.441 254.391v209.1h-381.74v-30h352.74v-207.92z" fill="#7ca3bf"/><g><g><path d="m255.972 158.077-3.8 6.44-144.26 244.39h296.12z" fill="#ffe527"/></g><g><path d="m255.972 158.077-3.8 6.44 113.74 244.39h38.12z" fill="#ffbd29"/></g><g fill="#4b6675"><path d="m270.972 255.157v48.8c0 8.28-6.72 15-15 15s-15-6.72-15-15v-48.8c0-8.29 6.72-15 15-15s15 6.71 15 15z"/><path d="m270.972 363.887c0 8.29-6.72 15-15 15-4.14 0-7.89-1.68-10.6-4.39-2.72-2.71-4.4-6.47-4.4-10.61 0-8.28 6.72-15 15-15 4.14 0 7.89 1.68 10.6 4.4 2.72 2.71 4.4 6.46 4.4 10.6z"/></g><g fill="#294a59"><path d="m255.972 348.887v30c8.28 0 15-6.71 15-15 0-4.14-1.68-7.89-4.4-10.6-2.71-2.72-6.46-4.4-10.6-4.4z"/><path d="m255.972 240.157v78.8c8.28 0 15-6.72 15-15v-48.8c0-8.29-6.72-15-15-15z"/></g></g><path d="m45.326 463.495h422.539v41.006h-422.539z" fill="#4b6675"/><path d="m430.04 463.495h37.825v41.006h-37.825z" fill="#294a59"/><path d="m504.501 253.408v57.038l-248.09-245.906-248.91 245.906v-57.038l248.049-245.907z" fill="#ffe527"/><path d="m147.761 35.971v78.38l-29.03 28.79-29.04 28.79v-135.96z" fill="#ff2261"/><path d="m147.761 35.971v78.38l-29.03 28.79v-107.17z" fill="#b7305d"/></g><g><path d="m509.771 248.072-57.06-56.362c-2.947-2.91-7.694-2.883-10.606.065-2.911 2.947-2.882 7.695.065 10.606l54.83 54.16v35.911l-235.309-233.238c-2.921-2.895-7.628-2.897-10.551-.009l-236.139 233.289v-35.961l79.953-79.262c.018-.018.037-.036.055-.054l160.551-159.164 163.811 161.808c2.946 2.909 7.693 2.881 10.606-.065 2.911-2.947 2.882-7.695-.065-10.606l-169.091-167.025c-2.926-2.891-7.631-2.887-10.551.01l-95.006 94.185v-60.384c0-4.143-3.357-7.5-7.5-7.5h-58.076c-4.143 0-7.5 3.357-7.5 7.5v34.246c0 4.143 3.357 7.5 7.5 7.5s7.5-3.357 7.5-7.5v-26.746h43.076v67.754l-43.076 42.704v-49.336c0-4.143-3.357-7.5-7.5-7.5s-7.5 3.357-7.5 7.5v64.207l-79.968 79.276c-1.421 1.408-2.22 3.326-2.22 5.326v57.039c0 3.025 1.817 5.754 4.608 6.92.935.391 1.916.58 2.89.58 1.937 0 3.841-.75 5.273-2.165l45.429-44.879v185.092h-12.874c-4.143 0-7.5 3.357-7.5 7.5v41.007c0 4.143 3.357 7.5 7.5 7.5h32.598c4.143 0 7.5-3.357 7.5-7.5s-3.357-7.5-7.5-7.5h-25.098v-26.007h407.539v26.007h-347.767c-4.143 0-7.5 3.357-7.5 7.5s3.357 7.5 7.5 7.5h355.267c4.143 0 7.5-3.357 7.5-7.5v-41.007c0-4.143-3.357-7.5-7.5-7.5h-12.924v-184.11l44.279 43.89c2.151 2.13 5.37 2.761 8.166 1.596 2.794-1.165 4.614-3.896 4.614-6.923v-57.039c.001-2.005-.802-3.927-2.229-5.336zm-69.83 207.922h-366.741v-199.911l183.202-180.991 183.539 181.924z"/><path d="m249.512 154.264-148.056 250.834c-1.368 2.318-1.389 5.193-.054 7.531s3.82 3.781 6.513 3.781h53.222c4.143 0 7.5-3.357 7.5-7.5s-3.357-7.5-7.5-7.5h-40.087l134.921-228.579 134.921 228.579h-195.438c-4.143 0-7.5 3.357-7.5 7.5s3.357 7.5 7.5 7.5h208.574c2.692 0 5.178-1.443 6.513-3.781s1.314-5.213-.054-7.531l-148.057-250.834c-1.349-2.285-3.806-3.688-6.459-3.688s-5.11 1.403-6.459 3.688z"/><path d="m255.971 326.46c12.406 0 22.5-10.094 22.5-22.5v-48.802c0-12.406-10.094-22.5-22.5-22.5s-22.5 10.094-22.5 22.5v48.802c0 12.406 10.094 22.5 22.5 22.5zm-7.5-71.302c0-4.136 3.364-7.5 7.5-7.5s7.5 3.364 7.5 7.5v48.802c0 4.136-3.364 7.5-7.5 7.5s-7.5-3.364-7.5-7.5z"/><path d="m255.971 386.395c12.406 0 22.5-10.094 22.5-22.5s-10.094-22.5-22.5-22.5-22.5 10.094-22.5 22.5 10.094 22.5 22.5 22.5zm0-30c4.136 0 7.5 3.364 7.5 7.5s-3.364 7.5-7.5 7.5-7.5-3.364-7.5-7.5 3.365-7.5 7.5-7.5z"/></g></svg>