<svg id="Layer_1" enable-background="new 0 0 512 512" height="512" viewBox="0 0 512 512" width="512" xmlns="http://www.w3.org/2000/svg"><g><path d="m350.2 256c0 66.18-46.78 99.58-88.05 129.05-40.37 28.83-75.23 53.72-75.23 104.14 0 8.46-6.86 15.31-15.31 15.31h-.19c-8.37-.1-15.12-6.91-15.12-15.31 0-66.18 46.78-99.58 88.06-129.05 40.36-28.83 75.23-53.72 75.23-104.14s-34.87-75.31-75.23-104.14c-41.28-29.47-88.06-62.87-88.06-129.05 0-8.4 6.75-15.21 15.12-15.31h.19c8.45 0 15.31 6.85 15.31 15.31 0 50.42 34.86 75.31 75.23 104.14 41.27 29.47 88.05 62.87 88.05 129.05z" fill="#00b1ff"/><path d="m350.2 256c0 66.18-46.78 99.58-88.05 129.05-40.37 28.83-75.23 53.72-75.23 104.14 0 8.46-6.86 15.31-15.31 15.31h-.19v-15.31c0-58.4 39.69-86.74 81.72-116.75 40.1-28.63 81.56-58.24 81.56-116.44s-41.46-87.81-81.56-116.44c-42.03-30.01-81.72-58.35-81.72-116.75v-15.31h.19c8.45 0 15.31 6.85 15.31 15.31 0 50.42 34.86 75.31 75.23 104.14 41.27 29.47 88.05 62.87 88.05 129.05z" fill="#008cff"/><path d="m350.2 489.19c0 8.46-6.85 15.31-15.31 15.31h-.19c-8.36-.1-15.11-6.91-15.11-15.31 0-50.42-34.87-75.31-75.23-104.14-41.28-29.47-88.06-62.87-88.06-129.05s46.78-99.58 88.06-129.05c40.36-28.83 75.23-53.72 75.23-104.14 0-8.4 6.75-15.21 15.11-15.31h.19c8.46 0 15.31 6.85 15.31 15.31 0 66.18-46.78 99.58-88.05 129.05-40.37 28.83-75.23 53.72-75.23 104.14s34.86 75.31 75.23 104.14c41.27 29.47 88.05 62.87 88.05 129.05z" fill="#ff2261"/><path d="m350.2 489.19c0 8.46-6.85 15.31-15.31 15.31h-.19v-15.31c0-58.2-41.46-87.8-81.56-116.44-42.03-30.01-81.72-58.35-81.72-116.75s39.69-86.74 81.72-116.75c40.1-28.64 81.56-58.24 81.56-116.44v-15.31h.19c8.46 0 15.31 6.85 15.31 15.31 0 66.18-46.78 99.58-88.05 129.05-40.37 28.83-75.23 53.72-75.23 104.14s34.86 75.31 75.23 104.14c41.27 29.47 88.05 62.87 88.05 129.05z" fill="#b7305d"/><path d="m285.19 143.82-21.83 21.83c-6.11-4.58-12.48-9.13-19-13.79-8.78-6.27-17.81-12.72-26.58-19.62l10.73-10.73 11.06-11.05c7.18 5.49 14.78 10.92 22.58 16.49 7.6 5.43 15.39 10.99 23.04 16.87z" fill="#00b1ff"/><path d="m285.19 143.82-11.05 11.05c-6.89-5.23-13.96-10.29-21-15.31-8.41-6-16.71-11.93-24.63-18.05l11.06-11.05c7.18 5.49 14.78 10.92 22.58 16.49 7.6 5.43 15.39 10.99 23.04 16.87z" fill="#008cff"/><g><circle cx="119.236" cy="150.912" fill="#ff2261" r="18.252"/><path d="m137.487 150.912c0 10.08-8.17 18.25-18.25 18.25-3.32 0-6.44-.89-9.12-2.45 5.45-3.15 9.12-9.05 9.12-15.8s-3.67-12.65-9.12-15.8c2.68-1.56 5.8-2.45 9.12-2.45 10.08 0 18.25 8.17 18.25 18.25z" fill="#b7305d"/></g><g><circle cx="382.631" cy="387.418" fill="#ff2261" r="18.252"/><path d="m400.882 387.418c0 10.08-8.17 18.25-18.25 18.25-3.32 0-6.44-.89-9.12-2.45 5.45-3.15 9.12-9.05 9.12-15.8s-3.67-12.65-9.12-15.8c2.68-1.56 5.8-2.45 9.12-2.45 10.08 0 18.25 8.17 18.25 18.25z" fill="#b7305d"/></g></g><g><path d="m148.509 169.581-6.554-6.554c.782-1.46 1.426-3.003 1.917-4.614h13.614c4.142 0 7.5-3.358 7.5-7.5s-3.358-7.5-7.5-7.5h-13.614c-.491-1.61-1.136-3.153-1.917-4.613l17.62-17.62c2.929-2.929 2.929-7.678 0-10.606-2.929-2.929-7.678-2.929-10.606 0l-17.62 17.62c-1.46-.781-3.003-1.426-4.613-1.917v-13.614c0-4.142-3.358-7.5-7.5-7.5s-7.5 3.358-7.5 7.5v13.614c-1.61.491-3.154 1.136-4.614 1.917l-6.554-6.554c-2.929-2.93-7.678-2.929-10.606 0-2.929 2.929-2.929 7.678 0 10.606l6.554 6.554c-.782 1.46-1.426 3.004-1.917 4.614h-13.616c-4.142 0-7.5 3.358-7.5 7.5s3.358 7.5 7.5 7.5h13.614c.491 1.61 1.136 3.154 1.918 4.614l-17.619 17.619c-2.929 2.929-2.929 7.678 0 10.606 1.464 1.464 3.384 2.197 5.303 2.197s3.839-.732 5.303-2.197l17.619-17.619c1.46.782 3.003 1.426 4.613 1.917v13.614c0 4.142 3.358 7.5 7.5 7.5s7.5-3.358 7.5-7.5v-13.615c1.61-.491 3.153-1.136 4.613-1.917l6.554 6.555c1.464 1.465 3.384 2.197 5.303 2.197s3.839-.732 5.303-2.197c2.931-2.929 2.931-7.678.002-10.607zm-29.274-7.916c-5.929 0-10.752-4.823-10.752-10.751s4.823-10.751 10.752-10.751c5.928 0 10.751 4.823 10.751 10.751s-4.822 10.751-10.751 10.751z"/><path d="m420.882 379.916h-13.614c-.491-1.61-1.136-3.153-1.917-4.613l6.554-6.554c2.929-2.929 2.929-7.678 0-10.606-2.929-2.929-7.678-2.929-10.606 0l-6.554 6.554c-1.46-.781-3.003-1.426-4.613-1.917v-13.614c0-4.142-3.358-7.5-7.5-7.5s-7.5 3.358-7.5 7.5v13.614c-1.61.491-3.153 1.136-4.613 1.917l-17.62-17.62c-2.929-2.929-7.678-2.929-10.606 0-2.929 2.929-2.929 7.678 0 10.606l17.62 17.62c-.781 1.46-1.426 3.003-1.917 4.613h-13.614c-4.142 0-7.5 3.358-7.5 7.5s3.358 7.5 7.5 7.5h13.614c.491 1.61 1.136 3.154 1.917 4.614l-6.555 6.554c-2.929 2.929-2.929 7.677 0 10.606 1.464 1.465 3.384 2.197 5.303 2.197s3.839-.732 5.303-2.197l6.554-6.554c1.46.782 3.003 1.426 4.614 1.917v13.614c0 4.142 3.358 7.5 7.5 7.5s7.5-3.358 7.5-7.5v-13.614c1.61-.491 3.153-1.136 4.613-1.917l17.62 17.619c1.464 1.464 3.384 2.197 5.303 2.197s3.839-.732 5.303-2.197c2.929-2.929 2.929-7.678 0-10.606l-17.62-17.619c.782-1.46 1.426-3.004 1.918-4.614h13.614c4.142 0 7.5-3.358 7.5-7.5s-3.359-7.5-7.501-7.5zm-38.252 18.252c-5.928 0-10.751-4.823-10.751-10.752 0-5.928 4.823-10.751 10.751-10.751s10.751 4.823 10.751 10.751c.001 5.929-4.822 10.752-10.751 10.752z"/><ellipse cx="130.005" cy="77.84" rx="7.495" ry="7.498"/><path d="m60 113.34c-4.139 0-7.495 3.357-7.495 7.498s3.356 7.498 7.495 7.498c4.14 0 7.495-3.357 7.495-7.498s-3.355-7.498-7.495-7.498z"/><ellipse cx="129" cy="226.839" rx="7.495" ry="7.498"/><ellipse cx="383" cy="313.841" rx="7.495" ry="7.498"/><path d="m382 455.341c-4.139 0-7.495 3.357-7.495 7.498s3.356 7.498 7.495 7.498c4.14 0 7.495-3.357 7.495-7.498 0-4.14-3.355-7.498-7.495-7.498z"/><ellipse cx="452" cy="419.839" rx="7.495" ry="7.498"/><path d="m332.783 425.889c-3.646 1.964-5.011 6.513-3.047 10.16 8.725 16.196 12.965 33.58 12.965 53.144 0 4.306-3.503 7.808-7.809 7.808-4.305 0-7.808-3.502-7.808-7.808 0-54.279-38.069-81.462-78.373-110.242-20.579-14.695-41.859-29.89-58.092-49.449-18.048-21.745-26.821-45.788-26.821-73.501 0-24.269 6.624-45.503 20.25-64.916 12.164-17.33 28.339-31.067 43.145-42.33 4.286 3.131 8.569 6.189 12.802 9.212.154.11.307.219.461.329-34.06 25.304-61.041 51.469-61.041 97.705 0 54.28 38.069 81.462 78.377 110.245 18.361 13.111 37.346 26.668 52.796 43.408 1.479 1.602 3.493 2.413 5.513 2.413 1.819 0 3.643-.658 5.085-1.989 3.043-2.809 3.234-7.554.424-10.598-9.199-9.967-19.37-18.733-29.861-26.889 35.107-27.341 65.95-61.038 65.95-116.59 0-31.356-9.904-58.533-30.278-83.081-10.592-12.762-22.878-23.583-35.669-33.523 35.083-27.316 65.948-60.981 65.948-116.588.001-12.578-10.231-22.809-22.808-22.809-12.576 0-22.808 10.231-22.808 22.808 0 .841-.011 1.674-.031 2.5h-117.607c-.021-.826-.031-1.659-.031-2.5 0-12.577-10.232-22.808-22.808-22.808-12.577 0-22.808 10.231-22.808 22.808 0 30.692 9.469 57.336 28.947 81.455 2.603 3.223 7.325 3.724 10.547 1.123 3.222-2.603 3.725-7.325 1.123-10.547-17.237-21.343-25.617-44.905-25.617-72.03 0-4.305 3.502-7.808 7.808-7.808 4.305 0 7.808 3.503 7.808 7.808 0 54.279 38.069 81.462 78.374 110.242 20.579 14.695 41.858 29.89 58.091 49.449 18.047 21.745 26.821 45.788 26.821 73.501 0 24.266-6.622 45.497-20.244 64.907-12.167 17.336-28.345 31.075-43.15 42.338-4.272-3.119-8.553-6.177-12.803-9.211-.153-.11-.307-.219-.46-.328 34.04-25.281 61.041-51.396 61.041-97.706 0-54.28-38.069-81.462-78.381-110.248-11.746-8.388-23.892-17.061-35.169-26.647-3.154-2.682-7.889-2.3-10.572.857-2.683 3.156-2.299 7.889.857 10.572 3.594 3.056 7.25 6.004 10.935 8.872-35.111 27.343-65.955 61.043-65.955 116.594 0 31.357 9.904 58.533 30.278 83.081 10.592 12.762 22.878 23.583 35.669 33.523-35.111 27.346-65.948 61.05-65.948 116.588 0 12.577 10.231 22.808 22.808 22.808 12.576 0 22.808-10.231 22.808-22.808 0-.841.011-1.674.031-2.5h117.607c.021.826.031 1.659.031 2.5 0 12.577 10.231 22.808 22.808 22.808s22.809-10.231 22.809-22.808c0-22.109-4.827-41.819-14.758-60.257-1.965-3.646-6.512-5.014-10.16-3.047zm-123.51-355.17c-6.337-9.004-10.913-18.917-13.202-30.411h114.339c-2.306 11.475-6.906 21.396-13.257 30.411zm43.974 40.591c-11.644-8.495-22.251-16.741-31.152-25.59h62.245c-8.909 8.873-19.505 17.127-31.093 25.59zm13.257 9.532c-.154-.11-.307-.219-.46-.329 34.048-25.289 61.041-51.423 61.041-97.705 0-4.305 3.503-7.808 7.808-7.808 4.306 0 7.809 3.503 7.809 7.808 0 24.223-6.598 45.42-20.17 64.802-12.195 17.415-28.413 31.176-43.224 42.442-4.269-3.115-8.551-6.173-12.804-9.21zm-13.257 223.66c-16.033-11.697-30.099-22.92-40.454-35.9h80.845c-10.378 13.012-24.446 24.256-40.391 35.9zm50.162-50.901h-100.374c-4.536-8.902-7.447-18.766-8.333-30.101h117.092c-.895 11.318-3.828 21.187-8.385 30.101zm.189-74.936c4.459 8.833 7.321 18.613 8.199 29.835h-117.091c.888-11.2 3.776-20.986 8.262-29.835zm-50.346-51.166c16.143 11.777 30.291 23.073 40.665 36.166h-81.249c10.394-13.12 24.536-24.446 40.584-36.166zm0 233.192c11.644 8.495 22.251 16.74 31.151 25.59h-62.235c8.907-8.873 19.499-17.129 31.084-25.59zm-73.837 88.501c0 4.305-3.502 7.808-7.808 7.808s-7.808-3.503-7.808-7.808c0-24.276 6.627-45.516 20.261-64.933 12.159-17.317 28.327-31.05 43.132-42.312 4.268 3.116 8.55 6.174 12.803 9.21.154.11.307.22.461.329-34.059 25.305-61.041 51.469-61.041 97.706zm16.677-17.5c2.308-11.471 6.91-21.393 13.265-30.411h87.869c6.337 9.004 10.913 18.917 13.202 30.411z"/></g></svg>