<svg id="Layer_1" enable-background="new 0 0 512 512" height="512" viewBox="0 0 512 512" width="512" xmlns="http://www.w3.org/2000/svg"><g><path d="m380.32 139.13v44.58h-248.64v-44.58c34.97-5.62 70.21-8.86 105.5-9.69 47.84-1.16 95.75 2.07 143.14 9.69z" fill="#9fc3d7"/><path d="m380.32 139.13v44.58h-31.94v-26.693c0-2.724-1.85-5.095-4.493-5.754-13.757-3.428-57.373-13.912-106.707-21.823 47.84-1.16 95.75 2.07 143.14 9.69z" fill="#7ca3bf"/><path d="m420.1 189.32v293.81c0 11.8-9.57 21.37-21.38 21.37h-285.44c-11.81 0-21.38-9.57-21.38-21.37v-293.81c57.89-9.31 116.37-13.67 174.82-13.06 51.3.53 102.57 4.89 153.38 13.06z" fill="#e4f4ff"/><path d="m420.1 273.15v209.98c0 11.8-9.57 21.37-21.38 21.37h-285.44c-11.81 0-21.38-9.57-21.38-21.37v-209.98z" fill="#00b1ff"/><path d="m121.9 233.15h268.2v227.24h-268.2z" fill="#99f5d2"/><path d="m363.08 233.55h27.02v226.84h-27.02z" fill="#69d8e4"/><path d="m266.72 176.26c51.3.53 102.57 4.89 153.38 13.06v293.81c0 11.8-9.57 21.37-21.38 21.37h-30c11.81 0 21.38-9.57 21.38-21.37v-271.708c0-3.029-2.005-5.688-4.92-6.513-14.917-4.224-62.087-17.182-118.46-28.649z" fill="#c0eaf7"/><path d="m390.1 273.15h30v209.98c0 11.8-9.57 21.37-21.38 21.37h-30c11.81 0 21.38-9.57 21.38-21.37z" fill="#008cff"/><path d="m221.463 70.93h69.074v59.074h-69.074z" fill="#4b6675"/><path d="m262 70.93h28.537v59.074h-28.537z" fill="#294a59"/><path d="m224.285 24.197h63.43v30.037h-63.43z" fill="#9fc3d7" transform="matrix(0 -1 1 0 216.785 295.215)"/><path d="m231.794 31.706h63.43v15.018h-63.43z" fill="#7ca3bf" transform="matrix(0 -1 1 0 224.294 302.724)"/><g><path d="m310.39 301.675v63.43c0 15.03-13.6 30.21-27.19 41.63-13.6 11.43-27.2 19.1-27.2 19.1s-2.72-1.53-6.94-4.25c-14.66-9.43-47.46-33.15-47.46-56.48v-63.43c0-3.25 2.54-5.95 5.78-6.12 27.33-1.44 48.62-13 48.62-27.05 0 10.52 11.93 19.64 29.39 24.16 5.86 1.53 12.35 2.53 19.22 2.89 3.25.17 5.78 2.87 5.78 6.12z" fill="#ff2261"/><path d="m310.39 301.675v63.43c0 15.03-13.6 30.21-27.19 41.63-13.6 11.43-27.2 19.1-27.2 19.1s-2.72-1.53-6.94-4.25c15.82-11.96 36.33-31.03 36.33-49.48v-79.44c5.86 1.53 12.35 2.53 19.22 2.89 3.25.17 5.78 2.87 5.78 6.12z" fill="#b7305d"/></g></g><g><path d="m421.289 181.914c-11.141-1.792-22.298-3.403-33.468-4.831v-37.949c0-3.682-2.673-6.82-6.309-7.405-27.724-4.46-55.578-7.435-83.476-8.926v-51.873c0-4.142-3.357-7.5-7.5-7.5h-12.019v-21.43h97.053c4.143 0 7.5-3.358 7.5-7.5s-3.357-7.5-7.5-7.5h-97.053v-19.5c0-4.142-3.357-7.5-7.5-7.5h-30.037c-4.143 0-7.5 3.358-7.5 7.5v19.5h-12.5c-4.143 0-7.5 3.358-7.5 7.5s3.357 7.5 7.5 7.5h12.5v21.43h-12.019c-4.143 0-7.5 3.358-7.5 7.5v51.873c-27.897 1.491-55.751 4.465-83.476 8.926-3.636.585-6.309 3.723-6.309 7.405v37.949c-11.17 1.428-22.327 3.038-33.468 4.831-3.636.585-6.309 3.723-6.309 7.405v293.808c0 15.921 12.952 28.874 28.873 28.874h23.004c4.143 0 7.5-3.358 7.5-7.5s-3.357-7.5-7.5-7.5h-23.004c-7.649 0-13.873-6.224-13.873-13.874v-202.475h15v179.735c0 4.142 3.357 7.5 7.5 7.5h268.195c4.143 0 7.5-3.358 7.5-7.5v-124.729c0-4.142-3.357-7.5-7.5-7.5s-7.5 3.358-7.5 7.5v117.229h-253.192v-212.235h17.389c4.143 0 7.5-3.358 7.5-7.5s-3.357-7.5-7.5-7.5h-24.889c-4.143 0-7.5 3.358-7.5 7.5v32.5h-15v-69.924c103.943-16.062 209.252-16.062 313.195 0v69.924h-15v-32.5c0-4.142-3.357-7.5-7.5-7.5h-208.08c-4.143 0-7.5 3.358-7.5 7.5s3.357 7.5 7.5 7.5h200.58v59.991c0 4.142 3.357 7.5 7.5 7.5s7.5-3.358 7.5-7.5v-19.991h15v202.475c0 7.65-6.224 13.874-13.873 13.874h-227.912c-4.143 0-7.5 3.358-7.5 7.5s3.357 7.5 7.5 7.5h227.913c15.921 0 28.873-12.953 28.873-28.874v-293.809c0-3.682-2.673-6.819-6.309-7.404zm-172.808-166.914h15.037v48.43h-15.037zm-19.518 63.43h54.074v43.715c-18.021-.619-36.053-.619-54.074 0zm-89.784 96.846v-29.726c77.549-11.825 156.094-11.825 233.643 0v29.725c-77.7-8.793-155.944-8.793-233.643.001z"/><path d="m273.687 280.188c-6.474-3.575-10.187-7.833-10.187-11.683 0-4.142-3.357-7.5-7.5-7.5s-7.5 3.358-7.5 7.5c0 3.85-3.713 8.108-10.187 11.683-8.029 4.435-19.153 7.231-31.323 7.874-7.228.383-12.889 6.362-12.889 13.613v63.429c0 14.778 10.051 30.716 29.874 47.373 13.973 11.74 27.76 19.562 28.34 19.889 1.144.645 2.414.968 3.685.968s2.541-.323 3.685-.968c.58-.327 14.367-8.148 28.34-19.889 19.823-16.656 29.874-32.595 29.874-47.373v-63.429c0-7.25-5.661-13.23-12.89-13.613-12.169-.643-23.293-3.438-31.322-7.874zm29.211 84.916c0 9.818-8.65 22.514-24.358 35.75-8.805 7.418-17.732 13.261-22.564 16.252-15.338-9.438-46.874-32.781-46.874-52.002v-62.139c20.749-1.331 37.701-7.985 46.898-17.509 9.197 9.524 26.15 16.178 46.898 17.509z"/><path d="m248.474 331.893v10.557h-10.558c-4.143 0-7.5 3.358-7.5 7.5s3.357 7.5 7.5 7.5h10.558v10.557c0 4.142 3.357 7.5 7.5 7.5s7.5-3.358 7.5-7.5v-10.557h10.557c4.143 0 7.5-3.358 7.5-7.5s-3.357-7.5-7.5-7.5h-10.557v-10.557c0-4.142-3.357-7.5-7.5-7.5s-7.5 3.357-7.5 7.5z"/></g></svg>