<svg id="Layer_1" enable-background="new 0 0 512 512" height="512" viewBox="0 0 512 512" width="512" xmlns="http://www.w3.org/2000/svg"><g><path d="m7.5 272.317h64v128h-64z" fill="#e4f4ff"/><path d="m46.5 272.317h25v128h-25z" fill="#c0eaf7"/><path d="m349.144 424.9c.2 17.29-13.77 31.42-31.06 31.42h-133.17c-6.09 0-11.99-2.11-16.7-5.97l-80.71-66.03h-16v-96h54.74c5.96 0 11.73 2.17 16.2 6.12l84.57 74.6c5.07 4.48 7.64 10.69 7.64 16.92 0 5.75-2.19 11.52-6.61 15.94-3.54 3.55-7.99 5.67-12.62 6.36l.08.06h116.87c9.19 0 16.67 7.39 16.77 16.58z" fill="#ffeac5"/><path d="m504.5 118.968v64.716h-64v-128h64v28.586z" fill="#4b6675"/><path d="m479.5 55.684h25v128h-25z" fill="#294a59"/><path d="m440.504 89.86v60h-129.85v63.85h-60v-67.69c0-31.01 25.14-56.16 56.15-56.16z" fill="#9fc3d7"/><path d="m250.654 183.71h60v30h-60z" fill="#4b6675"/><g fill="#00b1ff"><path d="m245.278 277.382c0 9.363 7.59 16.952 16.952 16.952s16.952-7.59 16.952-16.952-16.952-33.042-16.952-33.042-16.952 23.68-16.952 33.042z"/><path d="m312.23 303.793s-16.952 23.679-16.952 33.042 7.59 16.952 16.952 16.952 16.952-7.59 16.952-16.952-16.952-33.042-16.952-33.042z"/></g><path d="m228.044 401.9c-3.54 3.55-7.99 5.67-12.62 6.36l.08.06-18.37-5.5-125.63-111.5v-3h54.74c5.96 0 11.73 2.17 16.2 6.12l84.57 74.6c5.07 4.48 7.64 10.69 7.64 16.92 0 5.75-2.19 11.52-6.61 15.94z" fill="#ffc69f"/></g><g><path d="m332.372 400.816h-94.163c2.708-4.769 4.1-10.246 3.926-15.801-.258-8.259-3.96-16.13-10.157-21.596l-84.575-74.604c-5.848-5.158-13.364-7.999-21.162-7.999h-47.241v-8.5c0-4.143-3.358-7.5-7.5-7.5h-64c-4.142 0-7.5 3.357-7.5 7.5v63.785c0 4.143 3.358 7.5 7.5 7.5s7.5-3.357 7.5-7.5v-56.285h49v113h-49v-21.869c0-4.143-3.358-7.5-7.5-7.5s-7.5 3.357-7.5 7.5v29.369c0 4.143 3.358 7.5 7.5 7.5h64c4.142 0 7.5-3.357 7.5-7.5v-8.5h5.823l78.641 64.343c6.035 4.938 13.653 7.657 21.451 7.657h21.71c4.142 0 7.5-3.357 7.5-7.5s-3.358-7.5-7.5-7.5h-21.71c-4.345 0-8.59-1.516-11.952-4.267l-80.714-66.038c-1.34-1.097-3.018-1.695-4.749-1.695h-8.5v-81h47.242c4.142 0 8.133 1.509 11.239 4.248l84.574 74.604c3.149 2.777 4.956 6.619 5.087 10.815.131 4.197-1.432 8.144-4.401 11.112-5.623 5.624-14.686 5.895-20.633.613l-45.63-40.503c-3.099-2.75-7.838-2.468-10.588.631-2.75 3.098-2.468 7.838.63 10.588l45.63 40.502c6.573 5.835 15.052 8.275 23.216 7.387.044.001.088.002.132.002h116.872c5.057 0 9.218 4.114 9.275 9.172.071 6.343-2.346 12.321-6.806 16.832-4.461 4.512-10.412 6.996-16.756 6.996h-76.806c-4.142 0-7.5 3.357-7.5 7.5s3.358 7.5 7.5 7.5h76.806c10.383 0 20.122-4.066 27.422-11.449s11.256-17.166 11.139-27.549c-.147-13.233-11.036-24.001-24.272-24.001z"/><path d="m504.5 91.77c4.142 0 7.5-3.357 7.5-7.5v-28.586c0-4.143-3.358-7.5-7.5-7.5h-64c-4.142 0-7.5 3.357-7.5 7.5v26.682h-126.193c-35.098 0-63.652 28.555-63.652 63.652v67.691c0 4.143 3.358 7.5 7.5 7.5h60c4.142 0 7.5-3.357 7.5-7.5v-56.344h49.345c4.142 0 7.5-3.357 7.5-7.5s-3.358-7.5-7.5-7.5h-56.845c-4.142 0-7.5 3.357-7.5 7.5v26.344h-45v-30.191c0-26.827 21.825-48.652 48.652-48.652h126.193v45h-30.46c-4.142 0-7.5 3.357-7.5 7.5s3.358 7.5 7.5 7.5h30.46v26.318c0 4.143 3.358 7.5 7.5 7.5h64c4.142 0 7.5-3.357 7.5-7.5v-64.716c0-4.143-3.358-7.5-7.5-7.5s-7.5 3.357-7.5 7.5v57.216h-49v-113h49v21.086c0 4.142 3.358 7.5 7.5 7.5zm-201.345 99.439v15h-45v-15z"/><path d="m286.683 277.382c0-10.922-14.048-31.393-18.354-37.407-1.408-1.967-3.679-3.134-6.098-3.134s-4.69 1.167-6.098 3.134c-4.306 6.015-18.354 26.485-18.354 37.407 0 13.483 10.969 24.452 24.452 24.452s24.452-10.969 24.452-24.452zm-24.453 9.452c-5.212 0-9.452-4.24-9.452-9.452 0-2.742 4.002-10.829 9.452-19.551 5.45 8.722 9.452 16.809 9.452 19.551.001 5.212-4.24 9.452-9.452 9.452z"/><path d="m312.23 361.286c13.483 0 24.452-10.969 24.452-24.452 0-10.922-14.048-31.393-18.354-37.407-1.408-1.967-3.679-3.134-6.098-3.134s-4.69 1.167-6.098 3.134c-4.306 6.015-18.354 26.485-18.354 37.407 0 13.483 10.97 24.452 24.452 24.452zm0-44.003c5.45 8.722 9.452 16.809 9.452 19.551 0 5.212-4.24 9.452-9.452 9.452s-9.452-4.24-9.452-9.452c0-2.742 4.002-10.829 9.452-19.551z"/><path d="m312.23 273.958c4.142 0 7.5-3.357 7.5-7.5v-22.117c0-4.143-3.358-7.5-7.5-7.5s-7.5 3.357-7.5 7.5v22.117c0 4.143 3.358 7.5 7.5 7.5z"/><path d="m256.23 318.841c-4.142 0-7.5 3.357-7.5 7.5v22.117c0 4.143 3.358 7.5 7.5 7.5s7.5-3.357 7.5-7.5v-22.117c0-4.143-3.357-7.5-7.5-7.5z"/><path d="m205.356 313.929c.715.213 1.437.314 2.147.314 3.23 0 6.213-2.104 7.184-5.358l18.613-62.4c1.184-3.969-1.074-8.146-5.043-9.331-3.968-1.18-8.147 1.075-9.331 5.044l-18.613 62.4c-1.184 3.968 1.074 8.146 5.043 9.331z"/><path d="m349.166 242.197c-1.184-3.97-5.362-6.229-9.331-5.044-3.97 1.185-6.228 5.362-5.043 9.331l36.877 123.631c.971 3.255 3.953 5.358 7.184 5.358.709 0 1.432-.102 2.146-.314 3.97-1.185 6.228-5.362 5.043-9.331z"/></g></svg>