<?xml version="1.0" encoding="UTF-8" standalone="no"?>
<svg
   xmlns:dc="http://purl.org/dc/elements/1.1/"
   xmlns:cc="http://creativecommons.org/ns#"
   xmlns:rdf="http://www.w3.org/1999/02/22-rdf-syntax-ns#"
   xmlns:svg="http://www.w3.org/2000/svg"
   xmlns="http://www.w3.org/2000/svg"
   xmlns:xlink="http://www.w3.org/1999/xlink"
   height="205.09998"
   width="743.79999"
   xml:space="preserve"
   viewBox="74 64.5 743.79998 205.09997"
   y="0px"
   x="0px"
   id="Capa_1"
   version="1.1"><metadata
   id="metadata230"><rdf:RDF><cc:Work
       rdf:about=""><dc:format>image/svg+xml</dc:format><dc:type
         rdf:resource="http://purl.org/dc/dcmitype/StillImage" /><dc:title></dc:title></cc:Work></rdf:RDF></metadata><defs
   id="defs228" />
<style
   id="style2"
   type="text/css">
	.st0{fill:#1D8FCA;}
	.st1{fill:#E3AF3D;}
	.st2{clip-path:url(#SVGID_2_);fill:#E6B641;}
	.st3{clip-path:url(#SVGID_4_);fill:#E6B641;}
	.st4{clip-path:url(#SVGID_6_);fill:#E6B641;}
	.st5{clip-path:url(#SVGID_8_);fill:#E6B641;}
	.st6{clip-path:url(#SVGID_10_);fill:#E6B641;}
	.st7{clip-path:url(#SVGID_12_);fill:#E6B641;}
	.st8{clip-path:url(#SVGID_14_);fill:#E6B641;}
	.st9{clip-path:url(#SVGID_16_);fill:#E6B641;}
	.st10{fill:#3861A4;}
	.st11{fill:#CE847F;}
	.st12{fill:#C13A57;}
	.st13{fill:#479D6D;}
	.st14{fill:#E6B641;}
	.st15{fill:#BE3480;}
	.st16{fill:#1D8EC9;}
	.st17{fill:#CA7370;}
	.st18{fill:#DCA831;}
	.st19{clip-path:url(#SVGID_18_);fill:#FFFFFF;}
	.st20{clip-path:url(#SVGID_20_);fill:#FFFFFF;}
	.st21{clip-path:url(#SVGID_22_);fill:#FFFFFF;}
	.st22{clip-path:url(#SVGID_24_);fill:#FFFFFF;}
	.st23{clip-path:url(#SVGID_26_);fill:#FFFFFF;}
	.st24{clip-path:url(#SVGID_28_);fill:#FFFFFF;}
	.st25{clip-path:url(#SVGID_30_);fill:#FFFFFF;}
	.st26{clip-path:url(#SVGID_32_);fill:#FFFFFF;}
	.st27{fill:#FFFFFF;}
</style>
<rect
   transform="scale(1,-1)"
   style="fill:#ffffff;stroke-width:0.33262068"
   height="63.394722"
   width="743.59998"
   class="st0"
   y="-269.09473"
   x="74.199997"
   id="XMLID_2575_" />

<g
   transform="translate(0.6,-507.3)"
   id="XMLID_2932_">
	<g
   id="g13">
		<defs
   id="defs7">
			<rect
   height="161.2"
   width="122.9"
   y="601.20001"
   x="638.29999"
   id="SVGID_1_" />
		</defs>
		<clipPath
   id="SVGID_2_">
			<use
   height="100%"
   width="100%"
   y="0"
   x="0"
   id="use9"
   style="overflow:visible"
   xlink:href="#SVGID_1_" />
		</clipPath>
		<path
   style="fill:#e6b641"
   clip-path="url(#SVGID_2_)"
   d="m 864.1,636.4 c -0.5,0.3 -1,0.7 -1.5,1 -3.5,2.3 -7.1,4.7 -11.9,4.7 -4.7,0 -8.4,-2.4 -11.9,-4.7 -3.3,-2.2 -6.5,-4.2 -10.5,-4.2 -4,0 -7.2,2.1 -10.5,4.2 -3.5,2.3 -7.1,4.7 -11.9,4.7 -4.8,0 -8.4,-2.4 -11.9,-4.7 -3.3,-2.2 -6.5,-4.2 -10.5,-4.2 -4,0 -7.2,2.1 -10.5,4.2 -3.5,2.3 -7.1,4.7 -11.9,4.7 -4.7,0 -8.4,-2.4 -11.9,-4.7 -3.3,-2.2 -6.5,-4.2 -10.5,-4.2 -4,0 -7.2,2.1 -10.5,4.2 -3.5,2.3 -7.1,4.7 -11.9,4.7 -4.7,0 -8.4,-2.4 -11.9,-4.7 -3.3,-2.2 -6.5,-4.2 -10.5,-4.2 -4,0 -7.2,2.1 -10.5,4.2 -3.5,2.3 -7.1,4.7 -11.9,4.7 -4.7,0 -8.4,-2.4 -11.9,-4.7 -0.5,-0.3 -1,-0.7 -1.5,-1 l 1.3,-3 c 0.5,0.3 1,0.7 1.6,1 3.3,2.2 6.5,4.2 10.5,4.2 4,0 7.2,-2.1 10.5,-4.2 3.5,-2.3 7.1,-4.7 11.9,-4.7 4.7,0 8.4,2.4 11.9,4.7 3.3,2.2 6.5,4.2 10.5,4.2 4,0 7.2,-2.1 10.5,-4.2 3.5,-2.3 7.1,-4.7 11.9,-4.7 4.7,0 8.4,2.4 11.9,4.7 3.3,2.2 6.5,4.2 10.5,4.2 4,0 7.2,-2.1 10.5,-4.2 3.5,-2.3 7.1,-4.7 11.9,-4.7 4.7,0 8.4,2.4 11.9,4.7 3.3,2.2 6.5,4.2 10.5,4.2 4,0 7.2,-2.1 10.5,-4.2 3.5,-2.3 7.1,-4.7 11.9,-4.7 4.7,0 8.4,2.4 11.9,4.7 3.3,2.2 6.5,4.2 10.5,4.2 4,0 7.2,-2.1 10.5,-4.2 0.5,-0.3 1,-0.7 1.6,-1 z"
   class="st2"
   id="XMLID_1828_" />
	</g>
	<g
   id="g22">
		<defs
   id="defs16">
			<rect
   height="161.2"
   width="122.9"
   y="601.20001"
   x="638.29999"
   id="SVGID_3_" />
		</defs>
		<clipPath
   id="SVGID_4_">
			<use
   height="100%"
   width="100%"
   y="0"
   x="0"
   id="use18"
   style="overflow:visible"
   xlink:href="#SVGID_3_" />
		</clipPath>
		<path
   style="fill:#e6b641"
   clip-path="url(#SVGID_4_)"
   d="m 850.4,652.1 c -4.6,-0.1 -8.2,-2.4 -11.6,-4.7 -3.3,-2.2 -6.5,-4.2 -10.5,-4.2 -4,0 -7.2,2.1 -10.5,4.2 -3.5,2.3 -7.1,4.7 -11.9,4.7 -4.7,0 -8.4,-2.4 -11.9,-4.7 -3.3,-2.2 -6.5,-4.2 -10.5,-4.2 -4,0 -7.2,2.1 -10.5,4.2 -3.5,2.3 -7.1,4.7 -11.9,4.7 -4.7,0 -8.4,-2.4 -11.9,-4.7 -3.3,-2.2 -6.5,-4.2 -10.5,-4.2 -4,0 -7.2,2.1 -10.5,4.2 -3.5,2.3 -7.1,4.7 -11.9,4.7 -4.7,0 -8.4,-2.4 -11.9,-4.7 -3.3,-2.2 -6.5,-4.2 -10.5,-4.2 -4,0 -7.2,2.1 -10.5,4.2 -3.5,2.3 -7,4.6 -11.6,4.7 v -3.4 c 3.9,-0.1 7,-2.1 10.3,-4.2 3.5,-2.3 7.1,-4.7 11.9,-4.7 4.7,0 8.4,2.4 11.9,4.7 3.3,2.2 6.5,4.2 10.5,4.2 4,0 7.2,-2.1 10.5,-4.2 3.5,-2.3 7.1,-4.7 11.9,-4.7 4.7,0 8.4,2.4 11.9,4.7 3.3,2.2 6.5,4.2 10.5,4.2 4,0 7.2,-2.1 10.5,-4.2 3.5,-2.3 7.1,-4.7 11.9,-4.7 4.7,0 8.4,2.4 11.9,4.7 3.3,2.2 6.5,4.2 10.5,4.2 4,0 7.2,-2.1 10.5,-4.2 3.5,-2.3 7.1,-4.7 11.9,-4.7 4.7,0 8.4,2.4 11.9,4.7 3.3,2.2 6.4,4.2 10.3,4.2 z"
   class="st3"
   id="XMLID_1827_" />
	</g>
	<g
   id="g31">
		<defs
   id="defs25">
			<rect
   height="161.2"
   width="122.9"
   y="601.20001"
   x="638.29999"
   id="SVGID_5_" />
		</defs>
		<clipPath
   id="SVGID_6_">
			<use
   height="100%"
   width="100%"
   y="0"
   x="0"
   id="use27"
   style="overflow:visible"
   xlink:href="#SVGID_5_" />
		</clipPath>
		<path
   style="fill:#e6b641"
   clip-path="url(#SVGID_6_)"
   d="m 864.1,657 c -0.5,0.3 -1,0.7 -1.5,1 -3.5,2.3 -7.1,4.7 -11.9,4.7 -4.7,0 -8.4,-2.4 -11.9,-4.7 -3.3,-2.2 -6.5,-4.2 -10.5,-4.2 -4,0 -7.2,2.1 -10.5,4.2 -3.5,2.3 -7.1,4.7 -11.9,4.7 -4.8,0 -8.4,-2.4 -11.9,-4.7 -3.3,-2.2 -6.5,-4.2 -10.5,-4.2 -4,0 -7.2,2.1 -10.5,4.2 -3.5,2.3 -7.1,4.7 -11.9,4.7 -4.7,0 -8.4,-2.4 -11.9,-4.7 -3.3,-2.2 -6.5,-4.2 -10.5,-4.2 -4,0 -7.2,2.1 -10.5,4.2 -3.5,2.3 -7.1,4.7 -11.9,4.7 -4.7,0 -8.4,-2.4 -11.9,-4.7 -3.3,-2.2 -6.5,-4.2 -10.5,-4.2 -4,0 -7.2,2.1 -10.5,4.2 -3.5,2.3 -7.1,4.7 -11.9,4.7 -4.7,0 -8.4,-2.4 -11.9,-4.7 -0.5,-0.3 -1,-0.7 -1.5,-1 l 1.3,-3 c 0.5,0.3 1,0.7 1.6,1 3.3,2.2 6.5,4.2 10.5,4.2 4,0 7.2,-2.1 10.5,-4.2 3.5,-2.3 7.1,-4.7 11.9,-4.7 4.7,0 8.4,2.4 11.9,4.7 3.3,2.2 6.5,4.2 10.5,4.2 4,0 7.2,-2.1 10.5,-4.2 3.5,-2.3 7.1,-4.7 11.9,-4.7 4.7,0 8.4,2.4 11.9,4.7 3.3,2.2 6.5,4.2 10.5,4.2 4,0 7.2,-2.1 10.5,-4.2 3.5,-2.3 7.1,-4.7 11.9,-4.7 4.7,0 8.4,2.4 11.9,4.7 3.3,2.2 6.5,4.2 10.5,4.2 4,0 7.2,-2.1 10.5,-4.2 3.5,-2.3 7.1,-4.7 11.9,-4.7 4.7,0 8.4,2.4 11.9,4.7 3.3,2.2 6.5,4.2 10.5,4.2 4,0 7.2,-2.1 10.5,-4.2 0.5,-0.3 1,-0.7 1.6,-1 z"
   class="st4"
   id="XMLID_1826_" />
	</g>
	<g
   id="g40">
		<defs
   id="defs34">
			<rect
   height="161.2"
   width="122.9"
   y="601.20001"
   x="638.29999"
   id="SVGID_7_" />
		</defs>
		<clipPath
   id="SVGID_8_">
			<use
   height="100%"
   width="100%"
   y="0"
   x="0"
   id="use36"
   style="overflow:visible"
   xlink:href="#SVGID_7_" />
		</clipPath>
		<path
   style="fill:#e6b641"
   clip-path="url(#SVGID_8_)"
   d="m 850.4,672.7 c -4.6,-0.1 -8.2,-2.4 -11.6,-4.7 -3.3,-2.2 -6.5,-4.2 -10.5,-4.2 -4,0 -7.2,2.1 -10.5,4.2 -3.5,2.3 -7.1,4.7 -11.9,4.7 -4.7,0 -8.4,-2.4 -11.9,-4.7 -3.3,-2.2 -6.5,-4.2 -10.5,-4.2 -4,0 -7.2,2.1 -10.5,4.2 -3.5,2.3 -7.1,4.7 -11.9,4.7 -4.7,0 -8.4,-2.4 -11.9,-4.7 -3.3,-2.2 -6.5,-4.2 -10.5,-4.2 -4,0 -7.2,2.1 -10.5,4.2 -3.5,2.3 -7.1,4.7 -11.9,4.7 -4.7,0 -8.4,-2.4 -11.9,-4.7 -3.3,-2.2 -6.5,-4.2 -10.5,-4.2 -4,0 -7.2,2.1 -10.5,4.2 -3.5,2.3 -7,4.6 -11.6,4.7 v -3.4 c 3.9,-0.1 7,-2.1 10.3,-4.2 3.5,-2.3 7.1,-4.7 11.9,-4.7 4.7,0 8.4,2.4 11.9,4.7 3.3,2.2 6.5,4.2 10.5,4.2 4,0 7.2,-2.1 10.5,-4.2 3.5,-2.3 7.1,-4.7 11.9,-4.7 4.7,0 8.4,2.4 11.9,4.7 3.3,2.2 6.5,4.2 10.5,4.2 4,0 7.2,-2.1 10.5,-4.2 3.5,-2.3 7.1,-4.7 11.9,-4.7 4.7,0 8.4,2.4 11.9,4.7 3.3,2.2 6.5,4.2 10.5,4.2 4,0 7.2,-2.1 10.5,-4.2 3.5,-2.3 7.1,-4.7 11.9,-4.7 4.7,0 8.4,2.4 11.9,4.7 3.3,2.2 6.4,4.2 10.3,4.2 z"
   class="st5"
   id="XMLID_1825_" />
	</g>
	<g
   id="g49">
		<defs
   id="defs43">
			<rect
   height="161.2"
   width="122.9"
   y="601.20001"
   x="638.29999"
   id="SVGID_9_" />
		</defs>
		<clipPath
   id="SVGID_10_">
			<use
   height="100%"
   width="100%"
   y="0"
   x="0"
   id="use45"
   style="overflow:visible"
   xlink:href="#SVGID_9_" />
		</clipPath>
		<path
   style="fill:#e6b641"
   clip-path="url(#SVGID_10_)"
   d="m 864.1,678.2 c -0.5,0.3 -1,0.7 -1.5,1 -3.5,2.3 -7.1,4.7 -11.9,4.7 -4.7,0 -8.4,-2.4 -11.9,-4.7 -3.3,-2.2 -6.5,-4.2 -10.5,-4.2 -4,0 -7.2,2.1 -10.5,4.2 -3.5,2.3 -7.1,4.7 -11.9,4.7 -4.8,0 -8.4,-2.4 -11.9,-4.7 -3.3,-2.2 -6.5,-4.2 -10.5,-4.2 -4,0 -7.2,2.1 -10.5,4.2 -3.5,2.3 -7.1,4.7 -11.9,4.7 -4.7,0 -8.4,-2.4 -11.9,-4.7 -3.3,-2.2 -6.5,-4.2 -10.5,-4.2 -4,0 -7.2,2.1 -10.5,4.2 -3.5,2.3 -7.1,4.7 -11.9,4.7 -4.7,0 -8.4,-2.4 -11.9,-4.7 -3.3,-2.2 -6.5,-4.2 -10.5,-4.2 -4,0 -7.2,2.1 -10.5,4.2 -3.5,2.3 -7.1,4.7 -11.9,4.7 -4.7,0 -8.4,-2.4 -11.9,-4.7 -0.5,-0.3 -1,-0.7 -1.5,-1 l 1.3,-3 c 0.5,0.3 1,0.7 1.6,1 3.3,2.2 6.5,4.2 10.5,4.2 4,0 7.2,-2.1 10.5,-4.2 3.5,-2.3 7.1,-4.7 11.9,-4.7 4.7,0 8.4,2.4 11.9,4.7 3.3,2.2 6.5,4.2 10.5,4.2 4,0 7.2,-2.1 10.5,-4.2 3.5,-2.3 7.1,-4.7 11.9,-4.7 4.7,0 8.4,2.4 11.9,4.7 3.3,2.2 6.5,4.2 10.5,4.2 4,0 7.2,-2.1 10.5,-4.2 3.5,-2.3 7.1,-4.7 11.9,-4.7 4.7,0 8.4,2.4 11.9,4.7 3.3,2.2 6.5,4.2 10.5,4.2 4,0 7.2,-2.1 10.5,-4.2 3.5,-2.3 7.1,-4.7 11.9,-4.7 4.7,0 8.4,2.4 11.9,4.7 3.3,2.2 6.5,4.2 10.5,4.2 4,0 7.2,-2.1 10.5,-4.2 0.5,-0.3 1,-0.7 1.6,-1 z"
   class="st6"
   id="XMLID_1824_" />
	</g>
	<g
   id="g58">
		<defs
   id="defs52">
			<rect
   height="161.2"
   width="122.9"
   y="601.20001"
   x="638.29999"
   id="SVGID_11_" />
		</defs>
		<clipPath
   id="SVGID_12_">
			<use
   height="100%"
   width="100%"
   y="0"
   x="0"
   id="use54"
   style="overflow:visible"
   xlink:href="#SVGID_11_" />
		</clipPath>
		<path
   style="fill:#e6b641"
   clip-path="url(#SVGID_12_)"
   d="m 850.4,693.8 c -4.6,-0.1 -8.2,-2.4 -11.6,-4.7 -3.3,-2.2 -6.5,-4.2 -10.5,-4.2 -4,0 -7.2,2.1 -10.5,4.2 -3.5,2.3 -7.1,4.7 -11.9,4.7 -4.7,0 -8.4,-2.4 -11.9,-4.7 -3.3,-2.2 -6.5,-4.2 -10.5,-4.2 -4,0 -7.2,2.1 -10.5,4.2 -3.5,2.3 -7.1,4.7 -11.9,4.7 -4.7,0 -8.4,-2.4 -11.9,-4.7 -3.3,-2.2 -6.5,-4.2 -10.5,-4.2 -4,0 -7.2,2.1 -10.5,4.2 -3.5,2.3 -7.1,4.7 -11.9,4.7 -4.7,0 -8.4,-2.4 -11.9,-4.7 -3.3,-2.2 -6.5,-4.2 -10.5,-4.2 -4,0 -7.2,2.1 -10.5,4.2 -3.5,2.3 -7,4.6 -11.6,4.7 v -3.4 c 3.9,-0.1 7,-2.1 10.3,-4.2 3.5,-2.3 7.1,-4.7 11.9,-4.7 4.7,0 8.4,2.4 11.9,4.7 3.3,2.2 6.5,4.2 10.5,4.2 4,0 7.2,-2.1 10.5,-4.2 3.5,-2.3 7.1,-4.7 11.9,-4.7 4.7,0 8.4,2.4 11.9,4.7 3.3,2.2 6.5,4.2 10.5,4.2 4,0 7.2,-2.1 10.5,-4.2 3.5,-2.3 7.1,-4.7 11.9,-4.7 4.7,0 8.4,2.4 11.9,4.7 3.3,2.2 6.5,4.2 10.5,4.2 4,0 7.2,-2.1 10.5,-4.2 3.5,-2.3 7.1,-4.7 11.9,-4.7 4.7,0 8.4,2.4 11.9,4.7 3.3,2.2 6.4,4.2 10.3,4.2 z"
   class="st7"
   id="XMLID_1823_" />
	</g>
	<g
   id="g67">
		<defs
   id="defs61">
			<rect
   height="161.2"
   width="122.9"
   y="601.20001"
   x="638.29999"
   id="SVGID_13_" />
		</defs>
		<clipPath
   id="SVGID_14_">
			<use
   height="100%"
   width="100%"
   y="0"
   x="0"
   id="use63"
   style="overflow:visible"
   xlink:href="#SVGID_13_" />
		</clipPath>
		<path
   style="fill:#e6b641"
   clip-path="url(#SVGID_14_)"
   d="m 864.1,698.8 c -0.5,0.3 -1,0.7 -1.5,1 -3.5,2.3 -7.1,4.7 -11.9,4.7 -4.7,0 -8.4,-2.4 -11.9,-4.7 -3.3,-2.2 -6.5,-4.2 -10.5,-4.2 -4,0 -7.2,2.1 -10.5,4.2 -3.5,2.3 -7.1,4.7 -11.9,4.7 -4.8,0 -8.4,-2.4 -11.9,-4.7 -3.3,-2.2 -6.5,-4.2 -10.5,-4.2 -4,0 -7.2,2.1 -10.5,4.2 -3.5,2.3 -7.1,4.7 -11.9,4.7 -4.7,0 -8.4,-2.4 -11.9,-4.7 -3.3,-2.2 -6.5,-4.2 -10.5,-4.2 -4,0 -7.2,2.1 -10.5,4.2 -3.5,2.3 -7.1,4.7 -11.9,4.7 -4.7,0 -8.4,-2.4 -11.9,-4.7 -3.3,-2.2 -6.5,-4.2 -10.5,-4.2 -4,0 -7.2,2.1 -10.5,4.2 -3.5,2.3 -7.1,4.7 -11.9,4.7 -4.7,0 -8.4,-2.4 -11.9,-4.7 -0.5,-0.3 -1,-0.7 -1.5,-1 l 1.3,-3 c 0.5,0.3 1,0.7 1.6,1 3.3,2.2 6.5,4.2 10.5,4.2 4,0 7.2,-2.1 10.5,-4.2 3.5,-2.3 7.1,-4.7 11.9,-4.7 4.7,0 8.4,2.4 11.9,4.7 3.3,2.2 6.5,4.2 10.5,4.2 4,0 7.2,-2.1 10.5,-4.2 3.5,-2.3 7.1,-4.7 11.9,-4.7 4.7,0 8.4,2.4 11.9,4.7 3.3,2.2 6.5,4.2 10.5,4.2 4,0 7.2,-2.1 10.5,-4.2 3.5,-2.3 7.1,-4.7 11.9,-4.7 4.7,0 8.4,2.4 11.9,4.7 3.3,2.2 6.5,4.2 10.5,4.2 4,0 7.2,-2.1 10.5,-4.2 3.5,-2.3 7.1,-4.7 11.9,-4.7 4.7,0 8.4,2.4 11.9,4.7 3.3,2.2 6.5,4.2 10.5,4.2 4,0 7.2,-2.1 10.5,-4.2 0.5,-0.3 1,-0.7 1.6,-1 z"
   class="st8"
   id="XMLID_1822_" />
	</g>
	<g
   id="g76">
		<defs
   id="defs70">
			<rect
   height="161.2"
   width="122.9"
   y="601.20001"
   x="638.29999"
   id="SVGID_15_" />
		</defs>
		<clipPath
   id="SVGID_16_">
			<use
   height="100%"
   width="100%"
   y="0"
   x="0"
   id="use72"
   style="overflow:visible"
   xlink:href="#SVGID_15_" />
		</clipPath>
		<path
   style="fill:#e6b641"
   clip-path="url(#SVGID_16_)"
   d="m 850.4,714.4 c -4.6,-0.1 -8.2,-2.4 -11.6,-4.7 -3.3,-2.2 -6.5,-4.2 -10.5,-4.2 -4,0 -7.2,2.1 -10.5,4.2 -3.5,2.3 -7.1,4.7 -11.9,4.7 -4.7,0 -8.4,-2.4 -11.9,-4.7 -3.3,-2.2 -6.5,-4.2 -10.5,-4.2 -4,0 -7.2,2.1 -10.5,4.2 -3.5,2.3 -7.1,4.7 -11.9,4.7 -4.7,0 -8.4,-2.4 -11.9,-4.7 -3.3,-2.2 -6.5,-4.2 -10.5,-4.2 -4,0 -7.2,2.1 -10.5,4.2 -3.5,2.3 -7.1,4.7 -11.9,4.7 -4.7,0 -8.4,-2.4 -11.9,-4.7 -3.3,-2.2 -6.5,-4.2 -10.5,-4.2 -4,0 -7.2,2.1 -10.5,4.2 -3.5,2.3 -7,4.6 -11.6,4.7 V 711 c 3.9,-0.1 7,-2.1 10.3,-4.2 3.5,-2.3 7.1,-4.7 11.9,-4.7 4.7,0 8.4,2.4 11.9,4.7 3.3,2.2 6.5,4.2 10.5,4.2 4,0 7.2,-2.1 10.5,-4.2 3.5,-2.3 7.1,-4.7 11.9,-4.7 4.7,0 8.4,2.4 11.9,4.7 3.3,2.2 6.5,4.2 10.5,4.2 4,0 7.2,-2.1 10.5,-4.2 3.5,-2.3 7.1,-4.7 11.9,-4.7 4.7,0 8.4,2.4 11.9,4.7 3.3,2.2 6.5,4.2 10.5,4.2 4,0 7.2,-2.1 10.5,-4.2 3.5,-2.3 7.1,-4.7 11.9,-4.7 4.7,0 8.4,2.4 11.9,4.7 3.3,2.2 6.4,4.2 10.3,4.2 z"
   class="st9"
   id="XMLID_1821_" />
	</g>
</g>


<rect
   style="fill:#c13a57"
   height="97.900002"
   width="91.400002"
   class="st12"
   y="171.49998"
   x="74"
   id="XMLID_3107_" />
<polyline
   transform="translate(0.6,-507.3)"
   style="fill:#479d6d"
   points="164.8,776.7 73.4,776.7 73.4,678.8 "
   class="st13"
   id="XMLID_3106_" />
<rect
   style="fill:#c13a57"
   height="48.900002"
   width="45.700001"
   class="st12"
   y="122.60002"
   x="74"
   id="XMLID_3105_" />
<polyline
   transform="translate(0.6,-507.3)"
   style="fill:#e6b641"
   points="119.1,678.8 73.4,678.8 73.4,629.9 "
   class="st14"
   id="XMLID_3104_" />
<rect
   style="fill:#e6b641"
   height="43.200001"
   width="44.299999"
   class="st14"
   y="171.49998"
   x="165.40001"
   id="XMLID_3103_" />
<path
   style="fill:#c13a57"
   d="m 199.5,193.1 c 0,6.3 -5.1,11.3 -11.4,11.3 -6.3,0 -11.4,-5.1 -11.4,-11.3 0,-6.2 5.1,-11.3 11.4,-11.3 6.4,0 11.4,5.1 11.4,11.3"
   class="st12"
   id="XMLID_3102_" />

<rect
   style="fill:#e6b641"
   height="3"
   width="106.3"
   class="st14"
   y="239.90001"
   x="173"
   id="XMLID_1699_" />
<polyline
   transform="translate(0.6,-507.3)"
   style="fill:#be3480"
   points="207.3,659.9 196.1,659.9 196.1,648.8 "
   class="st15"
   id="XMLID_1688_" />
<rect
   style="fill:#3861a4"
   height="66.300003"
   width="68.400002"
   class="st10"
   y="203.29997"
   x="749.09998"
   id="XMLID_15_" />
<rect
   style="fill:#479d6d"
   height="66.300003"
   width="68.400002"
   class="st13"
   y="136.99998"
   x="749.09998"
   id="XMLID_14_" />
<rect
   style="fill:#3861a4"
   height="66.300003"
   width="68.400002"
   class="st10"
   y="73.699997"
   x="749.09998"
   id="XMLID_13_" />
<rect
   style="fill:#1d8ec9"
   height="66.300003"
   width="68.400002"
   class="st16"
   y="203.29997"
   x="749.09998"
   id="XMLID_12_" />
<path
   style="fill:#e6b641"
   d="m 749.1,203.3 c 18.9,0 34.2,14.8 34.2,33.1 0,18.3 -15.3,33.1 -34.2,33.1"
   class="st14"
   id="XMLID_11_" />
<rect
   style="fill:#e6b641"
   height="5.9000001"
   width="55.599998"
   class="st14"
   y="82.299973"
   x="741.89996"
   id="XMLID_9_" />
<polygon
   transform="translate(0.6,-507.3)"
   style="fill:#e6b641"
   points="107,599.1 130.6,585.5 107,571.8 "
   class="st14"
   id="XMLID_17_" />







</svg>