<?xml version="1.0" encoding="utf-8"?>
<!-- Generator: Adobe Illustrator 19.0.0, SVG Export Plug-In . SVG Version: 6.00 Build 0)  -->
<svg version="1.1" id="Capa_1" xmlns="http://www.w3.org/2000/svg" xmlns:xlink="http://www.w3.org/1999/xlink" x="0px" y="0px"
	 viewBox="0 0 743.2 712.4" style="enable-background:new 0 0 743.2 712.4;" xml:space="preserve">
<style type="text/css">
	.st0{fill:#1D8FCA;}
	.st1{fill:#E3AF3D;}
	.st2{clip-path:url(#XMLID_35_);fill:#E6B641;}
	.st3{fill:#3861A4;}
	.st4{fill:#CE847F;}
	.st5{fill:#C13A57;}
	.st6{fill:#479D6D;}
	.st7{fill:#E6B641;}
	.st8{fill:#BE3480;}
	.st9{fill:#1D8EC9;}
	.st10{fill:#CA7370;}
	.st11{fill:#DCA831;}
	.st12{clip-path:url(#XMLID_36_);fill:#FFFFFF;}
</style>
<rect id="XMLID_2575_" x="-0.4" y="75.5" class="st0" width="743.6" height="573"/>
<path id="XMLID_1830_" class="st1" d="M0.2,131.5c22.4,0,40.5,18.1,40.5,40.4s-18.1,40.4-40.5,40.4"/>
<g id="XMLID_2932_">
	<defs>
		<rect id="XMLID_1834_" x="564.3" y="536.7" width="122.9" height="161.2"/>
	</defs>
	<clipPath id="XMLID_35_">
		<use xlink:href="#XMLID_1834_"  style="overflow:visible;"/>
	</clipPath>
	<path id="XMLID_1828_" class="st2" d="M790.1,571.9c-0.5,0.3-1,0.7-1.5,1c-3.5,2.3-7.1,4.7-11.9,4.7c-4.7,0-8.4-2.4-11.9-4.7
		c-3.3-2.2-6.5-4.2-10.5-4.2c-4,0-7.2,2.1-10.5,4.2c-3.5,2.3-7.1,4.7-11.9,4.7s-8.4-2.4-11.9-4.7c-3.3-2.2-6.5-4.2-10.5-4.2
		c-4,0-7.2,2.1-10.5,4.2c-3.5,2.3-7.1,4.7-11.9,4.7c-4.7,0-8.4-2.4-11.9-4.7c-3.3-2.2-6.5-4.2-10.5-4.2c-4,0-7.2,2.1-10.5,4.2
		c-3.5,2.3-7.1,4.7-11.9,4.7c-4.7,0-8.4-2.4-11.9-4.7c-3.3-2.2-6.5-4.2-10.5-4.2c-4,0-7.2,2.1-10.5,4.2c-3.5,2.3-7.1,4.7-11.9,4.7
		c-4.7,0-8.4-2.4-11.9-4.7c-0.5-0.3-1-0.7-1.5-1l1.3-3c0.5,0.3,1,0.7,1.6,1c3.3,2.2,6.5,4.2,10.5,4.2c4,0,7.2-2.1,10.5-4.2
		c3.5-2.3,7.1-4.7,11.9-4.7c4.7,0,8.4,2.4,11.9,4.7c3.3,2.2,6.5,4.2,10.5,4.2c4,0,7.2-2.1,10.5-4.2c3.5-2.3,7.1-4.7,11.9-4.7
		c4.7,0,8.4,2.4,11.9,4.7c3.3,2.2,6.5,4.2,10.5,4.2c4,0,7.2-2.1,10.5-4.2c3.5-2.3,7.1-4.7,11.9-4.7c4.7,0,8.4,2.4,11.9,4.7
		c3.3,2.2,6.5,4.2,10.5,4.2c4,0,7.2-2.1,10.5-4.2c3.5-2.3,7.1-4.7,11.9-4.7c4.7,0,8.4,2.4,11.9,4.7c3.3,2.2,6.5,4.2,10.5,4.2
		c4,0,7.2-2.1,10.5-4.2c0.5-0.3,1-0.7,1.6-1L790.1,571.9z"/>
	<path id="XMLID_1827_" class="st2" d="M776.4,587.6c-4.6-0.1-8.2-2.4-11.6-4.7c-3.3-2.2-6.5-4.2-10.5-4.2c-4,0-7.2,2.1-10.5,4.2
		c-3.5,2.3-7.1,4.7-11.9,4.7c-4.7,0-8.4-2.4-11.9-4.7c-3.3-2.2-6.5-4.2-10.5-4.2c-4,0-7.2,2.1-10.5,4.2c-3.5,2.3-7.1,4.7-11.9,4.7
		c-4.7,0-8.4-2.4-11.9-4.7c-3.3-2.2-6.5-4.2-10.5-4.2c-4,0-7.2,2.1-10.5,4.2c-3.5,2.3-7.1,4.7-11.9,4.7c-4.7,0-8.4-2.4-11.9-4.7
		c-3.3-2.2-6.5-4.2-10.5-4.2c-4,0-7.2,2.1-10.5,4.2c-3.5,2.3-7,4.6-11.6,4.7l0-3.4c3.9-0.1,7-2.1,10.3-4.2c3.5-2.3,7.1-4.7,11.9-4.7
		c4.7,0,8.4,2.4,11.9,4.7c3.3,2.2,6.5,4.2,10.5,4.2c4,0,7.2-2.1,10.5-4.2c3.5-2.3,7.1-4.7,11.9-4.7c4.7,0,8.4,2.4,11.9,4.7
		c3.3,2.2,6.5,4.2,10.5,4.2c4,0,7.2-2.1,10.5-4.2c3.5-2.3,7.1-4.7,11.9-4.7c4.7,0,8.4,2.4,11.9,4.7c3.3,2.2,6.5,4.2,10.5,4.2
		s7.2-2.1,10.5-4.2c3.5-2.3,7.1-4.7,11.9-4.7c4.7,0,8.4,2.4,11.9,4.7c3.3,2.2,6.4,4.2,10.3,4.2L776.4,587.6z"/>
	<path id="XMLID_1826_" class="st2" d="M790.1,592.5c-0.5,0.3-1,0.7-1.5,1c-3.5,2.3-7.1,4.7-11.9,4.7c-4.7,0-8.4-2.4-11.9-4.7
		c-3.3-2.2-6.5-4.2-10.5-4.2c-4,0-7.2,2.1-10.5,4.2c-3.5,2.3-7.1,4.7-11.9,4.7s-8.4-2.4-11.9-4.7c-3.3-2.2-6.5-4.2-10.5-4.2
		c-4,0-7.2,2.1-10.5,4.2c-3.5,2.3-7.1,4.7-11.9,4.7c-4.7,0-8.4-2.4-11.9-4.7c-3.3-2.2-6.5-4.2-10.5-4.2c-4,0-7.2,2.1-10.5,4.2
		c-3.5,2.3-7.1,4.7-11.9,4.7c-4.7,0-8.4-2.4-11.9-4.7c-3.3-2.2-6.5-4.2-10.5-4.2c-4,0-7.2,2.1-10.5,4.2c-3.5,2.3-7.1,4.7-11.9,4.7
		c-4.7,0-8.4-2.4-11.9-4.7c-0.5-0.3-1-0.7-1.5-1l1.3-3c0.5,0.3,1,0.7,1.6,1c3.3,2.2,6.5,4.2,10.5,4.2c4,0,7.2-2.1,10.5-4.2
		c3.5-2.3,7.1-4.7,11.9-4.7c4.7,0,8.4,2.4,11.9,4.7c3.3,2.2,6.5,4.2,10.5,4.2c4,0,7.2-2.1,10.5-4.2c3.5-2.3,7.1-4.7,11.9-4.7
		c4.7,0,8.4,2.4,11.9,4.7c3.3,2.2,6.5,4.2,10.5,4.2c4,0,7.2-2.1,10.5-4.2c3.5-2.3,7.1-4.7,11.9-4.7c4.7,0,8.4,2.4,11.9,4.7
		c3.3,2.2,6.5,4.2,10.5,4.2c4,0,7.2-2.1,10.5-4.2c3.5-2.3,7.1-4.7,11.9-4.7c4.7,0,8.4,2.4,11.9,4.7c3.3,2.2,6.5,4.2,10.5,4.2
		c4,0,7.2-2.1,10.5-4.2c0.5-0.3,1-0.7,1.6-1L790.1,592.5z"/>
	<path id="XMLID_1825_" class="st2" d="M776.4,608.2c-4.6-0.1-8.2-2.4-11.6-4.7c-3.3-2.2-6.5-4.2-10.5-4.2c-4,0-7.2,2.1-10.5,4.2
		c-3.5,2.3-7.1,4.7-11.9,4.7c-4.7,0-8.4-2.4-11.9-4.7c-3.3-2.2-6.5-4.2-10.5-4.2c-4,0-7.2,2.1-10.5,4.2c-3.5,2.3-7.1,4.7-11.9,4.7
		c-4.7,0-8.4-2.4-11.9-4.7c-3.3-2.2-6.5-4.2-10.5-4.2c-4,0-7.2,2.1-10.5,4.2c-3.5,2.3-7.1,4.7-11.9,4.7c-4.7,0-8.4-2.4-11.9-4.7
		c-3.3-2.2-6.5-4.2-10.5-4.2s-7.2,2.1-10.5,4.2c-3.5,2.3-7,4.6-11.6,4.7l0-3.4c3.9-0.1,7-2.1,10.3-4.2c3.5-2.3,7.1-4.7,11.9-4.7
		c4.7,0,8.4,2.4,11.9,4.7c3.3,2.2,6.5,4.2,10.5,4.2c4,0,7.2-2.1,10.5-4.2c3.5-2.3,7.1-4.7,11.9-4.7c4.7,0,8.4,2.4,11.9,4.7
		c3.3,2.2,6.5,4.2,10.5,4.2c4,0,7.2-2.1,10.5-4.2c3.5-2.3,7.1-4.7,11.9-4.7c4.7,0,8.4,2.4,11.9,4.7c3.3,2.2,6.5,4.2,10.5,4.2
		s7.2-2.1,10.5-4.2c3.5-2.3,7.1-4.7,11.9-4.7c4.7,0,8.4,2.4,11.9,4.7c3.3,2.2,6.4,4.2,10.3,4.2L776.4,608.2z"/>
	<path id="XMLID_1824_" class="st2" d="M790.1,613.7c-0.5,0.3-1,0.7-1.5,1c-3.5,2.3-7.1,4.7-11.9,4.7c-4.7,0-8.4-2.4-11.9-4.7
		c-3.3-2.2-6.5-4.2-10.5-4.2c-4,0-7.2,2.1-10.5,4.2c-3.5,2.3-7.1,4.7-11.9,4.7s-8.4-2.4-11.9-4.7c-3.3-2.2-6.5-4.2-10.5-4.2
		c-4,0-7.2,2.1-10.5,4.2c-3.5,2.3-7.1,4.7-11.9,4.7c-4.7,0-8.4-2.4-11.9-4.7c-3.3-2.2-6.5-4.2-10.5-4.2c-4,0-7.2,2.1-10.5,4.2
		c-3.5,2.3-7.1,4.7-11.9,4.7c-4.7,0-8.4-2.4-11.9-4.7c-3.3-2.2-6.5-4.2-10.5-4.2c-4,0-7.2,2.1-10.5,4.2c-3.5,2.3-7.1,4.7-11.9,4.7
		c-4.7,0-8.4-2.4-11.9-4.7c-0.5-0.3-1-0.7-1.5-1l1.3-3c0.5,0.3,1,0.7,1.6,1c3.3,2.2,6.5,4.2,10.5,4.2c4,0,7.2-2.1,10.5-4.2
		c3.5-2.3,7.1-4.7,11.9-4.7c4.7,0,8.4,2.4,11.9,4.7c3.3,2.2,6.5,4.2,10.5,4.2c4,0,7.2-2.1,10.5-4.2c3.5-2.3,7.1-4.7,11.9-4.7
		c4.7,0,8.4,2.4,11.9,4.7c3.3,2.2,6.5,4.2,10.5,4.2c4,0,7.2-2.1,10.5-4.2c3.5-2.3,7.1-4.7,11.9-4.7c4.7,0,8.4,2.4,11.9,4.7
		c3.3,2.2,6.5,4.2,10.5,4.2c4,0,7.2-2.1,10.5-4.2c3.5-2.3,7.1-4.7,11.9-4.7c4.7,0,8.4,2.4,11.9,4.7c3.3,2.2,6.5,4.2,10.5,4.2
		c4,0,7.2-2.1,10.5-4.2c0.5-0.3,1-0.7,1.6-1L790.1,613.7z"/>
	<path id="XMLID_1823_" class="st2" d="M776.4,629.3c-4.6-0.1-8.2-2.4-11.6-4.7c-3.3-2.2-6.5-4.2-10.5-4.2c-4,0-7.2,2.1-10.5,4.2
		c-3.5,2.3-7.1,4.7-11.9,4.7c-4.7,0-8.4-2.4-11.9-4.7c-3.3-2.2-6.5-4.2-10.5-4.2c-4,0-7.2,2.1-10.5,4.2c-3.5,2.3-7.1,4.7-11.9,4.7
		c-4.7,0-8.4-2.4-11.9-4.7c-3.3-2.2-6.5-4.2-10.5-4.2c-4,0-7.2,2.1-10.5,4.2c-3.5,2.3-7.1,4.7-11.9,4.7c-4.7,0-8.4-2.4-11.9-4.7
		c-3.3-2.2-6.5-4.2-10.5-4.2s-7.2,2.1-10.5,4.2c-3.5,2.3-7,4.6-11.6,4.7l0-3.4c3.9-0.1,7-2.1,10.3-4.2c3.5-2.3,7.1-4.7,11.9-4.7
		c4.7,0,8.4,2.4,11.9,4.7c3.3,2.2,6.5,4.2,10.5,4.2c4,0,7.2-2.1,10.5-4.2c3.5-2.3,7.1-4.7,11.9-4.7c4.7,0,8.4,2.4,11.9,4.7
		c3.3,2.2,6.5,4.2,10.5,4.2c4,0,7.2-2.1,10.5-4.2c3.5-2.3,7.1-4.7,11.9-4.7c4.7,0,8.4,2.4,11.9,4.7c3.3,2.2,6.5,4.2,10.5,4.2
		c4,0,7.2-2.1,10.5-4.2c3.5-2.3,7.1-4.7,11.9-4.7c4.7,0,8.4,2.4,11.9,4.7c3.3,2.2,6.4,4.2,10.3,4.2L776.4,629.3z"/>
	<path id="XMLID_1822_" class="st2" d="M790.1,634.3c-0.5,0.3-1,0.7-1.5,1c-3.5,2.3-7.1,4.7-11.9,4.7c-4.7,0-8.4-2.4-11.9-4.7
		c-3.3-2.2-6.5-4.2-10.5-4.2c-4,0-7.2,2.1-10.5,4.2c-3.5,2.3-7.1,4.7-11.9,4.7s-8.4-2.4-11.9-4.7c-3.3-2.2-6.5-4.2-10.5-4.2
		c-4,0-7.2,2.1-10.5,4.2c-3.5,2.3-7.1,4.7-11.9,4.7c-4.7,0-8.4-2.4-11.9-4.7c-3.3-2.2-6.5-4.2-10.5-4.2c-4,0-7.2,2.1-10.5,4.2
		c-3.5,2.3-7.1,4.7-11.9,4.7c-4.7,0-8.4-2.4-11.9-4.7c-3.3-2.2-6.5-4.2-10.5-4.2c-4,0-7.2,2.1-10.5,4.2c-3.5,2.3-7.1,4.7-11.9,4.7
		c-4.7,0-8.4-2.4-11.9-4.7c-0.5-0.3-1-0.7-1.5-1l1.3-3c0.5,0.3,1,0.7,1.6,1c3.3,2.2,6.5,4.2,10.5,4.2c4,0,7.2-2.1,10.5-4.2
		c3.5-2.3,7.1-4.7,11.9-4.7c4.7,0,8.4,2.4,11.9,4.7c3.3,2.2,6.5,4.2,10.5,4.2c4,0,7.2-2.1,10.5-4.2c3.5-2.3,7.1-4.7,11.9-4.7
		c4.7,0,8.4,2.4,11.9,4.7c3.3,2.2,6.5,4.2,10.5,4.2c4,0,7.2-2.1,10.5-4.2c3.5-2.3,7.1-4.7,11.9-4.7c4.7,0,8.4,2.4,11.9,4.7
		c3.3,2.2,6.5,4.2,10.5,4.2c4,0,7.2-2.1,10.5-4.2c3.5-2.3,7.1-4.7,11.9-4.7c4.7,0,8.4,2.4,11.9,4.7c3.3,2.2,6.5,4.2,10.5,4.2
		c4,0,7.2-2.1,10.5-4.2c0.5-0.3,1-0.7,1.6-1L790.1,634.3z"/>
	<path id="XMLID_1821_" class="st2" d="M776.4,649.9c-4.6-0.1-8.2-2.4-11.6-4.7c-3.3-2.2-6.5-4.2-10.5-4.2c-4,0-7.2,2.1-10.5,4.2
		c-3.5,2.3-7.1,4.7-11.9,4.7c-4.7,0-8.4-2.4-11.9-4.7c-3.3-2.2-6.5-4.2-10.5-4.2c-4,0-7.2,2.1-10.5,4.2c-3.5,2.3-7.1,4.7-11.9,4.7
		c-4.7,0-8.4-2.4-11.9-4.7c-3.3-2.2-6.5-4.2-10.5-4.2c-4,0-7.2,2.1-10.5,4.2c-3.5,2.3-7.1,4.7-11.9,4.7c-4.7,0-8.4-2.4-11.9-4.7
		c-3.3-2.2-6.5-4.2-10.5-4.2s-7.2,2.1-10.5,4.2c-3.5,2.3-7,4.6-11.6,4.7l0-3.4c3.9-0.1,7-2.1,10.3-4.2c3.5-2.3,7.1-4.7,11.9-4.7
		c4.7,0,8.4,2.4,11.9,4.7c3.3,2.2,6.5,4.2,10.5,4.2c4,0,7.2-2.1,10.5-4.2c3.5-2.3,7.1-4.7,11.9-4.7c4.7,0,8.4,2.4,11.9,4.7
		c3.3,2.2,6.5,4.2,10.5,4.2c4,0,7.2-2.1,10.5-4.2c3.5-2.3,7.1-4.7,11.9-4.7c4.7,0,8.4,2.4,11.9,4.7c3.3,2.2,6.5,4.2,10.5,4.2
		c4,0,7.2-2.1,10.5-4.2c3.5-2.3,7.1-4.7,11.9-4.7c4.7,0,8.4,2.4,11.9,4.7c3.3,2.2,6.4,4.2,10.3,4.2L776.4,649.9z"/>
</g>
<rect id="XMLID_3101_" x="256.1" y="171.7" class="st3" width="422.2" height="7.2"/>
<rect id="XMLID_1646_" x="691.9" y="211.6" class="st4" width="51.7" height="5.7"/>
<rect id="XMLID_3107_" x="-0.6" y="614.3" class="st5" width="91.4" height="97.9"/>
<polyline id="XMLID_3106_" class="st6" points="90.8,712.2 -0.6,712.2 -0.6,614.3 "/>
<rect id="XMLID_3105_" x="-0.6" y="565.4" class="st5" width="45.7" height="48.9"/>
<polyline id="XMLID_3104_" class="st7" points="45.1,614.3 -0.6,614.3 -0.6,565.4 "/>
<rect id="XMLID_3103_" x="90.8" y="614.3" class="st7" width="44.3" height="43.2"/>
<path id="XMLID_3102_" class="st5" d="M124.9,635.9c0,6.3-5.1,11.3-11.4,11.3c-6.3,0-11.4-5.1-11.4-11.3s5.1-11.3,11.4-11.3
	C119.9,624.6,124.9,629.7,124.9,635.9"/>
<path id="XMLID_1700_" class="st3" d="M743.6,111.4c-17.3,0-31.3-14-31.3-31.3s14-31.3,31.3-31.3"/>
<rect id="XMLID_1699_" x="98.4" y="682.7" class="st7" width="106.3" height="3"/>
<polyline id="XMLID_1688_" class="st8" points="133.3,595.4 122.1,595.4 122.1,584.3 "/>
<rect id="XMLID_15_" x="674.5" y="646.1" class="st3" width="68.4" height="66.3"/>
<rect id="XMLID_14_" x="674.5" y="579.8" class="st6" width="68.4" height="66.3"/>
<rect id="XMLID_13_" x="674.5" y="516.5" class="st3" width="68.4" height="66.3"/>
<rect id="XMLID_12_" x="674.5" y="646.1" class="st9" width="68.4" height="66.3"/>
<path id="XMLID_11_" class="st7" d="M674.5,646.1c18.9,0,34.2,14.8,34.2,33.1c0,18.3-15.3,33.1-34.2,33.1"/>
<rect id="XMLID_9_" x="667.3" y="525.1" class="st7" width="55.6" height="5.9"/>
<polygon id="XMLID_17_" class="st7" points="56.6,521 33,507.3 33,534.6 "/>
<path id="XMLID_16_" class="st8" d="M-0.4,15v62.8h56.5C56.3,39.6,35.5,14.2-0.4,15"/>
<rect id="XMLID_19_" x="37.2" y="0.9" class="st10" width="77.1" height="12.1"/>
<rect id="XMLID_18_" x="610.9" y="14" class="st11" width="116.3" height="17.7"/>
<g id="XMLID_21_">
	<defs>
		<rect id="XMLID_20_" x="-0.4" y="87.8" width="69" height="109.9"/>
	</defs>
	<clipPath id="XMLID_36_">
		<use xlink:href="#XMLID_20_"  style="overflow:visible;"/>
	</clipPath>
	<path id="XMLID_8_" class="st12" d="M57.4,114.7c-0.2,0.2-0.5,0.3-0.7,0.5c-1.6,1.1-3.3,2.2-5.5,2.2c-2.2,0-3.9-1.1-5.5-2.2
		c-1.5-1-3-2-4.9-2c-1.9,0-3.3,1-4.9,2c-1.6,1.1-3.3,2.2-5.5,2.2c-2.2,0-3.9-1.1-5.5-2.2c-1.5-1-3-2-4.9-2c-1.9,0-3.3,1-4.9,2
		c-1.6,1.1-3.3,2.2-5.5,2.2s-3.9-1.1-5.5-2.2c-1.5-1-3-2-4.9-2c-1.9,0-3.3,1-4.9,2c-1.6,1.1-3.3,2.2-5.5,2.2c-2.2,0-3.9-1.1-5.5-2.2
		c-1.5-1-3-2-4.9-2c-1.9,0-3.3,1-4.9,2c-1.6,1.1-3.3,2.2-5.5,2.2c-2.2,0-3.9-1.1-5.5-2.2c-0.2-0.2-0.5-0.3-0.7-0.5l0.6-1.4
		c0.2,0.2,0.5,0.3,0.7,0.5c1.5,1,3,2,4.9,2c1.9,0,3.3-1,4.9-2c1.6-1.1,3.3-2.2,5.5-2.2c2.2,0,3.9,1.1,5.5,2.2c1.5,1,3,2,4.9,2
		s3.3-1,4.9-2c1.6-1.1,3.3-2.2,5.5-2.2c2.2,0,3.9,1.1,5.5,2.2c1.5,1,3,2,4.9,2s3.3-1,4.9-2c1.6-1.1,3.3-2.2,5.5-2.2
		c2.2,0,3.9,1.1,5.5,2.2c1.5,1,3,2,4.9,2c1.9,0,3.3-1,4.9-2c1.6-1.1,3.3-2.2,5.5-2.2c2.2,0,3.9,1.1,5.5,2.2c1.5,1,3,2,4.9,2
		c1.9,0,3.3-1,4.9-2c0.2-0.2,0.5-0.3,0.7-0.5L57.4,114.7z"/>
	<path id="XMLID_7_" class="st12" d="M51.1,122c-2.1,0-3.8-1.1-5.4-2.2c-1.5-1-3-2-4.9-2c-1.9,0-3.3,1-4.9,2
		c-1.6,1.1-3.3,2.2-5.5,2.2s-3.9-1.1-5.5-2.2c-1.5-1-3-2-4.9-2c-1.9,0-3.3,1-4.9,2c-1.6,1.1-3.3,2.2-5.5,2.2c-2.2,0-3.9-1.1-5.5-2.2
		c-1.5-1-3-2-4.9-2c-1.9,0-3.3,1-4.9,2c-1.6,1.1-3.3,2.2-5.5,2.2c-2.2,0-3.9-1.1-5.5-2.2c-1.5-1-3-2-4.9-2c-1.9,0-3.3,1-4.9,2
		c-1.6,1-3.3,2.1-5.4,2.2l0-1.6c1.8,0,3.2-1,4.8-2c1.6-1.1,3.3-2.2,5.5-2.2c2.2,0,3.9,1.1,5.5,2.2c1.5,1,3,2,4.9,2
		c1.9,0,3.3-1,4.9-2c1.6-1.1,3.3-2.2,5.5-2.2c2.2,0,3.9,1.1,5.5,2.2c1.5,1,3,2,4.9,2c1.9,0,3.3-1,4.9-2c1.6-1.1,3.3-2.2,5.5-2.2
		c2.2,0,3.9,1.1,5.5,2.2c1.5,1,3,2,4.9,2c1.9,0,3.3-1,4.9-2c1.6-1.1,3.3-2.2,5.5-2.2c2.2,0,3.9,1.1,5.5,2.2c1.5,1,3,1.9,4.8,2
		L51.1,122z"/>
	<path id="XMLID_6_" class="st12" d="M57.4,124.2c-0.2,0.2-0.5,0.3-0.7,0.5c-1.6,1.1-3.3,2.2-5.5,2.2c-2.2,0-3.9-1.1-5.5-2.2
		c-1.5-1-3-2-4.9-2c-1.9,0-3.3,1-4.9,2c-1.6,1.1-3.3,2.2-5.5,2.2c-2.2,0-3.9-1.1-5.5-2.2c-1.5-1-3-2-4.9-2c-1.9,0-3.3,1-4.9,2
		c-1.6,1.1-3.3,2.2-5.5,2.2s-3.9-1.1-5.5-2.2c-1.5-1-3-2-4.9-2c-1.9,0-3.3,1-4.9,2c-1.6,1.1-3.3,2.2-5.5,2.2c-2.2,0-3.9-1.1-5.5-2.2
		c-1.5-1-3-2-4.9-2c-1.9,0-3.3,1-4.9,2c-1.6,1.1-3.3,2.2-5.5,2.2c-2.2,0-3.9-1.1-5.5-2.2c-0.2-0.2-0.5-0.3-0.7-0.5l0.6-1.4
		c0.2,0.2,0.5,0.3,0.7,0.5c1.5,1,3,2,4.9,2c1.9,0,3.3-1,4.9-2c1.6-1.1,3.3-2.2,5.5-2.2c2.2,0,3.9,1.1,5.5,2.2c1.5,1,3,2,4.9,2
		c1.9,0,3.3-1,4.9-2c1.6-1.1,3.3-2.2,5.5-2.2c2.2,0,3.9,1.1,5.5,2.2c1.5,1,3,2,4.9,2c1.9,0,3.3-1,4.9-2c1.6-1.1,3.3-2.2,5.5-2.2
		c2.2,0,3.9,1.1,5.5,2.2c1.5,1,3,2,4.9,2c1.9,0,3.3-1,4.9-2c1.6-1.1,3.3-2.2,5.5-2.2c2.2,0,3.9,1.1,5.5,2.2c1.5,1,3,2,4.9,2
		c1.9,0,3.3-1,4.9-2c0.2-0.2,0.5-0.3,0.7-0.5L57.4,124.2z"/>
	<path id="XMLID_5_" class="st12" d="M51.1,131.5c-2.1,0-3.8-1.1-5.4-2.2c-1.5-1-3-2-4.9-2c-1.9,0-3.3,1-4.9,2
		c-1.6,1.1-3.3,2.2-5.5,2.2s-3.9-1.1-5.5-2.2c-1.5-1-3-2-4.9-2c-1.9,0-3.3,1-4.9,2c-1.6,1.1-3.3,2.2-5.5,2.2c-2.2,0-3.9-1.1-5.5-2.2
		c-1.5-1-3-2-4.9-2c-1.9,0-3.3,1-4.9,2c-1.6,1.1-3.3,2.2-5.5,2.2c-2.2,0-3.9-1.1-5.5-2.2c-1.5-1-3-2-4.9-2c-1.9,0-3.3,1-4.9,2
		c-1.6,1-3.3,2.1-5.4,2.2l0-1.6c1.8,0,3.2-1,4.8-2c1.6-1.1,3.3-2.2,5.5-2.2c2.2,0,3.9,1.1,5.5,2.2c1.5,1,3,2,4.9,2
		c1.9,0,3.3-1,4.9-2c1.6-1.1,3.3-2.2,5.5-2.2c2.2,0,3.9,1.1,5.5,2.2c1.5,1,3,2,4.9,2c1.9,0,3.3-1,4.9-2c1.6-1.1,3.3-2.2,5.5-2.2
		c2.2,0,3.9,1.1,5.5,2.2c1.5,1,3,2,4.9,2c1.9,0,3.3-1,4.9-2c1.6-1.1,3.3-2.2,5.5-2.2c2.2,0,3.9,1.1,5.5,2.2c1.5,1,3,1.9,4.8,2
		L51.1,131.5z"/>
	<path id="XMLID_4_" class="st12" d="M57.4,134c-0.2,0.2-0.5,0.3-0.7,0.5c-1.6,1.1-3.3,2.2-5.5,2.2c-2.2,0-3.9-1.1-5.5-2.2
		c-1.5-1-3-2-4.9-2c-1.9,0-3.3,1-4.9,2c-1.6,1.1-3.3,2.2-5.5,2.2c-2.2,0-3.9-1.1-5.5-2.2c-1.5-1-3-2-4.9-2c-1.9,0-3.3,1-4.9,2
		c-1.6,1.1-3.3,2.2-5.5,2.2s-3.9-1.1-5.5-2.2c-1.5-1-3-2-4.9-2c-1.9,0-3.3,1-4.9,2c-1.6,1.1-3.3,2.2-5.5,2.2c-2.2,0-3.9-1.1-5.5-2.2
		c-1.5-1-3-2-4.9-2c-1.9,0-3.3,1-4.9,2c-1.6,1.1-3.3,2.2-5.5,2.2c-2.2,0-3.9-1.1-5.5-2.2c-0.2-0.2-0.5-0.3-0.7-0.5l0.6-1.4
		c0.2,0.2,0.5,0.3,0.7,0.5c1.5,1,3,2,4.9,2c1.9,0,3.3-1,4.9-2c1.6-1.1,3.3-2.2,5.5-2.2c2.2,0,3.9,1.1,5.5,2.2c1.5,1,3,2,4.9,2
		s3.3-1,4.9-2c1.6-1.1,3.3-2.2,5.5-2.2c2.2,0,3.9,1.1,5.5,2.2c1.5,1,3,2,4.9,2c1.9,0,3.3-1,4.9-2c1.6-1.1,3.3-2.2,5.5-2.2
		c2.2,0,3.9,1.1,5.5,2.2c1.5,1,3,2,4.9,2c1.9,0,3.3-1,4.9-2c1.6-1.1,3.3-2.2,5.5-2.2c2.2,0,3.9,1.1,5.5,2.2c1.5,1,3,2,4.9,2
		c1.9,0,3.3-1,4.9-2c0.2-0.2,0.5-0.3,0.7-0.5L57.4,134z"/>
	<path id="XMLID_3_" class="st12" d="M51.1,141.3c-2.1,0-3.8-1.1-5.4-2.2c-1.5-1-3-2-4.9-2c-1.9,0-3.3,1-4.9,2
		c-1.6,1.1-3.3,2.2-5.5,2.2s-3.9-1.1-5.5-2.2c-1.5-1-3-2-4.9-2c-1.9,0-3.3,1-4.9,2c-1.6,1.1-3.3,2.2-5.5,2.2c-2.2,0-3.9-1.1-5.5-2.2
		c-1.5-1-3-2-4.9-2c-1.9,0-3.3,1-4.9,2c-1.6,1.1-3.3,2.2-5.5,2.2c-2.2,0-3.9-1.1-5.5-2.2c-1.5-1-3-2-4.9-2c-1.9,0-3.3,1-4.9,2
		c-1.6,1-3.3,2.1-5.4,2.2l0-1.6c1.8,0,3.2-1,4.8-2c1.6-1.1,3.3-2.2,5.5-2.2c2.2,0,3.9,1.1,5.5,2.2c1.5,1,3,2,4.9,2
		c1.9,0,3.3-1,4.9-2c1.6-1.1,3.3-2.2,5.5-2.2c2.2,0,3.9,1.1,5.5,2.2c1.5,1,3,2,4.9,2c1.9,0,3.3-1,4.9-2c1.6-1.1,3.3-2.2,5.5-2.2
		c2.2,0,3.9,1.1,5.5,2.2c1.5,1,3,2,4.9,2c1.9,0,3.3-1,4.9-2c1.6-1.1,3.3-2.2,5.5-2.2c2.2,0,3.9,1.1,5.5,2.2c1.5,1,3,1.9,4.8,2
		L51.1,141.3z"/>
	<path id="XMLID_2_" class="st12" d="M57.4,143.5c-0.2,0.2-0.5,0.3-0.7,0.5c-1.6,1.1-3.3,2.2-5.5,2.2c-2.2,0-3.9-1.1-5.5-2.2
		c-1.5-1-3-2-4.9-2c-1.9,0-3.3,1-4.9,2c-1.6,1.1-3.3,2.2-5.5,2.2c-2.2,0-3.9-1.1-5.5-2.2c-1.5-1-3-2-4.9-2c-1.9,0-3.3,1-4.9,2
		c-1.6,1.1-3.3,2.2-5.5,2.2S5.9,145,4.2,144c-1.5-1-3-2-4.9-2c-1.9,0-3.3,1-4.9,2c-1.6,1.1-3.3,2.2-5.5,2.2c-2.2,0-3.9-1.1-5.5-2.2
		c-1.5-1-3-2-4.9-2c-1.9,0-3.3,1-4.9,2c-1.6,1.1-3.3,2.2-5.5,2.2c-2.2,0-3.9-1.1-5.5-2.2c-0.2-0.2-0.5-0.3-0.7-0.5l0.6-1.4
		c0.2,0.2,0.5,0.3,0.7,0.5c1.5,1,3,2,4.9,2c1.9,0,3.3-1,4.9-2c1.6-1.1,3.3-2.2,5.5-2.2c2.2,0,3.9,1.1,5.5,2.2c1.5,1,3,2,4.9,2
		c1.9,0,3.3-1,4.9-2c1.6-1.1,3.3-2.2,5.5-2.2c2.2,0,3.9,1.1,5.5,2.2c1.5,1,3,2,4.9,2c1.9,0,3.3-1,4.9-2c1.6-1.1,3.3-2.2,5.5-2.2
		c2.2,0,3.9,1.1,5.5,2.2c1.5,1,3,2,4.9,2c1.9,0,3.3-1,4.9-2c1.6-1.1,3.3-2.2,5.5-2.2c2.2,0,3.9,1.1,5.5,2.2c1.5,1,3,2,4.9,2
		c1.9,0,3.3-1,4.9-2c0.2-0.2,0.5-0.3,0.7-0.5L57.4,143.5z"/>
	<path id="XMLID_10_" class="st12" d="M51.1,150.8c-2.1,0-3.8-1.1-5.4-2.2c-1.5-1-3-2-4.9-2c-1.9,0-3.3,1-4.9,2
		c-1.6,1.1-3.3,2.2-5.5,2.2s-3.9-1.1-5.5-2.2c-1.5-1-3-2-4.9-2c-1.9,0-3.3,1-4.9,2c-1.6,1.1-3.3,2.2-5.5,2.2c-2.2,0-3.9-1.1-5.5-2.2
		c-1.5-1-3-2-4.9-2c-1.9,0-3.3,1-4.9,2c-1.6,1.1-3.3,2.2-5.5,2.2c-2.2,0-3.9-1.1-5.5-2.2c-1.5-1-3-2-4.9-2c-1.9,0-3.3,1-4.9,2
		c-1.6,1-3.3,2.1-5.4,2.2l0-1.6c1.8,0,3.2-1,4.8-2c1.6-1.1,3.3-2.2,5.5-2.2s3.9,1.1,5.5,2.2c1.5,1,3,2,4.9,2c1.9,0,3.3-1,4.9-2
		c1.6-1.1,3.3-2.2,5.5-2.2c2.2,0,3.9,1.1,5.5,2.2c1.5,1,3,2,4.9,2c1.9,0,3.3-1,4.9-2c1.6-1.1,3.3-2.2,5.5-2.2c2.2,0,3.9,1.1,5.5,2.2
		c1.5,1,3,2,4.9,2c1.9,0,3.3-1,4.9-2c1.6-1.1,3.3-2.2,5.5-2.2c2.2,0,3.9,1.1,5.5,2.2c1.5,1,3,1.9,4.8,2L51.1,150.8z"/>
</g>
<polygon id="XMLID_1839_" class="st5" points="711.9,185.5 735.4,199.2 735.5,172 "/>
</svg>
