<?xml version="1.0" encoding="utf-8"?>
<!-- Generator: Adobe Illustrator 19.0.0, SVG Export Plug-In . SVG Version: 6.00 Build 0)  -->
<svg version="1.1" id="Capa_1" xmlns="http://www.w3.org/2000/svg" xmlns:xlink="http://www.w3.org/1999/xlink" x="0px" y="0px"
	 viewBox="74 64.5 743.2 712.4" style="enable-background:new 74 64.5 743.2 712.4;" xml:space="preserve">
<style type="text/css">
	.st0{fill:#1D8FCA;}
	.st1{fill:#E3AF3D;}
	.st2{clip-path:url(#SVGID_2_);fill:#E6B641;}
	.st3{clip-path:url(#SVGID_4_);fill:#E6B641;}
	.st4{clip-path:url(#SVGID_6_);fill:#E6B641;}
	.st5{clip-path:url(#SVGID_8_);fill:#E6B641;}
	.st6{clip-path:url(#SVGID_10_);fill:#E6B641;}
	.st7{clip-path:url(#SVGID_12_);fill:#E6B641;}
	.st8{clip-path:url(#SVGID_14_);fill:#E6B641;}
	.st9{clip-path:url(#SVGID_16_);fill:#E6B641;}
	.st10{fill:#3861A4;}
	.st11{fill:#CE847F;}
	.st12{fill:#C13A57;}
	.st13{fill:#479D6D;}
	.st14{fill:#E6B641;}
	.st15{fill:#BE3480;}
	.st16{fill:#1D8EC9;}
	.st17{fill:#CA7370;}
	.st18{fill:#DCA831;}
	.st19{clip-path:url(#SVGID_18_);fill:#FFFFFF;}
	.st20{clip-path:url(#SVGID_20_);fill:#FFFFFF;}
	.st21{clip-path:url(#SVGID_22_);fill:#FFFFFF;}
	.st22{clip-path:url(#SVGID_24_);fill:#FFFFFF;}
	.st23{clip-path:url(#SVGID_26_);fill:#FFFFFF;}
	.st24{clip-path:url(#SVGID_28_);fill:#FFFFFF;}
	.st25{clip-path:url(#SVGID_30_);fill:#FFFFFF;}
	.st26{clip-path:url(#SVGID_32_);fill:#FFFFFF;}
	.st27{fill:#FFFFFF;}
</style>
<rect id="XMLID_2575_" x="73.6" y="140" class="st0" width="743.6" height="573"/>
<path id="XMLID_1830_" class="st1" d="M74.2,196c22.4,0,40.5,18.1,40.5,40.4s-18.1,40.4-40.5,40.4"/>
<g id="XMLID_2932_">
	<g>
		<defs>
			<rect id="SVGID_1_" x="638.3" y="601.2" width="122.9" height="161.2"/>
		</defs>
		<clipPath id="SVGID_2_">
			<use xlink:href="#SVGID_1_"  style="overflow:visible;"/>
		</clipPath>
		<path id="XMLID_1828_" class="st2" d="M864.1,636.4c-0.5,0.3-1,0.7-1.5,1c-3.5,2.3-7.1,4.7-11.9,4.7c-4.7,0-8.4-2.4-11.9-4.7
			c-3.3-2.2-6.5-4.2-10.5-4.2s-7.2,2.1-10.5,4.2c-3.5,2.3-7.1,4.7-11.9,4.7s-8.4-2.4-11.9-4.7c-3.3-2.2-6.5-4.2-10.5-4.2
			s-7.2,2.1-10.5,4.2c-3.5,2.3-7.1,4.7-11.9,4.7c-4.7,0-8.4-2.4-11.9-4.7c-3.3-2.2-6.5-4.2-10.5-4.2s-7.2,2.1-10.5,4.2
			c-3.5,2.3-7.1,4.7-11.9,4.7c-4.7,0-8.4-2.4-11.9-4.7c-3.3-2.2-6.5-4.2-10.5-4.2s-7.2,2.1-10.5,4.2c-3.5,2.3-7.1,4.7-11.9,4.7
			c-4.7,0-8.4-2.4-11.9-4.7c-0.5-0.3-1-0.7-1.5-1l1.3-3c0.5,0.3,1,0.7,1.6,1c3.3,2.2,6.5,4.2,10.5,4.2s7.2-2.1,10.5-4.2
			c3.5-2.3,7.1-4.7,11.9-4.7c4.7,0,8.4,2.4,11.9,4.7c3.3,2.2,6.5,4.2,10.5,4.2s7.2-2.1,10.5-4.2c3.5-2.3,7.1-4.7,11.9-4.7
			c4.7,0,8.4,2.4,11.9,4.7c3.3,2.2,6.5,4.2,10.5,4.2s7.2-2.1,10.5-4.2c3.5-2.3,7.1-4.7,11.9-4.7c4.7,0,8.4,2.4,11.9,4.7
			c3.3,2.2,6.5,4.2,10.5,4.2s7.2-2.1,10.5-4.2c3.5-2.3,7.1-4.7,11.9-4.7c4.7,0,8.4,2.4,11.9,4.7c3.3,2.2,6.5,4.2,10.5,4.2
			s7.2-2.1,10.5-4.2c0.5-0.3,1-0.7,1.6-1L864.1,636.4z"/>
	</g>
	<g>
		<defs>
			<rect id="SVGID_3_" x="638.3" y="601.2" width="122.9" height="161.2"/>
		</defs>
		<clipPath id="SVGID_4_">
			<use xlink:href="#SVGID_3_"  style="overflow:visible;"/>
		</clipPath>
		<path id="XMLID_1827_" class="st3" d="M850.4,652.1c-4.6-0.1-8.2-2.4-11.6-4.7c-3.3-2.2-6.5-4.2-10.5-4.2s-7.2,2.1-10.5,4.2
			c-3.5,2.3-7.1,4.7-11.9,4.7c-4.7,0-8.4-2.4-11.9-4.7c-3.3-2.2-6.5-4.2-10.5-4.2s-7.2,2.1-10.5,4.2c-3.5,2.3-7.1,4.7-11.9,4.7
			c-4.7,0-8.4-2.4-11.9-4.7c-3.3-2.2-6.5-4.2-10.5-4.2s-7.2,2.1-10.5,4.2c-3.5,2.3-7.1,4.7-11.9,4.7c-4.7,0-8.4-2.4-11.9-4.7
			c-3.3-2.2-6.5-4.2-10.5-4.2s-7.2,2.1-10.5,4.2c-3.5,2.3-7,4.6-11.6,4.7v-3.4c3.9-0.1,7-2.1,10.3-4.2c3.5-2.3,7.1-4.7,11.9-4.7
			c4.7,0,8.4,2.4,11.9,4.7c3.3,2.2,6.5,4.2,10.5,4.2s7.2-2.1,10.5-4.2c3.5-2.3,7.1-4.7,11.9-4.7c4.7,0,8.4,2.4,11.9,4.7
			c3.3,2.2,6.5,4.2,10.5,4.2s7.2-2.1,10.5-4.2c3.5-2.3,7.1-4.7,11.9-4.7c4.7,0,8.4,2.4,11.9,4.7c3.3,2.2,6.5,4.2,10.5,4.2
			s7.2-2.1,10.5-4.2c3.5-2.3,7.1-4.7,11.9-4.7c4.7,0,8.4,2.4,11.9,4.7c3.3,2.2,6.4,4.2,10.3,4.2L850.4,652.1z"/>
	</g>
	<g>
		<defs>
			<rect id="SVGID_5_" x="638.3" y="601.2" width="122.9" height="161.2"/>
		</defs>
		<clipPath id="SVGID_6_">
			<use xlink:href="#SVGID_5_"  style="overflow:visible;"/>
		</clipPath>
		<path id="XMLID_1826_" class="st4" d="M864.1,657c-0.5,0.3-1,0.7-1.5,1c-3.5,2.3-7.1,4.7-11.9,4.7c-4.7,0-8.4-2.4-11.9-4.7
			c-3.3-2.2-6.5-4.2-10.5-4.2s-7.2,2.1-10.5,4.2c-3.5,2.3-7.1,4.7-11.9,4.7s-8.4-2.4-11.9-4.7c-3.3-2.2-6.5-4.2-10.5-4.2
			s-7.2,2.1-10.5,4.2c-3.5,2.3-7.1,4.7-11.9,4.7c-4.7,0-8.4-2.4-11.9-4.7c-3.3-2.2-6.5-4.2-10.5-4.2s-7.2,2.1-10.5,4.2
			c-3.5,2.3-7.1,4.7-11.9,4.7c-4.7,0-8.4-2.4-11.9-4.7c-3.3-2.2-6.5-4.2-10.5-4.2s-7.2,2.1-10.5,4.2c-3.5,2.3-7.1,4.7-11.9,4.7
			c-4.7,0-8.4-2.4-11.9-4.7c-0.5-0.3-1-0.7-1.5-1l1.3-3c0.5,0.3,1,0.7,1.6,1c3.3,2.2,6.5,4.2,10.5,4.2s7.2-2.1,10.5-4.2
			c3.5-2.3,7.1-4.7,11.9-4.7c4.7,0,8.4,2.4,11.9,4.7c3.3,2.2,6.5,4.2,10.5,4.2s7.2-2.1,10.5-4.2c3.5-2.3,7.1-4.7,11.9-4.7
			c4.7,0,8.4,2.4,11.9,4.7c3.3,2.2,6.5,4.2,10.5,4.2s7.2-2.1,10.5-4.2c3.5-2.3,7.1-4.7,11.9-4.7c4.7,0,8.4,2.4,11.9,4.7
			c3.3,2.2,6.5,4.2,10.5,4.2s7.2-2.1,10.5-4.2c3.5-2.3,7.1-4.7,11.9-4.7c4.7,0,8.4,2.4,11.9,4.7c3.3,2.2,6.5,4.2,10.5,4.2
			s7.2-2.1,10.5-4.2c0.5-0.3,1-0.7,1.6-1L864.1,657z"/>
	</g>
	<g>
		<defs>
			<rect id="SVGID_7_" x="638.3" y="601.2" width="122.9" height="161.2"/>
		</defs>
		<clipPath id="SVGID_8_">
			<use xlink:href="#SVGID_7_"  style="overflow:visible;"/>
		</clipPath>
		<path id="XMLID_1825_" class="st5" d="M850.4,672.7c-4.6-0.1-8.2-2.4-11.6-4.7c-3.3-2.2-6.5-4.2-10.5-4.2s-7.2,2.1-10.5,4.2
			c-3.5,2.3-7.1,4.7-11.9,4.7c-4.7,0-8.4-2.4-11.9-4.7c-3.3-2.2-6.5-4.2-10.5-4.2s-7.2,2.1-10.5,4.2c-3.5,2.3-7.1,4.7-11.9,4.7
			c-4.7,0-8.4-2.4-11.9-4.7c-3.3-2.2-6.5-4.2-10.5-4.2s-7.2,2.1-10.5,4.2c-3.5,2.3-7.1,4.7-11.9,4.7c-4.7,0-8.4-2.4-11.9-4.7
			c-3.3-2.2-6.5-4.2-10.5-4.2s-7.2,2.1-10.5,4.2c-3.5,2.3-7,4.6-11.6,4.7v-3.4c3.9-0.1,7-2.1,10.3-4.2c3.5-2.3,7.1-4.7,11.9-4.7
			c4.7,0,8.4,2.4,11.9,4.7c3.3,2.2,6.5,4.2,10.5,4.2s7.2-2.1,10.5-4.2c3.5-2.3,7.1-4.7,11.9-4.7c4.7,0,8.4,2.4,11.9,4.7
			c3.3,2.2,6.5,4.2,10.5,4.2s7.2-2.1,10.5-4.2c3.5-2.3,7.1-4.7,11.9-4.7c4.7,0,8.4,2.4,11.9,4.7c3.3,2.2,6.5,4.2,10.5,4.2
			s7.2-2.1,10.5-4.2c3.5-2.3,7.1-4.7,11.9-4.7c4.7,0,8.4,2.4,11.9,4.7c3.3,2.2,6.4,4.2,10.3,4.2L850.4,672.7z"/>
	</g>
	<g>
		<defs>
			<rect id="SVGID_9_" x="638.3" y="601.2" width="122.9" height="161.2"/>
		</defs>
		<clipPath id="SVGID_10_">
			<use xlink:href="#SVGID_9_"  style="overflow:visible;"/>
		</clipPath>
		<path id="XMLID_1824_" class="st6" d="M864.1,678.2c-0.5,0.3-1,0.7-1.5,1c-3.5,2.3-7.1,4.7-11.9,4.7c-4.7,0-8.4-2.4-11.9-4.7
			c-3.3-2.2-6.5-4.2-10.5-4.2s-7.2,2.1-10.5,4.2c-3.5,2.3-7.1,4.7-11.9,4.7s-8.4-2.4-11.9-4.7c-3.3-2.2-6.5-4.2-10.5-4.2
			s-7.2,2.1-10.5,4.2c-3.5,2.3-7.1,4.7-11.9,4.7c-4.7,0-8.4-2.4-11.9-4.7c-3.3-2.2-6.5-4.2-10.5-4.2s-7.2,2.1-10.5,4.2
			c-3.5,2.3-7.1,4.7-11.9,4.7c-4.7,0-8.4-2.4-11.9-4.7c-3.3-2.2-6.5-4.2-10.5-4.2s-7.2,2.1-10.5,4.2c-3.5,2.3-7.1,4.7-11.9,4.7
			c-4.7,0-8.4-2.4-11.9-4.7c-0.5-0.3-1-0.7-1.5-1l1.3-3c0.5,0.3,1,0.7,1.6,1c3.3,2.2,6.5,4.2,10.5,4.2s7.2-2.1,10.5-4.2
			c3.5-2.3,7.1-4.7,11.9-4.7c4.7,0,8.4,2.4,11.9,4.7c3.3,2.2,6.5,4.2,10.5,4.2s7.2-2.1,10.5-4.2c3.5-2.3,7.1-4.7,11.9-4.7
			c4.7,0,8.4,2.4,11.9,4.7c3.3,2.2,6.5,4.2,10.5,4.2s7.2-2.1,10.5-4.2c3.5-2.3,7.1-4.7,11.9-4.7c4.7,0,8.4,2.4,11.9,4.7
			c3.3,2.2,6.5,4.2,10.5,4.2s7.2-2.1,10.5-4.2c3.5-2.3,7.1-4.7,11.9-4.7c4.7,0,8.4,2.4,11.9,4.7c3.3,2.2,6.5,4.2,10.5,4.2
			s7.2-2.1,10.5-4.2c0.5-0.3,1-0.7,1.6-1L864.1,678.2z"/>
	</g>
	<g>
		<defs>
			<rect id="SVGID_11_" x="638.3" y="601.2" width="122.9" height="161.2"/>
		</defs>
		<clipPath id="SVGID_12_">
			<use xlink:href="#SVGID_11_"  style="overflow:visible;"/>
		</clipPath>
		<path id="XMLID_1823_" class="st7" d="M850.4,693.8c-4.6-0.1-8.2-2.4-11.6-4.7c-3.3-2.2-6.5-4.2-10.5-4.2s-7.2,2.1-10.5,4.2
			c-3.5,2.3-7.1,4.7-11.9,4.7c-4.7,0-8.4-2.4-11.9-4.7c-3.3-2.2-6.5-4.2-10.5-4.2s-7.2,2.1-10.5,4.2c-3.5,2.3-7.1,4.7-11.9,4.7
			c-4.7,0-8.4-2.4-11.9-4.7c-3.3-2.2-6.5-4.2-10.5-4.2s-7.2,2.1-10.5,4.2c-3.5,2.3-7.1,4.7-11.9,4.7c-4.7,0-8.4-2.4-11.9-4.7
			c-3.3-2.2-6.5-4.2-10.5-4.2s-7.2,2.1-10.5,4.2c-3.5,2.3-7,4.6-11.6,4.7v-3.4c3.9-0.1,7-2.1,10.3-4.2c3.5-2.3,7.1-4.7,11.9-4.7
			c4.7,0,8.4,2.4,11.9,4.7c3.3,2.2,6.5,4.2,10.5,4.2s7.2-2.1,10.5-4.2c3.5-2.3,7.1-4.7,11.9-4.7c4.7,0,8.4,2.4,11.9,4.7
			c3.3,2.2,6.5,4.2,10.5,4.2s7.2-2.1,10.5-4.2c3.5-2.3,7.1-4.7,11.9-4.7c4.7,0,8.4,2.4,11.9,4.7c3.3,2.2,6.5,4.2,10.5,4.2
			s7.2-2.1,10.5-4.2c3.5-2.3,7.1-4.7,11.9-4.7c4.7,0,8.4,2.4,11.9,4.7c3.3,2.2,6.4,4.2,10.3,4.2L850.4,693.8z"/>
	</g>
	<g>
		<defs>
			<rect id="SVGID_13_" x="638.3" y="601.2" width="122.9" height="161.2"/>
		</defs>
		<clipPath id="SVGID_14_">
			<use xlink:href="#SVGID_13_"  style="overflow:visible;"/>
		</clipPath>
		<path id="XMLID_1822_" class="st8" d="M864.1,698.8c-0.5,0.3-1,0.7-1.5,1c-3.5,2.3-7.1,4.7-11.9,4.7c-4.7,0-8.4-2.4-11.9-4.7
			c-3.3-2.2-6.5-4.2-10.5-4.2s-7.2,2.1-10.5,4.2c-3.5,2.3-7.1,4.7-11.9,4.7s-8.4-2.4-11.9-4.7c-3.3-2.2-6.5-4.2-10.5-4.2
			s-7.2,2.1-10.5,4.2c-3.5,2.3-7.1,4.7-11.9,4.7c-4.7,0-8.4-2.4-11.9-4.7c-3.3-2.2-6.5-4.2-10.5-4.2s-7.2,2.1-10.5,4.2
			c-3.5,2.3-7.1,4.7-11.9,4.7c-4.7,0-8.4-2.4-11.9-4.7c-3.3-2.2-6.5-4.2-10.5-4.2s-7.2,2.1-10.5,4.2c-3.5,2.3-7.1,4.7-11.9,4.7
			c-4.7,0-8.4-2.4-11.9-4.7c-0.5-0.3-1-0.7-1.5-1l1.3-3c0.5,0.3,1,0.7,1.6,1c3.3,2.2,6.5,4.2,10.5,4.2s7.2-2.1,10.5-4.2
			c3.5-2.3,7.1-4.7,11.9-4.7c4.7,0,8.4,2.4,11.9,4.7c3.3,2.2,6.5,4.2,10.5,4.2s7.2-2.1,10.5-4.2c3.5-2.3,7.1-4.7,11.9-4.7
			c4.7,0,8.4,2.4,11.9,4.7c3.3,2.2,6.5,4.2,10.5,4.2s7.2-2.1,10.5-4.2c3.5-2.3,7.1-4.7,11.9-4.7c4.7,0,8.4,2.4,11.9,4.7
			c3.3,2.2,6.5,4.2,10.5,4.2s7.2-2.1,10.5-4.2c3.5-2.3,7.1-4.7,11.9-4.7c4.7,0,8.4,2.4,11.9,4.7c3.3,2.2,6.5,4.2,10.5,4.2
			s7.2-2.1,10.5-4.2c0.5-0.3,1-0.7,1.6-1L864.1,698.8z"/>
	</g>
	<g>
		<defs>
			<rect id="SVGID_15_" x="638.3" y="601.2" width="122.9" height="161.2"/>
		</defs>
		<clipPath id="SVGID_16_">
			<use xlink:href="#SVGID_15_"  style="overflow:visible;"/>
		</clipPath>
		<path id="XMLID_1821_" class="st9" d="M850.4,714.4c-4.6-0.1-8.2-2.4-11.6-4.7c-3.3-2.2-6.5-4.2-10.5-4.2s-7.2,2.1-10.5,4.2
			c-3.5,2.3-7.1,4.7-11.9,4.7c-4.7,0-8.4-2.4-11.9-4.7c-3.3-2.2-6.5-4.2-10.5-4.2s-7.2,2.1-10.5,4.2c-3.5,2.3-7.1,4.7-11.9,4.7
			c-4.7,0-8.4-2.4-11.9-4.7c-3.3-2.2-6.5-4.2-10.5-4.2s-7.2,2.1-10.5,4.2c-3.5,2.3-7.1,4.7-11.9,4.7c-4.7,0-8.4-2.4-11.9-4.7
			c-3.3-2.2-6.5-4.2-10.5-4.2s-7.2,2.1-10.5,4.2c-3.5,2.3-7,4.6-11.6,4.7V711c3.9-0.1,7-2.1,10.3-4.2c3.5-2.3,7.1-4.7,11.9-4.7
			c4.7,0,8.4,2.4,11.9,4.7c3.3,2.2,6.5,4.2,10.5,4.2s7.2-2.1,10.5-4.2c3.5-2.3,7.1-4.7,11.9-4.7c4.7,0,8.4,2.4,11.9,4.7
			c3.3,2.2,6.5,4.2,10.5,4.2s7.2-2.1,10.5-4.2c3.5-2.3,7.1-4.7,11.9-4.7c4.7,0,8.4,2.4,11.9,4.7c3.3,2.2,6.5,4.2,10.5,4.2
			s7.2-2.1,10.5-4.2c3.5-2.3,7.1-4.7,11.9-4.7c4.7,0,8.4,2.4,11.9,4.7c3.3,2.2,6.4,4.2,10.3,4.2L850.4,714.4z"/>
	</g>
</g>
<rect id="XMLID_3101_" x="330.1" y="236.2" class="st10" width="422.2" height="7.2"/>
<rect id="XMLID_1646_" x="765.9" y="276.1" class="st11" width="51.7" height="5.7"/>
<rect id="XMLID_3107_" x="73.4" y="678.8" class="st12" width="91.4" height="97.9"/>
<polyline id="XMLID_3106_" class="st13" points="164.8,776.7 73.4,776.7 73.4,678.8 "/>
<rect id="XMLID_3105_" x="73.4" y="629.9" class="st12" width="45.7" height="48.9"/>
<polyline id="XMLID_3104_" class="st14" points="119.1,678.8 73.4,678.8 73.4,629.9 "/>
<rect id="XMLID_3103_" x="164.8" y="678.8" class="st14" width="44.3" height="43.2"/>
<path id="XMLID_3102_" class="st12" d="M198.9,700.4c0,6.3-5.1,11.3-11.4,11.3s-11.4-5.1-11.4-11.3s5.1-11.3,11.4-11.3
	C193.9,689.1,198.9,694.2,198.9,700.4"/>
<path id="XMLID_1700_" class="st10" d="M817.6,175.9c-17.3,0-31.3-14-31.3-31.3s14-31.3,31.3-31.3"/>
<rect id="XMLID_1699_" x="172.4" y="747.2" class="st14" width="106.3" height="3"/>
<polyline id="XMLID_1688_" class="st15" points="207.3,659.9 196.1,659.9 196.1,648.8 "/>
<rect id="XMLID_15_" x="748.5" y="710.6" class="st10" width="68.4" height="66.3"/>
<rect id="XMLID_14_" x="748.5" y="644.3" class="st13" width="68.4" height="66.3"/>
<rect id="XMLID_13_" x="748.5" y="581" class="st10" width="68.4" height="66.3"/>
<rect id="XMLID_12_" x="748.5" y="710.6" class="st16" width="68.4" height="66.3"/>
<path id="XMLID_11_" class="st14" d="M748.5,710.6c18.9,0,34.2,14.8,34.2,33.1s-15.3,33.1-34.2,33.1"/>
<rect id="XMLID_9_" x="741.3" y="589.6" class="st14" width="55.6" height="5.9"/>
<polygon id="XMLID_17_" class="st14" points="130.6,585.5 107,571.8 107,599.1 "/>
<path id="XMLID_16_" class="st15" d="M73.6,79.5v62.8h56.5C130.3,104.1,109.5,78.7,73.6,79.5"/>
<rect id="XMLID_19_" x="111.2" y="65.4" class="st17" width="77.1" height="12.1"/>
<rect id="XMLID_18_" x="684.9" y="78.5" class="st18" width="116.3" height="17.7"/>
<g id="XMLID_21_">
	<g>
		<defs>
			<rect id="SVGID_17_" x="73.6" y="152.3" width="69" height="109.9"/>
		</defs>
		<clipPath id="SVGID_18_">
			<use xlink:href="#SVGID_17_"  style="overflow:visible;"/>
		</clipPath>
		<path id="XMLID_8_" class="st19" d="M131.4,179.2c-0.2,0.2-0.5,0.3-0.7,0.5c-1.6,1.1-3.3,2.2-5.5,2.2c-2.2,0-3.9-1.1-5.5-2.2
			c-1.5-1-3-2-4.9-2c-1.9,0-3.3,1-4.9,2c-1.6,1.1-3.3,2.2-5.5,2.2c-2.2,0-3.9-1.1-5.5-2.2c-1.5-1-3-2-4.9-2c-1.9,0-3.3,1-4.9,2
			c-1.6,1.1-3.3,2.2-5.5,2.2s-3.9-1.1-5.5-2.2c-1.5-1-3-2-4.9-2s-3.3,1-4.9,2c-1.6,1.1-3.3,2.2-5.5,2.2s-3.9-1.1-5.5-2.2
			c-1.5-1-3-2-4.9-2c-1.9,0-3.3,1-4.9,2c-1.6,1.1-3.3,2.2-5.5,2.2s-3.9-1.1-5.5-2.2c-0.2-0.2-0.5-0.3-0.7-0.5l0.6-1.4
			c0.2,0.2,0.5,0.3,0.7,0.5c1.5,1,3,2,4.9,2s3.3-1,4.9-2c1.6-1.1,3.3-2.2,5.5-2.2c2.2,0,3.9,1.1,5.5,2.2c1.5,1,3,2,4.9,2
			s3.3-1,4.9-2c1.6-1.1,3.3-2.2,5.5-2.2c2.2,0,3.9,1.1,5.5,2.2c1.5,1,3,2,4.9,2s3.3-1,4.9-2c1.6-1.1,3.3-2.2,5.5-2.2
			s3.9,1.1,5.5,2.2c1.5,1,3,2,4.9,2s3.3-1,4.9-2c1.6-1.1,3.3-2.2,5.5-2.2c2.2,0,3.9,1.1,5.5,2.2c1.5,1,3,2,4.9,2c1.9,0,3.3-1,4.9-2
			c0.2-0.2,0.5-0.3,0.7-0.5L131.4,179.2z"/>
	</g>
	<g>
		<defs>
			<rect id="SVGID_19_" x="73.6" y="152.3" width="69" height="109.9"/>
		</defs>
		<clipPath id="SVGID_20_">
			<use xlink:href="#SVGID_19_"  style="overflow:visible;"/>
		</clipPath>
		<path id="XMLID_7_" class="st20" d="M125.1,186.5c-2.1,0-3.8-1.1-5.4-2.2c-1.5-1-3-2-4.9-2s-3.3,1-4.9,2c-1.6,1.1-3.3,2.2-5.5,2.2
			s-3.9-1.1-5.5-2.2c-1.5-1-3-2-4.9-2s-3.3,1-4.9,2c-1.6,1.1-3.3,2.2-5.5,2.2c-2.2,0-3.9-1.1-5.5-2.2c-1.5-1-3-2-4.9-2
			c-1.9,0-3.3,1-4.9,2c-1.6,1.1-3.3,2.2-5.5,2.2c-2.2,0-3.9-1.1-5.5-2.2c-1.5-1-3-2-4.9-2c-1.9,0-3.3,1-4.9,2s-3.3,2.1-5.4,2.2v-1.6
			c1.8,0,3.2-1,4.8-2c1.6-1.1,3.3-2.2,5.5-2.2s3.9,1.1,5.5,2.2c1.5,1,3,2,4.9,2c1.9,0,3.3-1,4.9-2c1.6-1.1,3.3-2.2,5.5-2.2
			s3.9,1.1,5.5,2.2c1.5,1,3,2,4.9,2s3.3-1,4.9-2c1.6-1.1,3.3-2.2,5.5-2.2c2.2,0,3.9,1.1,5.5,2.2c1.5,1,3,2,4.9,2c1.9,0,3.3-1,4.9-2
			c1.6-1.1,3.3-2.2,5.5-2.2c2.2,0,3.9,1.1,5.5,2.2c1.5,1,3,1.9,4.8,2V186.5z"/>
	</g>
	<g>
		<defs>
			<rect id="SVGID_21_" x="73.6" y="152.3" width="69" height="109.9"/>
		</defs>
		<clipPath id="SVGID_22_">
			<use xlink:href="#SVGID_21_"  style="overflow:visible;"/>
		</clipPath>
		<path id="XMLID_6_" class="st21" d="M131.4,188.7c-0.2,0.2-0.5,0.3-0.7,0.5c-1.6,1.1-3.3,2.2-5.5,2.2c-2.2,0-3.9-1.1-5.5-2.2
			c-1.5-1-3-2-4.9-2c-1.9,0-3.3,1-4.9,2c-1.6,1.1-3.3,2.2-5.5,2.2c-2.2,0-3.9-1.1-5.5-2.2c-1.5-1-3-2-4.9-2c-1.9,0-3.3,1-4.9,2
			c-1.6,1.1-3.3,2.2-5.5,2.2s-3.9-1.1-5.5-2.2c-1.5-1-3-2-4.9-2s-3.3,1-4.9,2c-1.6,1.1-3.3,2.2-5.5,2.2s-3.9-1.1-5.5-2.2
			c-1.5-1-3-2-4.9-2c-1.9,0-3.3,1-4.9,2c-1.6,1.1-3.3,2.2-5.5,2.2s-3.9-1.1-5.5-2.2c-0.2-0.2-0.5-0.3-0.7-0.5l0.6-1.4
			c0.2,0.2,0.5,0.3,0.7,0.5c1.5,1,3,2,4.9,2s3.3-1,4.9-2c1.6-1.1,3.3-2.2,5.5-2.2c2.2,0,3.9,1.1,5.5,2.2c1.5,1,3,2,4.9,2
			s3.3-1,4.9-2c1.6-1.1,3.3-2.2,5.5-2.2c2.2,0,3.9,1.1,5.5,2.2c1.5,1,3,2,4.9,2s3.3-1,4.9-2c1.6-1.1,3.3-2.2,5.5-2.2
			s3.9,1.1,5.5,2.2c1.5,1,3,2,4.9,2s3.3-1,4.9-2c1.6-1.1,3.3-2.2,5.5-2.2c2.2,0,3.9,1.1,5.5,2.2c1.5,1,3,2,4.9,2c1.9,0,3.3-1,4.9-2
			c0.2-0.2,0.5-0.3,0.7-0.5L131.4,188.7z"/>
	</g>
	<g>
		<defs>
			<rect id="SVGID_23_" x="73.6" y="152.3" width="69" height="109.9"/>
		</defs>
		<clipPath id="SVGID_24_">
			<use xlink:href="#SVGID_23_"  style="overflow:visible;"/>
		</clipPath>
		<path id="XMLID_5_" class="st22" d="M125.1,196c-2.1,0-3.8-1.1-5.4-2.2c-1.5-1-3-2-4.9-2s-3.3,1-4.9,2c-1.6,1.1-3.3,2.2-5.5,2.2
			s-3.9-1.1-5.5-2.2c-1.5-1-3-2-4.9-2s-3.3,1-4.9,2c-1.6,1.1-3.3,2.2-5.5,2.2c-2.2,0-3.9-1.1-5.5-2.2c-1.5-1-3-2-4.9-2
			c-1.9,0-3.3,1-4.9,2c-1.6,1.1-3.3,2.2-5.5,2.2c-2.2,0-3.9-1.1-5.5-2.2c-1.5-1-3-2-4.9-2c-1.9,0-3.3,1-4.9,2s-3.3,2.1-5.4,2.2v-1.6
			c1.8,0,3.2-1,4.8-2c1.6-1.1,3.3-2.2,5.5-2.2s3.9,1.1,5.5,2.2c1.5,1,3,2,4.9,2c1.9,0,3.3-1,4.9-2c1.6-1.1,3.3-2.2,5.5-2.2
			s3.9,1.1,5.5,2.2c1.5,1,3,2,4.9,2s3.3-1,4.9-2c1.6-1.1,3.3-2.2,5.5-2.2c2.2,0,3.9,1.1,5.5,2.2c1.5,1,3,2,4.9,2c1.9,0,3.3-1,4.9-2
			c1.6-1.1,3.3-2.2,5.5-2.2c2.2,0,3.9,1.1,5.5,2.2c1.5,1,3,1.9,4.8,2V196z"/>
	</g>
	<g>
		<defs>
			<rect id="SVGID_25_" x="73.6" y="152.3" width="69" height="109.9"/>
		</defs>
		<clipPath id="SVGID_26_">
			<use xlink:href="#SVGID_25_"  style="overflow:visible;"/>
		</clipPath>
		<path id="XMLID_4_" class="st23" d="M131.4,198.5c-0.2,0.2-0.5,0.3-0.7,0.5c-1.6,1.1-3.3,2.2-5.5,2.2c-2.2,0-3.9-1.1-5.5-2.2
			c-1.5-1-3-2-4.9-2c-1.9,0-3.3,1-4.9,2c-1.6,1.1-3.3,2.2-5.5,2.2c-2.2,0-3.9-1.1-5.5-2.2c-1.5-1-3-2-4.9-2c-1.9,0-3.3,1-4.9,2
			c-1.6,1.1-3.3,2.2-5.5,2.2s-3.9-1.1-5.5-2.2c-1.5-1-3-2-4.9-2s-3.3,1-4.9,2c-1.6,1.1-3.3,2.2-5.5,2.2s-3.9-1.1-5.5-2.2
			c-1.5-1-3-2-4.9-2c-1.9,0-3.3,1-4.9,2c-1.6,1.1-3.3,2.2-5.5,2.2s-3.9-1.1-5.5-2.2c-0.2-0.2-0.5-0.3-0.7-0.5l0.6-1.4
			c0.2,0.2,0.5,0.3,0.7,0.5c1.5,1,3,2,4.9,2s3.3-1,4.9-2c1.6-1.1,3.3-2.2,5.5-2.2c2.2,0,3.9,1.1,5.5,2.2c1.5,1,3,2,4.9,2
			s3.3-1,4.9-2c1.6-1.1,3.3-2.2,5.5-2.2c2.2,0,3.9,1.1,5.5,2.2c1.5,1,3,2,4.9,2s3.3-1,4.9-2c1.6-1.1,3.3-2.2,5.5-2.2
			s3.9,1.1,5.5,2.2c1.5,1,3,2,4.9,2s3.3-1,4.9-2c1.6-1.1,3.3-2.2,5.5-2.2c2.2,0,3.9,1.1,5.5,2.2c1.5,1,3,2,4.9,2c1.9,0,3.3-1,4.9-2
			c0.2-0.2,0.5-0.3,0.7-0.5L131.4,198.5z"/>
	</g>
	<g>
		<defs>
			<rect id="SVGID_27_" x="73.6" y="152.3" width="69" height="109.9"/>
		</defs>
		<clipPath id="SVGID_28_">
			<use xlink:href="#SVGID_27_"  style="overflow:visible;"/>
		</clipPath>
		<path id="XMLID_3_" class="st24" d="M125.1,205.8c-2.1,0-3.8-1.1-5.4-2.2c-1.5-1-3-2-4.9-2s-3.3,1-4.9,2c-1.6,1.1-3.3,2.2-5.5,2.2
			s-3.9-1.1-5.5-2.2c-1.5-1-3-2-4.9-2s-3.3,1-4.9,2c-1.6,1.1-3.3,2.2-5.5,2.2c-2.2,0-3.9-1.1-5.5-2.2c-1.5-1-3-2-4.9-2
			c-1.9,0-3.3,1-4.9,2c-1.6,1.1-3.3,2.2-5.5,2.2c-2.2,0-3.9-1.1-5.5-2.2c-1.5-1-3-2-4.9-2c-1.9,0-3.3,1-4.9,2s-3.3,2.1-5.4,2.2v-1.6
			c1.8,0,3.2-1,4.8-2c1.6-1.1,3.3-2.2,5.5-2.2s3.9,1.1,5.5,2.2c1.5,1,3,2,4.9,2c1.9,0,3.3-1,4.9-2c1.6-1.1,3.3-2.2,5.5-2.2
			s3.9,1.1,5.5,2.2c1.5,1,3,2,4.9,2s3.3-1,4.9-2c1.6-1.1,3.3-2.2,5.5-2.2c2.2,0,3.9,1.1,5.5,2.2c1.5,1,3,2,4.9,2c1.9,0,3.3-1,4.9-2
			c1.6-1.1,3.3-2.2,5.5-2.2c2.2,0,3.9,1.1,5.5,2.2c1.5,1,3,1.9,4.8,2V205.8z"/>
	</g>
	<g>
		<defs>
			<rect id="SVGID_29_" x="73.6" y="152.3" width="69" height="109.9"/>
		</defs>
		<clipPath id="SVGID_30_">
			<use xlink:href="#SVGID_29_"  style="overflow:visible;"/>
		</clipPath>
		<path id="XMLID_2_" class="st25" d="M131.4,208c-0.2,0.2-0.5,0.3-0.7,0.5c-1.6,1.1-3.3,2.2-5.5,2.2c-2.2,0-3.9-1.1-5.5-2.2
			c-1.5-1-3-2-4.9-2c-1.9,0-3.3,1-4.9,2c-1.6,1.1-3.3,2.2-5.5,2.2c-2.2,0-3.9-1.1-5.5-2.2c-1.5-1-3-2-4.9-2c-1.9,0-3.3,1-4.9,2
			c-1.6,1.1-3.3,2.2-5.5,2.2s-3.7-1.2-5.4-2.2c-1.5-1-3-2-4.9-2c-1.9,0-3.3,1-4.9,2c-1.6,1.1-3.3,2.2-5.5,2.2
			c-2.2,0-3.9-1.1-5.5-2.2c-1.5-1-3-2-4.9-2s-3.3,1-4.9,2c-1.6,1.1-3.3,2.2-5.5,2.2c-2.2,0-3.9-1.1-5.5-2.2
			c-0.2-0.2-0.5-0.3-0.7-0.5l0.6-1.4c0.2,0.2,0.5,0.3,0.7,0.5c1.5,1,3,2,4.9,2c1.9,0,3.3-1,4.9-2c1.6-1.1,3.3-2.2,5.5-2.2
			s3.9,1.1,5.5,2.2c1.5,1,3,2,4.9,2c1.9,0,3.3-1,4.9-2c1.6-1.1,3.3-2.2,5.5-2.2s3.9,1.1,5.5,2.2c1.5,1,3,2,4.9,2s3.3-1,4.9-2
			c1.6-1.1,3.3-2.2,5.5-2.2c2.2,0,3.9,1.1,5.5,2.2c1.5,1,3,2,4.9,2c1.9,0,3.3-1,4.9-2c1.6-1.1,3.3-2.2,5.5-2.2
			c2.2,0,3.9,1.1,5.5,2.2c1.5,1,3,2,4.9,2c1.9,0,3.3-1,4.9-2c0.2-0.2,0.5-0.3,0.7-0.5L131.4,208z"/>
	</g>
	<g>
		<defs>
			<rect id="SVGID_31_" x="73.6" y="152.3" width="69" height="109.9"/>
		</defs>
		<clipPath id="SVGID_32_">
			<use xlink:href="#SVGID_31_"  style="overflow:visible;"/>
		</clipPath>
		<path id="XMLID_10_" class="st26" d="M125.1,215.3c-2.1,0-3.8-1.1-5.4-2.2c-1.5-1-3-2-4.9-2s-3.3,1-4.9,2
			c-1.6,1.1-3.3,2.2-5.5,2.2s-3.9-1.1-5.5-2.2c-1.5-1-3-2-4.9-2s-3.3,1-4.9,2c-1.6,1.1-3.3,2.2-5.5,2.2c-2.2,0-3.9-1.1-5.5-2.2
			c-1.5-1-3-2-4.9-2c-1.9,0-3.3,1-4.9,2c-1.6,1.1-3.3,2.2-5.5,2.2c-2.2,0-3.9-1.1-5.5-2.2c-1.5-1-3-2-4.9-2c-1.9,0-3.3,1-4.9,2
			s-3.3,2.1-5.4,2.2v-1.6c1.8,0,3.2-1,4.8-2c1.6-1.1,3.3-2.2,5.5-2.2s3.9,1.1,5.5,2.2c1.5,1,3,2,4.9,2c1.9,0,3.3-1,4.9-2
			c1.6-1.1,3.3-2.2,5.5-2.2s3.9,1.1,5.5,2.2c1.5,1,3,2,4.9,2s3.3-1,4.9-2c1.6-1.1,3.3-2.2,5.5-2.2c2.2,0,3.9,1.1,5.5,2.2
			c1.5,1,3,2,4.9,2c1.9,0,3.3-1,4.9-2c1.6-1.1,3.3-2.2,5.5-2.2c2.2,0,3.9,1.1,5.5,2.2c1.5,1,3,1.9,4.8,2V215.3z"/>
	</g>
</g>
<polygon id="XMLID_1839_" class="st12" points="785.9,250 809.4,263.7 809.5,236.5 "/>
<g id="XMLID_34_">
	<path id="XMLID_36_" class="st27" d="M184.5,207l6.6-19.7h6.9l6.6,19.7v0.2H200l-1.6-4.8h-7.9l-1.6,4.8h-4.5V207H184.5z
		 M197.3,198.8l-1.5-4.5l-1.2-3.9h-0.4l-1.2,3.9l-1.5,4.5H197.3z"/>
	<path id="XMLID_35_" class="st27" d="M214.7,200.5c-0.3,0-0.6,0-1,0c-0.3,0-0.7,0-1,0c-0.1,0-0.2,0-0.3,0s-0.3,0-0.5,0
		s-0.3,0-0.5,0s-0.3,0-0.4,0v6.7h-4.6v-19.8c2.1-0.3,4.1-0.4,6-0.4c1.8,0,3.3,0.1,4.6,0.4s2.4,0.7,3.2,1.2c0.8,0.6,1.5,1.3,1.8,2.1
		c0.4,0.9,0.6,1.9,0.6,3.1c0,2.9-1.3,4.9-4,5.9l4.9,7.5h-5.1L214.7,200.5z M213.3,197c0.9,0,1.6-0.1,2.2-0.2s1.1-0.3,1.5-0.6
		s0.6-0.6,0.8-1s0.2-0.9,0.2-1.5s-0.1-1.1-0.2-1.5c-0.2-0.4-0.4-0.8-0.8-1c-0.4-0.3-0.8-0.4-1.4-0.6s-1.3-0.2-2.2-0.2
		c-0.3,0-0.7,0-1.2,0.1c-0.5,0-0.8,0.1-1.1,0.1v6.2c0.2,0.1,0.5,0.1,0.9,0.1C212.4,197,212.8,197,213.3,197z"/>
	<path id="XMLID_45_" class="st27" d="M234.1,200.5c-0.3,0-0.6,0-1,0c-0.3,0-0.7,0-1,0c-0.1,0-0.2,0-0.3,0s-0.3,0-0.5,0
		s-0.3,0-0.5,0s-0.3,0-0.4,0v6.7h-4.6v-19.8c2.1-0.3,4.1-0.4,6-0.4c1.8,0,3.3,0.1,4.6,0.4s2.4,0.7,3.2,1.2c0.8,0.6,1.5,1.3,1.8,2.1
		c0.4,0.9,0.6,1.9,0.6,3.1c0,2.9-1.3,4.9-4,5.9l4.9,7.5h-5.1L234.1,200.5z M232.8,197c0.9,0,1.6-0.1,2.2-0.2s1.1-0.3,1.5-0.6
		s0.6-0.6,0.8-1s0.2-0.9,0.2-1.5s-0.1-1.1-0.2-1.5c-0.2-0.4-0.4-0.8-0.8-1c-0.4-0.3-0.8-0.4-1.4-0.6s-1.3-0.2-2.2-0.2
		c-0.3,0-0.7,0-1.2,0.1c-0.5,0-0.8,0.1-1.1,0.1v6.2c0.2,0.1,0.5,0.1,0.9,0.1C231.8,197,232.3,197,232.8,197z"/>
	<path id="XMLID_57_" class="st27" d="M243.4,207l6.6-19.7h6.9l6.6,19.7v0.2H259l-1.6-4.8h-7.9l-1.6,4.8h-4.5V207z M256.3,198.8
		l-1.5-4.5l-1.2-3.9h-0.4l-1.2,3.9l-1.5,4.5H256.3z"/>
	<path id="XMLID_60_" class="st27" d="M271.8,207.5c-0.5,0-1.1,0-1.7-0.1c-0.6,0-1.2-0.1-1.9-0.2c-0.6-0.1-1.3-0.2-1.9-0.3
		s-1.2-0.2-1.8-0.4v-3.7c1.3,0.3,2.5,0.5,3.7,0.7s2.2,0.2,3.2,0.2c1.3,0,2.2-0.2,2.8-0.5c0.6-0.4,0.9-0.9,0.9-1.6
		c0-0.8-0.3-1.4-1-1.8c-0.6-0.4-1.6-0.7-2.7-0.9c-1.1-0.2-2.1-0.5-2.9-0.8s-1.5-0.7-2.1-1.2c-0.5-0.5-1-1.1-1.2-1.8
		s-0.4-1.5-0.4-2.5c0-0.9,0.2-1.7,0.5-2.5c0.4-0.7,0.9-1.3,1.6-1.8s1.5-0.9,2.5-1.2s2.1-0.4,3.3-0.4c0.4,0,0.9,0,1.3,0
		s0.9,0.1,1.4,0.1c0.5,0.1,1,0.1,1.6,0.2c0.6,0.1,1.2,0.2,1.9,0.4v3.7c-0.9-0.3-1.9-0.5-2.9-0.6c-1-0.2-1.9-0.2-2.8-0.2
		c-1.2,0-2.1,0.2-2.7,0.6c-0.6,0.4-0.9,0.9-0.9,1.6c0,0.8,0.3,1.3,0.9,1.7s1.6,0.7,3,1.1c1,0.2,1.9,0.5,2.7,0.8
		c0.8,0.3,1.5,0.7,2,1.2s1,1,1.2,1.7c0.3,0.6,0.4,1.4,0.4,2.3c0,2-0.7,3.5-2,4.6S274.5,207.5,271.8,207.5z"/>
	<path id="XMLID_62_" class="st27" d="M287.1,190.8h-5.8v-3.6h16.3v3.6h-5.9v16.4h-4.6V190.8z"/>
	<path id="XMLID_64_" class="st27" d="M308.3,200.5c-0.3,0-0.6,0-1,0c-0.3,0-0.7,0-1,0c-0.1,0-0.2,0-0.3,0s-0.3,0-0.5,0
		s-0.3,0-0.5,0s-0.3,0-0.4,0v6.7H300v-19.8c2.1-0.3,4.1-0.4,6-0.4c1.8,0,3.3,0.1,4.6,0.4s2.4,0.7,3.2,1.2c0.8,0.6,1.5,1.3,1.8,2.1
		c0.4,0.9,0.6,1.9,0.6,3.1c0,2.9-1.3,4.9-4,5.9l4.9,7.5H312L308.3,200.5z M306.9,197c0.9,0,1.6-0.1,2.2-0.2c0.6-0.1,1.1-0.3,1.5-0.6
		c0.4-0.3,0.6-0.6,0.8-1s0.2-0.9,0.2-1.5s-0.1-1.1-0.2-1.5c-0.2-0.4-0.4-0.8-0.8-1c-0.4-0.3-0.8-0.4-1.4-0.6
		c-0.6-0.2-1.3-0.2-2.2-0.2c-0.3,0-0.7,0-1.2,0.1c-0.5,0-0.8,0.1-1.1,0.1v6.2c0.2,0.1,0.5,0.1,0.9,0.1C306,197,306.4,197,306.9,197z
		"/>
	<path id="XMLID_67_" class="st27" d="M319.5,187.2H334v3.6h-9.9v4.5h9v3.6h-9v4.7h10.1v3.6h-14.7V187.2L319.5,187.2z"/>
	<path id="XMLID_69_" class="st27" d="M337.4,187.2h6.3l3.8,9.8l1.3,4.1h0.2l1.3-4.1l3.8-9.8h6.3v20h-4.1v-14.8H356l-1.9,5.5
		l-3.4,8.5h-3.8l-3.4-8.5l-1.9-5.5h-0.2v14.8h-4.1L337.4,187.2L337.4,187.2z"/>
	<path id="XMLID_71_" class="st27" d="M373.1,207.5c-3.1,0-5.5-0.9-7.2-2.6c-1.6-1.7-2.5-4.3-2.5-7.6c0-3.4,0.8-6,2.5-7.7
		c1.6-1.7,4-2.6,7.2-2.6c3.1,0,5.5,0.9,7.2,2.6c1.6,1.7,2.5,4.3,2.5,7.7s-0.8,5.9-2.5,7.6S376.2,207.5,373.1,207.5z M373.1,203.8
		c0.9,0,1.7-0.1,2.3-0.3c0.6-0.2,1.1-0.6,1.5-1.1s0.7-1.2,0.8-2s0.3-1.9,0.3-3.1c0-1.2-0.1-2.2-0.3-3.1c-0.2-0.8-0.5-1.5-0.9-2
		s-0.9-0.9-1.5-1.1s-1.4-0.4-2.3-0.4s-1.6,0.1-2.3,0.4c-0.6,0.2-1.1,0.6-1.5,1.1s-0.7,1.2-0.9,2c-0.2,0.8-0.3,1.9-0.3,3.1
		c0,1.2,0.1,2.2,0.3,3.1c0.2,0.8,0.5,1.5,0.9,2s0.9,0.9,1.5,1.1C371.4,203.7,372.2,203.8,373.1,203.8z"/>
	<path id="XMLID_74_" class="st27" d="M392.2,207.5c-0.5,0-1.1,0-1.7-0.1c-0.6,0-1.2-0.1-1.9-0.2c-0.6-0.1-1.3-0.2-1.9-0.3
		s-1.2-0.2-1.8-0.4v-3.7c1.3,0.3,2.5,0.5,3.7,0.7s2.2,0.2,3.2,0.2c1.3,0,2.2-0.2,2.8-0.5c0.6-0.4,0.9-0.9,0.9-1.6
		c0-0.8-0.3-1.4-1-1.8c-0.6-0.4-1.6-0.7-2.7-0.9s-2.1-0.5-2.9-0.8s-1.5-0.7-2.1-1.2c-0.5-0.5-1-1.1-1.2-1.8
		c-0.3-0.7-0.4-1.5-0.4-2.5c0-0.9,0.2-1.7,0.5-2.5c0.4-0.7,0.9-1.3,1.6-1.8s1.5-0.9,2.5-1.2s2.1-0.4,3.3-0.4c0.4,0,0.9,0,1.3,0
		s0.9,0.1,1.4,0.1c0.5,0.1,1,0.1,1.6,0.2c0.6,0.1,1.2,0.2,1.9,0.4v3.7c-0.9-0.3-1.9-0.5-2.9-0.6c-1-0.2-1.9-0.2-2.8-0.2
		c-1.2,0-2.1,0.2-2.7,0.6c-0.6,0.4-0.9,0.9-0.9,1.6c0,0.8,0.3,1.3,0.9,1.7s1.6,0.7,3,1.1c1,0.2,1.9,0.5,2.7,0.8s1.5,0.7,2,1.2
		s1,1,1.2,1.7s0.4,1.4,0.4,2.3c0,2-0.7,3.5-2,4.6C396.8,207,394.8,207.5,392.2,207.5z"/>
	<path id="XMLID_76_" class="st27" d="M414.3,200.8l-7.5-13.6h5l3.8,7.4l0.8,2.1h0.2l0.8-2.1l3.8-7.4h5l-7.4,13.4v6.5h-4.6v-6.3
		H414.3z"/>
	<path id="XMLID_78_" class="st27" d="M430.2,207l6.6-19.7h6.9l6.6,19.7v0.2h-4.5l-1.6-4.8h-7.9l-1.6,4.8h-4.5V207z M443.1,198.8
		l-1.5-4.5l-1.2-3.9H440l-1.2,3.9l-1.5,4.5H443.1z"/>
	<path id="XMLID_81_" class="st27" d="M460.4,200.5c-0.3,0-0.6,0-1,0c-0.3,0-0.7,0-1,0c-0.1,0-0.2,0-0.3,0c-0.1,0-0.3,0-0.5,0
		s-0.3,0-0.5,0s-0.3,0-0.4,0v6.7h-4.6v-19.8c2.1-0.3,4.1-0.4,6-0.4c1.8,0,3.3,0.1,4.6,0.4c1.3,0.3,2.4,0.7,3.2,1.2
		c0.8,0.6,1.5,1.3,1.8,2.1c0.4,0.9,0.6,1.9,0.6,3.1c0,2.9-1.3,4.9-4,5.9l4.9,7.5h-5.1L460.4,200.5z M459.1,197
		c0.9,0,1.6-0.1,2.2-0.2c0.6-0.1,1.1-0.3,1.5-0.6s0.6-0.6,0.8-1s0.2-0.9,0.2-1.5s-0.1-1.1-0.2-1.5c-0.2-0.4-0.4-0.8-0.8-1
		c-0.4-0.3-0.8-0.4-1.4-0.6s-1.3-0.2-2.2-0.2c-0.3,0-0.7,0-1.2,0.1c-0.5,0-0.8,0.1-1.1,0.1v6.2c0.2,0.1,0.5,0.1,0.9,0.1
		C458.1,197,458.6,197,459.1,197z"/>
	<path id="XMLID_84_" class="st27" d="M471.7,187.2h6.3l3.8,9.8l1.3,4.1h0.2l1.3-4.1l3.8-9.8h6.3v20h-4.1v-14.8h-0.2l-1.9,5.5
		l-3.4,8.5h-3.8l-3.4-8.5l-1.9-5.5h-0.2v14.8h-4.1L471.7,187.2L471.7,187.2z"/>
	<path id="XMLID_86_" class="st27" d="M498.7,187.2h14.5v3.6h-9.9v4.5h9v3.6h-9v4.7h10.1v3.6h-14.7V187.2z"/>
	<path id="XMLID_90_" class="st27" d="M550.3,207.5c-3.2,0-5.5-0.9-7.2-2.6c-1.6-1.7-2.5-4.3-2.5-7.6c0-3.4,0.8-6,2.5-7.7
		s4-2.6,7.2-2.6c3.1,0,5.5,0.9,7.2,2.6c1.6,1.7,2.5,4.3,2.5,7.7s-0.8,5.9-2.5,7.6C555.9,206.6,553.5,207.5,550.3,207.5z
		 M550.3,203.8c0.9,0,1.7-0.1,2.3-0.3s1.1-0.6,1.5-1.1s0.7-1.2,0.9-2c0.2-0.8,0.3-1.9,0.3-3.1c0-1.2-0.1-2.2-0.3-3.1
		c-0.2-0.8-0.5-1.5-0.9-2s-0.9-0.9-1.5-1.1s-1.4-0.4-2.3-0.4s-1.6,0.1-2.3,0.4c-0.6,0.2-1.1,0.6-1.5,1.1s-0.7,1.2-0.9,2
		c-0.2,0.8-0.3,1.9-0.3,3.1c0,1.2,0.1,2.2,0.3,3.1c0.2,0.8,0.5,1.5,0.8,2c0.4,0.5,0.9,0.9,1.5,1.1
		C548.7,203.7,549.4,203.8,550.3,203.8z"/>
	<path id="XMLID_93_" class="st27" d="M569.4,207.5c-0.5,0-1.1,0-1.7-0.1c-0.6,0-1.2-0.1-1.9-0.2c-0.6-0.1-1.3-0.2-1.9-0.3
		c-0.6-0.1-1.2-0.2-1.8-0.4v-3.7c1.3,0.3,2.5,0.5,3.7,0.7c1.2,0.2,2.2,0.2,3.2,0.2c1.3,0,2.2-0.2,2.8-0.5s0.9-0.9,0.9-1.6
		c0-0.8-0.3-1.4-1-1.8c-0.6-0.4-1.6-0.7-2.7-0.9s-2.1-0.5-2.9-0.8c-0.8-0.3-1.5-0.7-2.1-1.2c-0.5-0.5-1-1.1-1.2-1.8
		c-0.3-0.7-0.4-1.5-0.4-2.5c0-0.9,0.2-1.7,0.5-2.5c0.4-0.7,0.9-1.3,1.6-1.8s1.5-0.9,2.5-1.2s2.1-0.4,3.3-0.4c0.4,0,0.9,0,1.3,0
		s0.9,0.1,1.4,0.1c0.5,0.1,1,0.1,1.6,0.2c0.6,0.1,1.2,0.2,1.9,0.4v3.7c-0.9-0.3-1.9-0.5-2.9-0.6c-1-0.2-1.9-0.2-2.8-0.2
		c-1.2,0-2.1,0.2-2.7,0.6c-0.6,0.4-0.9,0.9-0.9,1.6c0,0.8,0.3,1.3,0.9,1.7s1.6,0.7,3,1.1c1,0.2,1.9,0.5,2.7,0.8s1.5,0.7,2,1.2
		s1,1,1.2,1.7s0.4,1.4,0.4,2.3c0,2-0.7,3.5-2,4.6C574.1,207,572.1,207.5,569.4,207.5z"/>
	<path id="XMLID_95_" class="st27" d="M585.2,187.2h14.5v3.6h-9.9v4.5h9v3.6h-9v4.7H600v3.6h-14.7L585.2,187.2L585.2,187.2z"/>
	<path id="XMLID_97_" class="st27" d="M603.1,187.2h4.6v16.4h8.6v3.6h-13.2L603.1,187.2L603.1,187.2z"/>
	<path id="XMLID_99_" class="st27" d="M624.6,187.2h6.3l3.8,9.8l1.3,4.1h0.2l1.3-4.1l3.8-9.8h6.3v20h-4.1v-14.8h-0.2l-1.9,5.5
		l-3.4,8.5h-3.8l-3.4-8.5l-1.9-5.5h-0.2v14.8h-4.1L624.6,187.2L624.6,187.2z"/>
	<path id="XMLID_101_" class="st27" d="M648.7,207l6.6-19.7h6.9l6.6,19.7v0.2h-4.5l-1.6-4.8h-7.9l-1.6,4.8h-4.5V207z M661.5,198.8
		l-1.5-4.5l-1.2-3.9h-0.4l-1.2,3.9l-1.5,4.5H661.5z"/>
	<path id="XMLID_104_" class="st27" d="M669.8,187.4c2.1-0.3,4.1-0.4,6-0.4c1.8,0,3.4,0.1,4.7,0.4s2.4,0.7,3.2,1.3
		c0.8,0.6,1.4,1.3,1.8,2.3c0.4,0.9,0.6,2,0.6,3.3c0,2.5-0.8,4.3-2.5,5.5s-4.2,1.8-7.6,1.8c-0.3,0-0.5,0-0.8,0s-0.5,0-0.8,0v5.8h-4.6
		L669.8,187.4L669.8,187.4z M676.6,197.8c0.9,0,1.6-0.1,2.2-0.2c0.6-0.1,1.1-0.3,1.5-0.6s0.6-0.7,0.8-1.1c0.2-0.5,0.2-1,0.2-1.7
		s-0.1-1.2-0.2-1.7c-0.2-0.5-0.4-0.8-0.8-1.1c-0.4-0.3-0.8-0.5-1.4-0.6c-0.6-0.1-1.3-0.2-2.2-0.2c-0.4,0-0.8,0-1.2,0.1
		c-0.5,0-0.8,0.1-1.1,0.1v7c0.3,0,0.6,0.1,1,0.1S676.3,197.8,676.6,197.8z"/>
	<path id="XMLID_107_" class="st27" d="M685.9,207l6.6-19.7h6.9L706,207v0.2h-4.5l-1.6-4.8H692l-1.6,4.8h-4.5V207z M698.7,198.8
		l-1.5-4.5l-1.2-3.9h-0.4l-1.2,3.9l-1.5,4.5H698.7z"/>
	<path id="XMLID_1_" class="st27" d="M515.2,187.3h6.3l3.8,9.8l1.3,4.1h0.2l1.3-4.1l3.8-9.8h6.3v20h-4.1v-14.8h-0.2L532,198
		l-3.4,8.5h-3.8l-3.4-8.5l-1.9-5.5h-0.2v14.8h-4.1L515.2,187.3L515.2,187.3z"/>
</g>
<g id="XMLID_110_">
	<path id="XMLID_111_" class="st27" d="M293.5,666.9h2.5v10.6h6v1.9h-8.5V666.9z"/>
	<path id="XMLID_113_" class="st27" d="M302.3,679.3l4.6-12.4h3.7l4.6,12.4v0.2h-2.5l-1.2-3.2H306l-1.2,3.2h-2.5V679.3z
		 M310.9,674.2l-1.2-3.1l-0.9-2.5h-0.2l-0.9,2.5l-1.2,3.1H310.9z"/>
	<path id="XMLID_116_" class="st27" d="M320.4,679.6c-0.3,0-0.7,0-1.1,0s-0.8-0.1-1.2-0.1c-0.4,0-0.8-0.1-1.2-0.2s-0.8-0.1-1.2-0.2
		V677c0.9,0.2,1.7,0.3,2.5,0.4c0.7,0.1,1.4,0.1,2,0.1c1.8,0,2.7-0.5,2.7-1.5c0-0.3-0.1-0.6-0.2-0.8c-0.1-0.2-0.3-0.4-0.5-0.5
		c-0.2-0.1-0.5-0.3-0.8-0.3c-0.3-0.1-0.7-0.2-1.1-0.3c-0.8-0.1-1.5-0.3-2-0.6s-1-0.5-1.4-0.8s-0.6-0.7-0.8-1.1
		c-0.2-0.4-0.2-0.9-0.2-1.5s0.1-1.1,0.3-1.5c0.2-0.5,0.6-0.8,1-1.2c0.4-0.3,1-0.6,1.6-0.7c0.6-0.2,1.3-0.3,2.1-0.3
		c0.3,0,0.5,0,0.8,0s0.6,0,0.9,0.1s0.7,0.1,1,0.2c0.4,0.1,0.8,0.1,1.2,0.2v2c-0.6-0.2-1.2-0.3-1.9-0.4c-0.7-0.1-1.3-0.1-1.8-0.1
		c-0.8,0-1.5,0.1-1.9,0.4s-0.7,0.7-0.7,1.2c0,0.3,0,0.5,0.1,0.7c0.1,0.2,0.2,0.4,0.4,0.5c0.2,0.2,0.5,0.3,0.8,0.4
		c0.3,0.1,0.8,0.2,1.3,0.3c0.7,0.1,1.3,0.3,1.8,0.5s1,0.4,1.4,0.7s0.7,0.6,0.9,1s0.3,0.9,0.3,1.5c0,1.2-0.4,2.2-1.3,2.8
		C323.4,679.3,322.1,679.6,320.4,679.6z"/>
	<path id="XMLID_118_" class="st27" d="M331.7,666.9h3.4l2.7,6.5l1,2.9h0.1l1-2.9l2.7-6.5h3.4v12.6h-2v-9.8h-0.1l-1.5,4l-2.3,5.3
		H338l-2.4-5.3l-1.5-4H334v9.8h-2.2L331.7,666.9L331.7,666.9z"/>
	<path id="XMLID_120_" class="st27" d="M347.7,679.3l4.6-12.4h3.7l4.6,12.4v0.2h-2.5l-1.2-3.2h-5.6l-1.2,3.2h-2.5v-0.2H347.7z
		 M356.3,674.2l-1.2-3.1l-0.9-2.5H354l-0.9,2.5l-1.2,3.1H356.3z"/>
	<path id="XMLID_123_" class="st27" d="M362.1,666.9h2.5v10.6h6v1.9h-8.5V666.9z"/>
	<path id="XMLID_125_" class="st27" d="M369.4,666.9h2.7l2.8,7.6l0.8,2.6h0.2l0.8-2.6l2.8-7.6h2.7l-4.7,12.6h-3.3L369.4,666.9z"/>
	<path id="XMLID_127_" class="st27" d="M383.7,666.9h2.5v12.6h-2.5V666.9z"/>
	<path id="XMLID_129_" class="st27" d="M389.1,666.9h2l6.1,7.5l1.1,1.5h0.1v-9h2.2v12.6h-2l-6-7.4l-1.2-1.6h-0.1v9h-2.2V666.9z"/>
	<path id="XMLID_131_" class="st27" d="M402.2,679.3l4.6-12.4h3.7l4.6,12.4v0.2h-2.5l-1.2-3.2h-5.6l-1.2,3.2h-2.5v-0.2H402.2z
		 M410.8,674.2l-1.2-3.1l-0.9-2.5h-0.2l-0.9,2.5l-1.2,3.1H410.8z"/>
	<path id="XMLID_134_" class="st27" d="M420.3,679.6c-0.3,0-0.7,0-1.1,0s-0.8-0.1-1.2-0.1c-0.4,0-0.8-0.1-1.2-0.2s-0.8-0.1-1.2-0.2
		V677c0.9,0.2,1.7,0.3,2.5,0.4c0.7,0.1,1.4,0.1,2,0.1c1.8,0,2.7-0.5,2.7-1.5c0-0.3-0.1-0.6-0.2-0.8s-0.3-0.4-0.5-0.5
		s-0.5-0.3-0.8-0.3s-0.7-0.2-1.1-0.3c-0.8-0.1-1.5-0.3-2-0.6c-0.6-0.2-1-0.5-1.4-0.8s-0.6-0.7-0.8-1.1s-0.2-0.9-0.2-1.5
		s0.1-1.1,0.3-1.5c0.2-0.5,0.6-0.8,1-1.2c0.4-0.3,1-0.6,1.6-0.7s1.3-0.3,2.1-0.3c0.3,0,0.5,0,0.8,0s0.6,0,0.9,0.1s0.7,0.1,1,0.2
		c0.4,0.1,0.8,0.1,1.2,0.2v2c-0.6-0.2-1.2-0.3-1.9-0.4s-1.3-0.1-1.8-0.1c-0.8,0-1.5,0.1-1.9,0.4s-0.7,0.7-0.7,1.2
		c0,0.3,0,0.5,0.1,0.7s0.2,0.4,0.4,0.5c0.2,0.2,0.5,0.3,0.8,0.4c0.3,0.1,0.8,0.2,1.3,0.3c0.7,0.1,1.3,0.3,1.8,0.5s1,0.4,1.4,0.7
		s0.7,0.6,0.9,1c0.2,0.4,0.3,0.9,0.3,1.5c0,1.2-0.4,2.2-1.3,2.8C423.3,679.3,422,679.6,420.3,679.6z"/>
	<path id="XMLID_136_" class="st27" d="M435.5,679.6c-0.3,0-0.7,0-1.1,0s-0.8-0.1-1.2-0.1c-0.4,0-0.8-0.1-1.2-0.2s-0.8-0.1-1.2-0.2
		V677c0.9,0.2,1.7,0.3,2.5,0.4c0.7,0.1,1.4,0.1,2,0.1c1.8,0,2.7-0.5,2.7-1.5c0-0.3-0.1-0.6-0.2-0.8s-0.3-0.4-0.5-0.5
		s-0.5-0.3-0.8-0.3c-0.3-0.1-0.7-0.2-1.1-0.3c-0.8-0.1-1.5-0.3-2-0.6c-0.6-0.2-1-0.5-1.4-0.8s-0.6-0.7-0.8-1.1
		c-0.2-0.4-0.2-0.9-0.2-1.5s0.1-1.1,0.3-1.5s0.6-0.8,1-1.2c0.4-0.3,1-0.6,1.6-0.7c0.6-0.2,1.3-0.3,2.1-0.3c0.3,0,0.5,0,0.8,0
		s0.6,0,0.9,0.1s0.7,0.1,1,0.2c0.4,0.1,0.8,0.1,1.2,0.2v2c-0.6-0.2-1.2-0.3-1.9-0.4s-1.3-0.1-1.8-0.1c-0.8,0-1.5,0.1-1.9,0.4
		s-0.7,0.7-0.7,1.2c0,0.3,0,0.5,0.1,0.7s0.2,0.4,0.4,0.5c0.2,0.2,0.5,0.3,0.8,0.4c0.3,0.1,0.8,0.2,1.3,0.3c0.7,0.1,1.3,0.3,1.8,0.5
		s1,0.4,1.4,0.7s0.7,0.6,0.9,1c0.2,0.4,0.3,0.9,0.3,1.5c0,1.2-0.4,2.2-1.3,2.8C438.6,679.3,437.3,679.6,435.5,679.6z"/>
	<path id="XMLID_138_" class="st27" d="M448.4,679.6c-2,0-3.5-0.5-4.6-1.6s-1.6-2.7-1.6-4.8s0.5-3.7,1.6-4.8s2.6-1.7,4.6-1.7
		s3.5,0.6,4.6,1.7c1.1,1.1,1.6,2.7,1.6,4.8s-0.5,3.7-1.6,4.8S450.4,679.6,448.4,679.6z M448.4,677.6c0.6,0,1.2-0.1,1.6-0.2
		c0.5-0.2,0.8-0.4,1.1-0.8c0.3-0.4,0.5-0.8,0.7-1.4c0.1-0.6,0.2-1.2,0.2-2c0-1.6-0.3-2.7-0.9-3.4s-1.5-1.1-2.8-1.1s-2.2,0.3-2.8,1
		c-0.6,0.7-0.9,1.8-0.9,3.4c0,0.8,0.1,1.5,0.2,2c0.1,0.6,0.4,1,0.7,1.4c0.3,0.4,0.7,0.6,1.1,0.8
		C447.2,677.5,447.7,677.6,448.4,677.6z"/>
	<path id="XMLID_141_" class="st27" d="M456.8,666.9h2l6.1,7.5l1.1,1.5h0.1v-9h2.2v12.6h-2l-6-7.4l-1.2-1.6H459v9h-2.2V666.9z"/>
	<path id="XMLID_143_" class="st27" d="M473.9,679.3l4.6-12.4h3.7l4.6,12.4v0.2h-2.5l-1.2-3.2h-5.6l-1.2,3.2h-2.5v-0.2H473.9z
		 M482.5,674.2l-1.2-3.1l-0.9-2.5h-0.2l-0.9,2.5l-1.2,3.1H482.5z"/>
	<path id="XMLID_146_" class="st27" d="M493.7,675.1c-0.5,0-1,0.1-1.5,0.1c-0.2,0-0.4,0-0.6,0c-0.3,0-0.5,0-0.7-0.1v4.4h-2.5V667
		c1.3-0.2,2.6-0.3,3.7-0.3c2.3,0,4,0.3,5,1s1.6,1.7,1.6,3.2c0,1.9-0.9,3.1-2.7,3.8l3.3,4.8h-2.9L493.7,675.1z M492.6,673.2
		c0.7,0,1.2,0,1.7-0.1c0.4-0.1,0.8-0.2,1.1-0.4c0.3-0.2,0.5-0.4,0.6-0.7s0.2-0.6,0.2-1.1s-0.1-0.8-0.2-1.1s-0.3-0.5-0.6-0.7
		c-0.3-0.2-0.6-0.3-1.1-0.4c-0.4-0.1-1-0.1-1.6-0.1c-0.3,0-0.6,0-0.9,0s-0.6,0.1-0.8,0.1v4.3c0.1,0,0.4,0.1,0.7,0.1
		C491.8,673.2,492.2,673.2,492.6,673.2z"/>
	<path id="XMLID_149_" class="st27" d="M506.3,679.6c-4.3,0-6.5-2.1-6.5-6.4c0-4.4,2.2-6.5,6.7-6.5c0.6,0,1.2,0,1.9,0.1
		s1.3,0.2,1.8,0.3v2.1c-0.8-0.2-1.5-0.3-2-0.3c-0.6-0.1-1.1-0.1-1.5-0.1c-0.8,0-1.4,0.1-2,0.2c-0.5,0.2-1,0.4-1.3,0.8
		c-0.3,0.4-0.6,0.8-0.7,1.4s-0.2,1.2-0.2,2s0.1,1.5,0.2,2c0.1,0.6,0.4,1,0.7,1.4s0.7,0.6,1.2,0.8s1.1,0.2,1.8,0.2c0.2,0,0.5,0,0.8,0
		s0.6-0.1,0.9-0.1v-4.4h2.3v5.9c-0.3,0.1-0.6,0.2-1,0.3s-0.7,0.2-1.1,0.2c-0.4,0.1-0.7,0.1-1.1,0.1
		C506.9,679.6,506.6,679.6,506.3,679.6z"/>
	<path id="XMLID_151_" class="st27" d="M512.9,666.9h9.2v2h-6.7v3.3h6.2v2h-6.2v3.4h6.9v2h-9.4V666.9z"/>
	<path id="XMLID_153_" class="st27" d="M524.5,666.9h2l6.1,7.5l1.1,1.5h0.1v-9h2.2v12.6h-2l-6-7.4l-1.2-1.6h-0.1v9h-2.2V666.9z"/>
	<path id="XMLID_155_" class="st27" d="M541.9,668.8h-4.1v-2h10.7v2h-4.1v10.6h-2.5V668.8z"/>
	<path id="XMLID_157_" class="st27" d="M550.4,666.9h2.5v12.6h-2.5V666.9z"/>
	<path id="XMLID_159_" class="st27" d="M555.8,666.9h2l6.1,7.5l1.1,1.5h0.1v-9h2.2v12.6h-2l-6-7.4l-1.2-1.6H558v9h-2.2V666.9z"/>
	<path id="XMLID_161_" class="st27" d="M568.8,679.3l4.6-12.4h3.7l4.6,12.4v0.2h-2.5l-1.2-3.2h-5.6l-1.2,3.2h-2.5v-0.2H568.8z
		 M577.4,674.2l-1.2-3.1l-0.9-2.5h-0.2l-0.9,2.5l-1.2,3.1H577.4z"/>
	<path id="XMLID_164_" class="st27" d="M586.9,679.6c-0.3,0-0.7,0-1.1,0c-0.4,0-0.8-0.1-1.2-0.1c-0.4,0-0.8-0.1-1.2-0.2
		s-0.8-0.1-1.2-0.2V677c0.9,0.2,1.7,0.3,2.5,0.4c0.7,0.1,1.4,0.1,2,0.1c1.8,0,2.7-0.5,2.7-1.5c0-0.3-0.1-0.6-0.2-0.8
		c-0.1-0.2-0.3-0.4-0.5-0.5s-0.5-0.3-0.8-0.3c-0.3-0.1-0.7-0.2-1.1-0.3c-0.8-0.1-1.5-0.3-2-0.6c-0.6-0.2-1-0.5-1.4-0.8
		c-0.4-0.3-0.6-0.7-0.8-1.1c-0.2-0.4-0.2-0.9-0.2-1.5s0.1-1.1,0.3-1.5c0.2-0.4,0.6-0.8,1-1.2c0.4-0.3,1-0.6,1.6-0.7
		c0.6-0.2,1.3-0.3,2.1-0.3c0.3,0,0.5,0,0.8,0s0.6,0,0.9,0.1s0.7,0.1,1,0.2c0.4,0.1,0.8,0.1,1.2,0.2v2c-0.6-0.2-1.2-0.3-1.9-0.4
		c-0.7-0.1-1.3-0.1-1.8-0.1c-0.8,0-1.5,0.1-1.9,0.4c-0.4,0.3-0.7,0.7-0.7,1.2c0,0.3,0,0.5,0.1,0.7s0.2,0.4,0.4,0.5
		c0.2,0.2,0.5,0.3,0.8,0.4c0.3,0.1,0.8,0.2,1.3,0.3c0.7,0.1,1.3,0.3,1.8,0.5s1,0.4,1.4,0.7s0.7,0.6,0.9,1s0.3,0.9,0.3,1.5
		c0,1.2-0.4,2.2-1.3,2.8C589.9,679.3,588.6,679.6,586.9,679.6z"/>
</g>
</svg>
