<?xml version="1.0" encoding="utf-8"?>
<!-- Generator: Adobe Illustrator 19.0.0, SVG Export Plug-In . SVG Version: 6.00 Build 0)  -->
<svg version="1.1" id="Capa_1" xmlns="http://www.w3.org/2000/svg" xmlns:xlink="http://www.w3.org/1999/xlink" x="0px" y="0px"
	 viewBox="0 0 743.2 712.4" style="enable-background:new 0 0 743.2 712.4;" xml:space="preserve">
<style type="text/css">
	.st0{fill:#1D8FCA;}
	.st1{fill:#E3AF3D;}
	.st2{clip-path:url(#XMLID_41_);fill:#E6B641;}
	.st3{fill:#3861A4;}
	.st4{fill:#CE847F;}
	.st5{fill:#C13A57;}
	.st6{fill:#479D6D;}
	.st7{fill:#E6B641;}
	.st8{fill:#BE3480;}
	.st9{fill:#1D8EC9;}
	.st10{fill:#CA7370;}
	.st11{fill:#DCA831;}
	.st12{clip-path:url(#XMLID_42_);fill:#FFFFFF;}
	.st13{fill:#FFFFFF;}
</style>
<rect id="XMLID_2575_" x="-0.4" y="75.5" class="st0" width="743.6" height="573"/>
<path id="XMLID_1830_" class="st1" d="M0.2,131.5c22.4,0,40.5,18.1,40.5,40.4s-18.1,40.4-40.5,40.4"/>
<g id="XMLID_2932_">
	<defs>
		<rect id="XMLID_1834_" x="564.3" y="536.7" width="122.9" height="161.2"/>
	</defs>
	<clipPath id="XMLID_41_">
		<use xlink:href="#XMLID_1834_"  style="overflow:visible;"/>
	</clipPath>
	<path id="XMLID_1828_" class="st2" d="M790.1,571.9c-0.5,0.3-1,0.7-1.5,1c-3.5,2.3-7.1,4.7-11.9,4.7c-4.7,0-8.4-2.4-11.9-4.7
		c-3.3-2.2-6.5-4.2-10.5-4.2c-4,0-7.2,2.1-10.5,4.2c-3.5,2.3-7.1,4.7-11.9,4.7s-8.4-2.4-11.9-4.7c-3.3-2.2-6.5-4.2-10.5-4.2
		c-4,0-7.2,2.1-10.5,4.2c-3.5,2.3-7.1,4.7-11.9,4.7c-4.7,0-8.4-2.4-11.9-4.7c-3.3-2.2-6.5-4.2-10.5-4.2c-4,0-7.2,2.1-10.5,4.2
		c-3.5,2.3-7.1,4.7-11.9,4.7c-4.7,0-8.4-2.4-11.9-4.7c-3.3-2.2-6.5-4.2-10.5-4.2c-4,0-7.2,2.1-10.5,4.2c-3.5,2.3-7.1,4.7-11.9,4.7
		c-4.7,0-8.4-2.4-11.9-4.7c-0.5-0.3-1-0.7-1.5-1l1.3-3c0.5,0.3,1,0.7,1.6,1c3.3,2.2,6.5,4.2,10.5,4.2c4,0,7.2-2.1,10.5-4.2
		c3.5-2.3,7.1-4.7,11.9-4.7c4.7,0,8.4,2.4,11.9,4.7c3.3,2.2,6.5,4.2,10.5,4.2c4,0,7.2-2.1,10.5-4.2c3.5-2.3,7.1-4.7,11.9-4.7
		c4.7,0,8.4,2.4,11.9,4.7c3.3,2.2,6.5,4.2,10.5,4.2c4,0,7.2-2.1,10.5-4.2c3.5-2.3,7.1-4.7,11.9-4.7c4.7,0,8.4,2.4,11.9,4.7
		c3.3,2.2,6.5,4.2,10.5,4.2c4,0,7.2-2.1,10.5-4.2c3.5-2.3,7.1-4.7,11.9-4.7c4.7,0,8.4,2.4,11.9,4.7c3.3,2.2,6.5,4.2,10.5,4.2
		c4,0,7.2-2.1,10.5-4.2c0.5-0.3,1-0.7,1.6-1L790.1,571.9z"/>
	<path id="XMLID_1827_" class="st2" d="M776.4,587.6c-4.6-0.1-8.2-2.4-11.6-4.7c-3.3-2.2-6.5-4.2-10.5-4.2c-4,0-7.2,2.1-10.5,4.2
		c-3.5,2.3-7.1,4.7-11.9,4.7c-4.7,0-8.4-2.4-11.9-4.7c-3.3-2.2-6.5-4.2-10.5-4.2c-4,0-7.2,2.1-10.5,4.2c-3.5,2.3-7.1,4.7-11.9,4.7
		c-4.7,0-8.4-2.4-11.9-4.7c-3.3-2.2-6.5-4.2-10.5-4.2c-4,0-7.2,2.1-10.5,4.2c-3.5,2.3-7.1,4.7-11.9,4.7c-4.7,0-8.4-2.4-11.9-4.7
		c-3.3-2.2-6.5-4.2-10.5-4.2c-4,0-7.2,2.1-10.5,4.2c-3.5,2.3-7,4.6-11.6,4.7l0-3.4c3.9-0.1,7-2.1,10.3-4.2c3.5-2.3,7.1-4.7,11.9-4.7
		c4.7,0,8.4,2.4,11.9,4.7c3.3,2.2,6.5,4.2,10.5,4.2c4,0,7.2-2.1,10.5-4.2c3.5-2.3,7.1-4.7,11.9-4.7c4.7,0,8.4,2.4,11.9,4.7
		c3.3,2.2,6.5,4.2,10.5,4.2c4,0,7.2-2.1,10.5-4.2c3.5-2.3,7.1-4.7,11.9-4.7c4.7,0,8.4,2.4,11.9,4.7c3.3,2.2,6.5,4.2,10.5,4.2
		s7.2-2.1,10.5-4.2c3.5-2.3,7.1-4.7,11.9-4.7c4.7,0,8.4,2.4,11.9,4.7c3.3,2.2,6.4,4.2,10.3,4.2L776.4,587.6z"/>
	<path id="XMLID_1826_" class="st2" d="M790.1,592.5c-0.5,0.3-1,0.7-1.5,1c-3.5,2.3-7.1,4.7-11.9,4.7c-4.7,0-8.4-2.4-11.9-4.7
		c-3.3-2.2-6.5-4.2-10.5-4.2c-4,0-7.2,2.1-10.5,4.2c-3.5,2.3-7.1,4.7-11.9,4.7s-8.4-2.4-11.9-4.7c-3.3-2.2-6.5-4.2-10.5-4.2
		c-4,0-7.2,2.1-10.5,4.2c-3.5,2.3-7.1,4.7-11.9,4.7c-4.7,0-8.4-2.4-11.9-4.7c-3.3-2.2-6.5-4.2-10.5-4.2c-4,0-7.2,2.1-10.5,4.2
		c-3.5,2.3-7.1,4.7-11.9,4.7c-4.7,0-8.4-2.4-11.9-4.7c-3.3-2.2-6.5-4.2-10.5-4.2c-4,0-7.2,2.1-10.5,4.2c-3.5,2.3-7.1,4.7-11.9,4.7
		c-4.7,0-8.4-2.4-11.9-4.7c-0.5-0.3-1-0.7-1.5-1l1.3-3c0.5,0.3,1,0.7,1.6,1c3.3,2.2,6.5,4.2,10.5,4.2c4,0,7.2-2.1,10.5-4.2
		c3.5-2.3,7.1-4.7,11.9-4.7c4.7,0,8.4,2.4,11.9,4.7c3.3,2.2,6.5,4.2,10.5,4.2c4,0,7.2-2.1,10.5-4.2c3.5-2.3,7.1-4.7,11.9-4.7
		c4.7,0,8.4,2.4,11.9,4.7c3.3,2.2,6.5,4.2,10.5,4.2c4,0,7.2-2.1,10.5-4.2c3.5-2.3,7.1-4.7,11.9-4.7c4.7,0,8.4,2.4,11.9,4.7
		c3.3,2.2,6.5,4.2,10.5,4.2c4,0,7.2-2.1,10.5-4.2c3.5-2.3,7.1-4.7,11.9-4.7c4.7,0,8.4,2.4,11.9,4.7c3.3,2.2,6.5,4.2,10.5,4.2
		c4,0,7.2-2.1,10.5-4.2c0.5-0.3,1-0.7,1.6-1L790.1,592.5z"/>
	<path id="XMLID_1825_" class="st2" d="M776.4,608.2c-4.6-0.1-8.2-2.4-11.6-4.7c-3.3-2.2-6.5-4.2-10.5-4.2c-4,0-7.2,2.1-10.5,4.2
		c-3.5,2.3-7.1,4.7-11.9,4.7c-4.7,0-8.4-2.4-11.9-4.7c-3.3-2.2-6.5-4.2-10.5-4.2c-4,0-7.2,2.1-10.5,4.2c-3.5,2.3-7.1,4.7-11.9,4.7
		c-4.7,0-8.4-2.4-11.9-4.7c-3.3-2.2-6.5-4.2-10.5-4.2c-4,0-7.2,2.1-10.5,4.2c-3.5,2.3-7.1,4.7-11.9,4.7c-4.7,0-8.4-2.4-11.9-4.7
		c-3.3-2.2-6.5-4.2-10.5-4.2s-7.2,2.1-10.5,4.2c-3.5,2.3-7,4.6-11.6,4.7l0-3.4c3.9-0.1,7-2.1,10.3-4.2c3.5-2.3,7.1-4.7,11.9-4.7
		c4.7,0,8.4,2.4,11.9,4.7c3.3,2.2,6.5,4.2,10.5,4.2c4,0,7.2-2.1,10.5-4.2c3.5-2.3,7.1-4.7,11.9-4.7c4.7,0,8.4,2.4,11.9,4.7
		c3.3,2.2,6.5,4.2,10.5,4.2c4,0,7.2-2.1,10.5-4.2c3.5-2.3,7.1-4.7,11.9-4.7c4.7,0,8.4,2.4,11.9,4.7c3.3,2.2,6.5,4.2,10.5,4.2
		s7.2-2.1,10.5-4.2c3.5-2.3,7.1-4.7,11.9-4.7c4.7,0,8.4,2.4,11.9,4.7c3.3,2.2,6.4,4.2,10.3,4.2L776.4,608.2z"/>
	<path id="XMLID_1824_" class="st2" d="M790.1,613.7c-0.5,0.3-1,0.7-1.5,1c-3.5,2.3-7.1,4.7-11.9,4.7c-4.7,0-8.4-2.4-11.9-4.7
		c-3.3-2.2-6.5-4.2-10.5-4.2c-4,0-7.2,2.1-10.5,4.2c-3.5,2.3-7.1,4.7-11.9,4.7s-8.4-2.4-11.9-4.7c-3.3-2.2-6.5-4.2-10.5-4.2
		c-4,0-7.2,2.1-10.5,4.2c-3.5,2.3-7.1,4.7-11.9,4.7c-4.7,0-8.4-2.4-11.9-4.7c-3.3-2.2-6.5-4.2-10.5-4.2c-4,0-7.2,2.1-10.5,4.2
		c-3.5,2.3-7.1,4.7-11.9,4.7c-4.7,0-8.4-2.4-11.9-4.7c-3.3-2.2-6.5-4.2-10.5-4.2c-4,0-7.2,2.1-10.5,4.2c-3.5,2.3-7.1,4.7-11.9,4.7
		c-4.7,0-8.4-2.4-11.9-4.7c-0.5-0.3-1-0.7-1.5-1l1.3-3c0.5,0.3,1,0.7,1.6,1c3.3,2.2,6.5,4.2,10.5,4.2c4,0,7.2-2.1,10.5-4.2
		c3.5-2.3,7.1-4.7,11.9-4.7c4.7,0,8.4,2.4,11.9,4.7c3.3,2.2,6.5,4.2,10.5,4.2c4,0,7.2-2.1,10.5-4.2c3.5-2.3,7.1-4.7,11.9-4.7
		c4.7,0,8.4,2.4,11.9,4.7c3.3,2.2,6.5,4.2,10.5,4.2c4,0,7.2-2.1,10.5-4.2c3.5-2.3,7.1-4.7,11.9-4.7c4.7,0,8.4,2.4,11.9,4.7
		c3.3,2.2,6.5,4.2,10.5,4.2c4,0,7.2-2.1,10.5-4.2c3.5-2.3,7.1-4.7,11.9-4.7c4.7,0,8.4,2.4,11.9,4.7c3.3,2.2,6.5,4.2,10.5,4.2
		c4,0,7.2-2.1,10.5-4.2c0.5-0.3,1-0.7,1.6-1L790.1,613.7z"/>
	<path id="XMLID_1823_" class="st2" d="M776.4,629.3c-4.6-0.1-8.2-2.4-11.6-4.7c-3.3-2.2-6.5-4.2-10.5-4.2c-4,0-7.2,2.1-10.5,4.2
		c-3.5,2.3-7.1,4.7-11.9,4.7c-4.7,0-8.4-2.4-11.9-4.7c-3.3-2.2-6.5-4.2-10.5-4.2c-4,0-7.2,2.1-10.5,4.2c-3.5,2.3-7.1,4.7-11.9,4.7
		c-4.7,0-8.4-2.4-11.9-4.7c-3.3-2.2-6.5-4.2-10.5-4.2c-4,0-7.2,2.1-10.5,4.2c-3.5,2.3-7.1,4.7-11.9,4.7c-4.7,0-8.4-2.4-11.9-4.7
		c-3.3-2.2-6.5-4.2-10.5-4.2s-7.2,2.1-10.5,4.2c-3.5,2.3-7,4.6-11.6,4.7l0-3.4c3.9-0.1,7-2.1,10.3-4.2c3.5-2.3,7.1-4.7,11.9-4.7
		c4.7,0,8.4,2.4,11.9,4.7c3.3,2.2,6.5,4.2,10.5,4.2c4,0,7.2-2.1,10.5-4.2c3.5-2.3,7.1-4.7,11.9-4.7c4.7,0,8.4,2.4,11.9,4.7
		c3.3,2.2,6.5,4.2,10.5,4.2c4,0,7.2-2.1,10.5-4.2c3.5-2.3,7.1-4.7,11.9-4.7c4.7,0,8.4,2.4,11.9,4.7c3.3,2.2,6.5,4.2,10.5,4.2
		c4,0,7.2-2.1,10.5-4.2c3.5-2.3,7.1-4.7,11.9-4.7c4.7,0,8.4,2.4,11.9,4.7c3.3,2.2,6.4,4.2,10.3,4.2L776.4,629.3z"/>
	<path id="XMLID_1822_" class="st2" d="M790.1,634.3c-0.5,0.3-1,0.7-1.5,1c-3.5,2.3-7.1,4.7-11.9,4.7c-4.7,0-8.4-2.4-11.9-4.7
		c-3.3-2.2-6.5-4.2-10.5-4.2c-4,0-7.2,2.1-10.5,4.2c-3.5,2.3-7.1,4.7-11.9,4.7s-8.4-2.4-11.9-4.7c-3.3-2.2-6.5-4.2-10.5-4.2
		c-4,0-7.2,2.1-10.5,4.2c-3.5,2.3-7.1,4.7-11.9,4.7c-4.7,0-8.4-2.4-11.9-4.7c-3.3-2.2-6.5-4.2-10.5-4.2c-4,0-7.2,2.1-10.5,4.2
		c-3.5,2.3-7.1,4.7-11.9,4.7c-4.7,0-8.4-2.4-11.9-4.7c-3.3-2.2-6.5-4.2-10.5-4.2c-4,0-7.2,2.1-10.5,4.2c-3.5,2.3-7.1,4.7-11.9,4.7
		c-4.7,0-8.4-2.4-11.9-4.7c-0.5-0.3-1-0.7-1.5-1l1.3-3c0.5,0.3,1,0.7,1.6,1c3.3,2.2,6.5,4.2,10.5,4.2c4,0,7.2-2.1,10.5-4.2
		c3.5-2.3,7.1-4.7,11.9-4.7c4.7,0,8.4,2.4,11.9,4.7c3.3,2.2,6.5,4.2,10.5,4.2c4,0,7.2-2.1,10.5-4.2c3.5-2.3,7.1-4.7,11.9-4.7
		c4.7,0,8.4,2.4,11.9,4.7c3.3,2.2,6.5,4.2,10.5,4.2c4,0,7.2-2.1,10.5-4.2c3.5-2.3,7.1-4.7,11.9-4.7c4.7,0,8.4,2.4,11.9,4.7
		c3.3,2.2,6.5,4.2,10.5,4.2c4,0,7.2-2.1,10.5-4.2c3.5-2.3,7.1-4.7,11.9-4.7c4.7,0,8.4,2.4,11.9,4.7c3.3,2.2,6.5,4.2,10.5,4.2
		c4,0,7.2-2.1,10.5-4.2c0.5-0.3,1-0.7,1.6-1L790.1,634.3z"/>
	<path id="XMLID_1821_" class="st2" d="M776.4,649.9c-4.6-0.1-8.2-2.4-11.6-4.7c-3.3-2.2-6.5-4.2-10.5-4.2c-4,0-7.2,2.1-10.5,4.2
		c-3.5,2.3-7.1,4.7-11.9,4.7c-4.7,0-8.4-2.4-11.9-4.7c-3.3-2.2-6.5-4.2-10.5-4.2c-4,0-7.2,2.1-10.5,4.2c-3.5,2.3-7.1,4.7-11.9,4.7
		c-4.7,0-8.4-2.4-11.9-4.7c-3.3-2.2-6.5-4.2-10.5-4.2c-4,0-7.2,2.1-10.5,4.2c-3.5,2.3-7.1,4.7-11.9,4.7c-4.7,0-8.4-2.4-11.9-4.7
		c-3.3-2.2-6.5-4.2-10.5-4.2s-7.2,2.1-10.5,4.2c-3.5,2.3-7,4.6-11.6,4.7l0-3.4c3.9-0.1,7-2.1,10.3-4.2c3.5-2.3,7.1-4.7,11.9-4.7
		c4.7,0,8.4,2.4,11.9,4.7c3.3,2.2,6.5,4.2,10.5,4.2c4,0,7.2-2.1,10.5-4.2c3.5-2.3,7.1-4.7,11.9-4.7c4.7,0,8.4,2.4,11.9,4.7
		c3.3,2.2,6.5,4.2,10.5,4.2c4,0,7.2-2.1,10.5-4.2c3.5-2.3,7.1-4.7,11.9-4.7c4.7,0,8.4,2.4,11.9,4.7c3.3,2.2,6.5,4.2,10.5,4.2
		c4,0,7.2-2.1,10.5-4.2c3.5-2.3,7.1-4.7,11.9-4.7c4.7,0,8.4,2.4,11.9,4.7c3.3,2.2,6.4,4.2,10.3,4.2L776.4,649.9z"/>
</g>
<rect id="XMLID_3101_" x="256.1" y="171.7" class="st3" width="422.2" height="7.2"/>
<rect id="XMLID_1646_" x="691.9" y="211.6" class="st4" width="51.7" height="5.7"/>
<rect id="XMLID_3107_" x="-0.6" y="614.3" class="st5" width="91.4" height="97.9"/>
<polyline id="XMLID_3106_" class="st6" points="90.8,712.2 -0.6,712.2 -0.6,614.3 "/>
<rect id="XMLID_3105_" x="-0.6" y="565.4" class="st5" width="45.7" height="48.9"/>
<polyline id="XMLID_3104_" class="st7" points="45.1,614.3 -0.6,614.3 -0.6,565.4 "/>
<rect id="XMLID_3103_" x="90.8" y="614.3" class="st7" width="44.3" height="43.2"/>
<path id="XMLID_3102_" class="st5" d="M124.9,635.9c0,6.3-5.1,11.3-11.4,11.3c-6.3,0-11.4-5.1-11.4-11.3s5.1-11.3,11.4-11.3
	C119.9,624.6,124.9,629.7,124.9,635.9"/>
<path id="XMLID_1700_" class="st3" d="M743.6,111.4c-17.3,0-31.3-14-31.3-31.3s14-31.3,31.3-31.3"/>
<rect id="XMLID_1699_" x="98.4" y="682.7" class="st7" width="106.3" height="3"/>
<polyline id="XMLID_1688_" class="st8" points="133.3,595.4 122.1,595.4 122.1,584.3 "/>
<rect id="XMLID_15_" x="674.5" y="646.1" class="st3" width="68.4" height="66.3"/>
<rect id="XMLID_14_" x="674.5" y="579.8" class="st6" width="68.4" height="66.3"/>
<rect id="XMLID_13_" x="674.5" y="516.5" class="st3" width="68.4" height="66.3"/>
<rect id="XMLID_12_" x="674.5" y="646.1" class="st9" width="68.4" height="66.3"/>
<path id="XMLID_11_" class="st7" d="M674.5,646.1c18.9,0,34.2,14.8,34.2,33.1c0,18.3-15.3,33.1-34.2,33.1"/>
<rect id="XMLID_9_" x="667.3" y="525.1" class="st7" width="55.6" height="5.9"/>
<polygon id="XMLID_17_" class="st7" points="56.6,521 33,507.3 33,534.6 "/>
<path id="XMLID_16_" class="st8" d="M-0.4,15v62.8h56.5C56.3,39.6,35.5,14.2-0.4,15"/>
<rect id="XMLID_19_" x="37.2" y="0.9" class="st10" width="77.1" height="12.1"/>
<rect id="XMLID_18_" x="610.9" y="14" class="st11" width="116.3" height="17.7"/>
<g id="XMLID_21_">
	<defs>
		<rect id="XMLID_20_" x="-0.4" y="87.8" width="69" height="109.9"/>
	</defs>
	<clipPath id="XMLID_42_">
		<use xlink:href="#XMLID_20_"  style="overflow:visible;"/>
	</clipPath>
	<path id="XMLID_8_" class="st12" d="M57.4,114.7c-0.2,0.2-0.5,0.3-0.7,0.5c-1.6,1.1-3.3,2.2-5.5,2.2c-2.2,0-3.9-1.1-5.5-2.2
		c-1.5-1-3-2-4.9-2c-1.9,0-3.3,1-4.9,2c-1.6,1.1-3.3,2.2-5.5,2.2c-2.2,0-3.9-1.1-5.5-2.2c-1.5-1-3-2-4.9-2c-1.9,0-3.3,1-4.9,2
		c-1.6,1.1-3.3,2.2-5.5,2.2s-3.9-1.1-5.5-2.2c-1.5-1-3-2-4.9-2c-1.9,0-3.3,1-4.9,2c-1.6,1.1-3.3,2.2-5.5,2.2c-2.2,0-3.9-1.1-5.5-2.2
		c-1.5-1-3-2-4.9-2c-1.9,0-3.3,1-4.9,2c-1.6,1.1-3.3,2.2-5.5,2.2c-2.2,0-3.9-1.1-5.5-2.2c-0.2-0.2-0.5-0.3-0.7-0.5l0.6-1.4
		c0.2,0.2,0.5,0.3,0.7,0.5c1.5,1,3,2,4.9,2c1.9,0,3.3-1,4.9-2c1.6-1.1,3.3-2.2,5.5-2.2c2.2,0,3.9,1.1,5.5,2.2c1.5,1,3,2,4.9,2
		s3.3-1,4.9-2c1.6-1.1,3.3-2.2,5.5-2.2c2.2,0,3.9,1.1,5.5,2.2c1.5,1,3,2,4.9,2s3.3-1,4.9-2c1.6-1.1,3.3-2.2,5.5-2.2
		c2.2,0,3.9,1.1,5.5,2.2c1.5,1,3,2,4.9,2c1.9,0,3.3-1,4.9-2c1.6-1.1,3.3-2.2,5.5-2.2c2.2,0,3.9,1.1,5.5,2.2c1.5,1,3,2,4.9,2
		c1.9,0,3.3-1,4.9-2c0.2-0.2,0.5-0.3,0.7-0.5L57.4,114.7z"/>
	<path id="XMLID_7_" class="st12" d="M51.1,122c-2.1,0-3.8-1.1-5.4-2.2c-1.5-1-3-2-4.9-2c-1.9,0-3.3,1-4.9,2
		c-1.6,1.1-3.3,2.2-5.5,2.2s-3.9-1.1-5.5-2.2c-1.5-1-3-2-4.9-2c-1.9,0-3.3,1-4.9,2c-1.6,1.1-3.3,2.2-5.5,2.2c-2.2,0-3.9-1.1-5.5-2.2
		c-1.5-1-3-2-4.9-2c-1.9,0-3.3,1-4.9,2c-1.6,1.1-3.3,2.2-5.5,2.2c-2.2,0-3.9-1.1-5.5-2.2c-1.5-1-3-2-4.9-2c-1.9,0-3.3,1-4.9,2
		c-1.6,1-3.3,2.1-5.4,2.2l0-1.6c1.8,0,3.2-1,4.8-2c1.6-1.1,3.3-2.2,5.5-2.2c2.2,0,3.9,1.1,5.5,2.2c1.5,1,3,2,4.9,2
		c1.9,0,3.3-1,4.9-2c1.6-1.1,3.3-2.2,5.5-2.2c2.2,0,3.9,1.1,5.5,2.2c1.5,1,3,2,4.9,2c1.9,0,3.3-1,4.9-2c1.6-1.1,3.3-2.2,5.5-2.2
		c2.2,0,3.9,1.1,5.5,2.2c1.5,1,3,2,4.9,2c1.9,0,3.3-1,4.9-2c1.6-1.1,3.3-2.2,5.5-2.2c2.2,0,3.9,1.1,5.5,2.2c1.5,1,3,1.9,4.8,2
		L51.1,122z"/>
	<path id="XMLID_6_" class="st12" d="M57.4,124.2c-0.2,0.2-0.5,0.3-0.7,0.5c-1.6,1.1-3.3,2.2-5.5,2.2c-2.2,0-3.9-1.1-5.5-2.2
		c-1.5-1-3-2-4.9-2c-1.9,0-3.3,1-4.9,2c-1.6,1.1-3.3,2.2-5.5,2.2c-2.2,0-3.9-1.1-5.5-2.2c-1.5-1-3-2-4.9-2c-1.9,0-3.3,1-4.9,2
		c-1.6,1.1-3.3,2.2-5.5,2.2s-3.9-1.1-5.5-2.2c-1.5-1-3-2-4.9-2c-1.9,0-3.3,1-4.9,2c-1.6,1.1-3.3,2.2-5.5,2.2c-2.2,0-3.9-1.1-5.5-2.2
		c-1.5-1-3-2-4.9-2c-1.9,0-3.3,1-4.9,2c-1.6,1.1-3.3,2.2-5.5,2.2c-2.2,0-3.9-1.1-5.5-2.2c-0.2-0.2-0.5-0.3-0.7-0.5l0.6-1.4
		c0.2,0.2,0.5,0.3,0.7,0.5c1.5,1,3,2,4.9,2c1.9,0,3.3-1,4.9-2c1.6-1.1,3.3-2.2,5.5-2.2c2.2,0,3.9,1.1,5.5,2.2c1.5,1,3,2,4.9,2
		c1.9,0,3.3-1,4.9-2c1.6-1.1,3.3-2.2,5.5-2.2c2.2,0,3.9,1.1,5.5,2.2c1.5,1,3,2,4.9,2c1.9,0,3.3-1,4.9-2c1.6-1.1,3.3-2.2,5.5-2.2
		c2.2,0,3.9,1.1,5.5,2.2c1.5,1,3,2,4.9,2c1.9,0,3.3-1,4.9-2c1.6-1.1,3.3-2.2,5.5-2.2c2.2,0,3.9,1.1,5.5,2.2c1.5,1,3,2,4.9,2
		c1.9,0,3.3-1,4.9-2c0.2-0.2,0.5-0.3,0.7-0.5L57.4,124.2z"/>
	<path id="XMLID_5_" class="st12" d="M51.1,131.5c-2.1,0-3.8-1.1-5.4-2.2c-1.5-1-3-2-4.9-2c-1.9,0-3.3,1-4.9,2
		c-1.6,1.1-3.3,2.2-5.5,2.2s-3.9-1.1-5.5-2.2c-1.5-1-3-2-4.9-2c-1.9,0-3.3,1-4.9,2c-1.6,1.1-3.3,2.2-5.5,2.2c-2.2,0-3.9-1.1-5.5-2.2
		c-1.5-1-3-2-4.9-2c-1.9,0-3.3,1-4.9,2c-1.6,1.1-3.3,2.2-5.5,2.2c-2.2,0-3.9-1.1-5.5-2.2c-1.5-1-3-2-4.9-2c-1.9,0-3.3,1-4.9,2
		c-1.6,1-3.3,2.1-5.4,2.2l0-1.6c1.8,0,3.2-1,4.8-2c1.6-1.1,3.3-2.2,5.5-2.2c2.2,0,3.9,1.1,5.5,2.2c1.5,1,3,2,4.9,2
		c1.9,0,3.3-1,4.9-2c1.6-1.1,3.3-2.2,5.5-2.2c2.2,0,3.9,1.1,5.5,2.2c1.5,1,3,2,4.9,2c1.9,0,3.3-1,4.9-2c1.6-1.1,3.3-2.2,5.5-2.2
		c2.2,0,3.9,1.1,5.5,2.2c1.5,1,3,2,4.9,2c1.9,0,3.3-1,4.9-2c1.6-1.1,3.3-2.2,5.5-2.2c2.2,0,3.9,1.1,5.5,2.2c1.5,1,3,1.9,4.8,2
		L51.1,131.5z"/>
	<path id="XMLID_4_" class="st12" d="M57.4,134c-0.2,0.2-0.5,0.3-0.7,0.5c-1.6,1.1-3.3,2.2-5.5,2.2c-2.2,0-3.9-1.1-5.5-2.2
		c-1.5-1-3-2-4.9-2c-1.9,0-3.3,1-4.9,2c-1.6,1.1-3.3,2.2-5.5,2.2c-2.2,0-3.9-1.1-5.5-2.2c-1.5-1-3-2-4.9-2c-1.9,0-3.3,1-4.9,2
		c-1.6,1.1-3.3,2.2-5.5,2.2s-3.9-1.1-5.5-2.2c-1.5-1-3-2-4.9-2c-1.9,0-3.3,1-4.9,2c-1.6,1.1-3.3,2.2-5.5,2.2c-2.2,0-3.9-1.1-5.5-2.2
		c-1.5-1-3-2-4.9-2c-1.9,0-3.3,1-4.9,2c-1.6,1.1-3.3,2.2-5.5,2.2c-2.2,0-3.9-1.1-5.5-2.2c-0.2-0.2-0.5-0.3-0.7-0.5l0.6-1.4
		c0.2,0.2,0.5,0.3,0.7,0.5c1.5,1,3,2,4.9,2c1.9,0,3.3-1,4.9-2c1.6-1.1,3.3-2.2,5.5-2.2c2.2,0,3.9,1.1,5.5,2.2c1.5,1,3,2,4.9,2
		s3.3-1,4.9-2c1.6-1.1,3.3-2.2,5.5-2.2c2.2,0,3.9,1.1,5.5,2.2c1.5,1,3,2,4.9,2c1.9,0,3.3-1,4.9-2c1.6-1.1,3.3-2.2,5.5-2.2
		c2.2,0,3.9,1.1,5.5,2.2c1.5,1,3,2,4.9,2c1.9,0,3.3-1,4.9-2c1.6-1.1,3.3-2.2,5.5-2.2c2.2,0,3.9,1.1,5.5,2.2c1.5,1,3,2,4.9,2
		c1.9,0,3.3-1,4.9-2c0.2-0.2,0.5-0.3,0.7-0.5L57.4,134z"/>
	<path id="XMLID_3_" class="st12" d="M51.1,141.3c-2.1,0-3.8-1.1-5.4-2.2c-1.5-1-3-2-4.9-2c-1.9,0-3.3,1-4.9,2
		c-1.6,1.1-3.3,2.2-5.5,2.2s-3.9-1.1-5.5-2.2c-1.5-1-3-2-4.9-2c-1.9,0-3.3,1-4.9,2c-1.6,1.1-3.3,2.2-5.5,2.2c-2.2,0-3.9-1.1-5.5-2.2
		c-1.5-1-3-2-4.9-2c-1.9,0-3.3,1-4.9,2c-1.6,1.1-3.3,2.2-5.5,2.2c-2.2,0-3.9-1.1-5.5-2.2c-1.5-1-3-2-4.9-2c-1.9,0-3.3,1-4.9,2
		c-1.6,1-3.3,2.1-5.4,2.2l0-1.6c1.8,0,3.2-1,4.8-2c1.6-1.1,3.3-2.2,5.5-2.2c2.2,0,3.9,1.1,5.5,2.2c1.5,1,3,2,4.9,2
		c1.9,0,3.3-1,4.9-2c1.6-1.1,3.3-2.2,5.5-2.2c2.2,0,3.9,1.1,5.5,2.2c1.5,1,3,2,4.9,2c1.9,0,3.3-1,4.9-2c1.6-1.1,3.3-2.2,5.5-2.2
		c2.2,0,3.9,1.1,5.5,2.2c1.5,1,3,2,4.9,2c1.9,0,3.3-1,4.9-2c1.6-1.1,3.3-2.2,5.5-2.2c2.2,0,3.9,1.1,5.5,2.2c1.5,1,3,1.9,4.8,2
		L51.1,141.3z"/>
	<path id="XMLID_2_" class="st12" d="M57.4,143.5c-0.2,0.2-0.5,0.3-0.7,0.5c-1.6,1.1-3.3,2.2-5.5,2.2c-2.2,0-3.9-1.1-5.5-2.2
		c-1.5-1-3-2-4.9-2c-1.9,0-3.3,1-4.9,2c-1.6,1.1-3.3,2.2-5.5,2.2c-2.2,0-3.9-1.1-5.5-2.2c-1.5-1-3-2-4.9-2c-1.9,0-3.3,1-4.9,2
		c-1.6,1.1-3.3,2.2-5.5,2.2S5.9,145,4.2,144c-1.5-1-3-2-4.9-2c-1.9,0-3.3,1-4.9,2c-1.6,1.1-3.3,2.2-5.5,2.2c-2.2,0-3.9-1.1-5.5-2.2
		c-1.5-1-3-2-4.9-2c-1.9,0-3.3,1-4.9,2c-1.6,1.1-3.3,2.2-5.5,2.2c-2.2,0-3.9-1.1-5.5-2.2c-0.2-0.2-0.5-0.3-0.7-0.5l0.6-1.4
		c0.2,0.2,0.5,0.3,0.7,0.5c1.5,1,3,2,4.9,2c1.9,0,3.3-1,4.9-2c1.6-1.1,3.3-2.2,5.5-2.2c2.2,0,3.9,1.1,5.5,2.2c1.5,1,3,2,4.9,2
		c1.9,0,3.3-1,4.9-2c1.6-1.1,3.3-2.2,5.5-2.2c2.2,0,3.9,1.1,5.5,2.2c1.5,1,3,2,4.9,2c1.9,0,3.3-1,4.9-2c1.6-1.1,3.3-2.2,5.5-2.2
		c2.2,0,3.9,1.1,5.5,2.2c1.5,1,3,2,4.9,2c1.9,0,3.3-1,4.9-2c1.6-1.1,3.3-2.2,5.5-2.2c2.2,0,3.9,1.1,5.5,2.2c1.5,1,3,2,4.9,2
		c1.9,0,3.3-1,4.9-2c0.2-0.2,0.5-0.3,0.7-0.5L57.4,143.5z"/>
	<path id="XMLID_10_" class="st12" d="M51.1,150.8c-2.1,0-3.8-1.1-5.4-2.2c-1.5-1-3-2-4.9-2c-1.9,0-3.3,1-4.9,2
		c-1.6,1.1-3.3,2.2-5.5,2.2s-3.9-1.1-5.5-2.2c-1.5-1-3-2-4.9-2c-1.9,0-3.3,1-4.9,2c-1.6,1.1-3.3,2.2-5.5,2.2c-2.2,0-3.9-1.1-5.5-2.2
		c-1.5-1-3-2-4.9-2c-1.9,0-3.3,1-4.9,2c-1.6,1.1-3.3,2.2-5.5,2.2c-2.2,0-3.9-1.1-5.5-2.2c-1.5-1-3-2-4.9-2c-1.9,0-3.3,1-4.9,2
		c-1.6,1-3.3,2.1-5.4,2.2l0-1.6c1.8,0,3.2-1,4.8-2c1.6-1.1,3.3-2.2,5.5-2.2s3.9,1.1,5.5,2.2c1.5,1,3,2,4.9,2c1.9,0,3.3-1,4.9-2
		c1.6-1.1,3.3-2.2,5.5-2.2c2.2,0,3.9,1.1,5.5,2.2c1.5,1,3,2,4.9,2c1.9,0,3.3-1,4.9-2c1.6-1.1,3.3-2.2,5.5-2.2c2.2,0,3.9,1.1,5.5,2.2
		c1.5,1,3,2,4.9,2c1.9,0,3.3-1,4.9-2c1.6-1.1,3.3-2.2,5.5-2.2c2.2,0,3.9,1.1,5.5,2.2c1.5,1,3,1.9,4.8,2L51.1,150.8z"/>
</g>
<polygon id="XMLID_1839_" class="st5" points="711.9,185.5 735.4,199.2 735.5,172 "/>
<g id="XMLID_34_">
	<path id="XMLID_36_" class="st13" d="M110.5,142.5l6.6-19.7h6.9l6.6,19.7v0.2H126l-1.6-4.8h-7.9l-1.6,4.8h-4.5V142.5z M123.3,134.3
		l-1.5-4.5l-1.2-3.9h-0.4l-1.2,3.9l-1.5,4.5H123.3z"/>
	<path id="XMLID_35_" class="st13" d="M140.7,136c-0.3,0-0.6,0-1,0c-0.3,0-0.7,0-1,0c-0.1,0-0.2,0-0.3,0s-0.3,0-0.5,0
		c-0.2,0-0.3,0-0.5,0s-0.3,0-0.4,0v6.7h-4.6v-19.8c2.1-0.3,4.1-0.4,6-0.4c1.8,0,3.3,0.1,4.6,0.4c1.3,0.3,2.4,0.7,3.2,1.2
		c0.8,0.6,1.5,1.3,1.8,2.1c0.4,0.9,0.6,1.9,0.6,3.1c0,2.9-1.3,4.9-4,5.9l4.9,7.5h-5.1L140.7,136z M139.3,132.5
		c0.9,0,1.6-0.1,2.2-0.2s1.1-0.3,1.5-0.6c0.4-0.3,0.6-0.6,0.8-1c0.2-0.4,0.2-0.9,0.2-1.5c0-0.6-0.1-1.1-0.2-1.5
		c-0.2-0.4-0.4-0.8-0.8-1c-0.4-0.3-0.8-0.4-1.4-0.6s-1.3-0.2-2.2-0.2c-0.3,0-0.7,0-1.2,0.1c-0.5,0-0.8,0.1-1.1,0.1v6.2
		c0.2,0.1,0.5,0.1,0.9,0.1C138.4,132.5,138.8,132.5,139.3,132.5z"/>
	<path id="XMLID_45_" class="st13" d="M160.1,136c-0.3,0-0.6,0-1,0c-0.3,0-0.7,0-1,0c-0.1,0-0.2,0-0.3,0s-0.3,0-0.5,0
		c-0.2,0-0.3,0-0.5,0s-0.3,0-0.4,0v6.7h-4.6v-19.8c2.1-0.3,4.1-0.4,6-0.4c1.8,0,3.3,0.1,4.6,0.4c1.3,0.3,2.4,0.7,3.2,1.2
		c0.8,0.6,1.5,1.3,1.8,2.1c0.4,0.9,0.6,1.9,0.6,3.1c0,2.9-1.3,4.9-4,5.9l4.9,7.5h-5.1L160.1,136z M158.8,132.5
		c0.9,0,1.6-0.1,2.2-0.2s1.1-0.3,1.5-0.6c0.4-0.3,0.6-0.6,0.8-1c0.2-0.4,0.2-0.9,0.2-1.5c0-0.6-0.1-1.1-0.2-1.5
		c-0.2-0.4-0.4-0.8-0.8-1c-0.4-0.3-0.8-0.4-1.4-0.6s-1.3-0.2-2.2-0.2c-0.3,0-0.7,0-1.2,0.1c-0.5,0-0.8,0.1-1.1,0.1v6.2
		c0.2,0.1,0.5,0.1,0.9,0.1C157.8,132.5,158.3,132.5,158.8,132.5z"/>
	<path id="XMLID_57_" class="st13" d="M169.4,142.5l6.6-19.7h6.9l6.6,19.7v0.2H185l-1.6-4.8h-7.9l-1.6,4.8h-4.5V142.5z M182.3,134.3
		l-1.5-4.5l-1.2-3.9h-0.4l-1.2,3.9l-1.5,4.5H182.3z"/>
	<path id="XMLID_60_" class="st13" d="M197.8,143c-0.5,0-1.1,0-1.7-0.1c-0.6,0-1.2-0.1-1.9-0.2c-0.6-0.1-1.3-0.2-1.9-0.3
		c-0.6-0.1-1.2-0.2-1.8-0.4v-3.7c1.3,0.3,2.5,0.5,3.7,0.7s2.2,0.2,3.2,0.2c1.3,0,2.2-0.2,2.8-0.5c0.6-0.4,0.9-0.9,0.9-1.6
		c0-0.8-0.3-1.4-1-1.8c-0.6-0.4-1.6-0.7-2.7-0.9c-1.1-0.2-2.1-0.5-2.9-0.8c-0.8-0.3-1.5-0.7-2.1-1.2c-0.5-0.5-1-1.1-1.2-1.8
		s-0.4-1.5-0.4-2.5c0-0.9,0.2-1.7,0.5-2.5c0.4-0.7,0.9-1.3,1.6-1.8c0.7-0.5,1.5-0.9,2.5-1.2c1-0.3,2.1-0.4,3.3-0.4
		c0.4,0,0.9,0,1.3,0c0.4,0,0.9,0.1,1.4,0.1c0.5,0.1,1,0.1,1.6,0.2c0.6,0.1,1.2,0.2,1.9,0.4v3.7c-0.9-0.3-1.9-0.5-2.9-0.6
		c-1-0.2-1.9-0.2-2.8-0.2c-1.2,0-2.1,0.2-2.7,0.6s-0.9,0.9-0.9,1.6c0,0.8,0.3,1.3,0.9,1.7c0.6,0.4,1.6,0.7,3,1.1
		c1,0.2,1.9,0.5,2.7,0.8s1.5,0.7,2,1.2c0.5,0.5,1,1,1.2,1.7c0.3,0.6,0.4,1.4,0.4,2.3c0,2-0.7,3.5-2,4.6
		C202.5,142.5,200.5,143,197.8,143z"/>
	<path id="XMLID_62_" class="st13" d="M213.1,126.3h-5.8v-3.6h16.3v3.6h-5.9v16.4h-4.6V126.3z"/>
	<path id="XMLID_64_" class="st13" d="M234.3,136c-0.3,0-0.6,0-1,0c-0.3,0-0.7,0-1,0c-0.1,0-0.2,0-0.3,0s-0.3,0-0.5,0
		c-0.2,0-0.3,0-0.5,0s-0.3,0-0.4,0v6.7h-4.6v-19.8c2.1-0.3,4.1-0.4,6-0.4c1.8,0,3.3,0.1,4.6,0.4c1.3,0.3,2.4,0.7,3.2,1.2
		c0.8,0.6,1.5,1.3,1.8,2.1c0.4,0.9,0.6,1.9,0.6,3.1c0,2.9-1.3,4.9-4,5.9l4.9,7.5h-5.1L234.3,136z M232.9,132.5
		c0.9,0,1.6-0.1,2.2-0.2s1.1-0.3,1.5-0.6c0.4-0.3,0.6-0.6,0.8-1c0.2-0.4,0.2-0.9,0.2-1.5c0-0.6-0.1-1.1-0.2-1.5
		c-0.2-0.4-0.4-0.8-0.8-1c-0.4-0.3-0.8-0.4-1.4-0.6s-1.3-0.2-2.2-0.2c-0.3,0-0.7,0-1.2,0.1c-0.5,0-0.8,0.1-1.1,0.1v6.2
		c0.2,0.1,0.5,0.1,0.9,0.1C232,132.5,232.4,132.5,232.9,132.5z"/>
	<path id="XMLID_67_" class="st13" d="M245.5,122.7H260v3.6h-9.9v4.5h9v3.6h-9v4.7h10.1v3.6h-14.7V122.7z"/>
	<path id="XMLID_69_" class="st13" d="M263.4,122.7h6.3l3.8,9.8l1.3,4.1h0.2l1.3-4.1l3.8-9.8h6.3v20h-4.1v-14.8H282l-1.9,5.5
		l-3.4,8.5h-3.8l-3.4-8.5l-1.9-5.5h-0.2v14.8h-4.1V122.7z"/>
	<path id="XMLID_71_" class="st13" d="M299.1,143c-3.1,0-5.5-0.9-7.2-2.6c-1.6-1.7-2.5-4.3-2.5-7.6c0-3.4,0.8-6,2.5-7.7
		c1.6-1.7,4-2.6,7.2-2.6c3.1,0,5.5,0.9,7.2,2.6c1.6,1.7,2.5,4.3,2.5,7.7c0,3.4-0.8,5.9-2.5,7.6C304.6,142.1,302.2,143,299.1,143z
		 M299.1,139.3c0.9,0,1.7-0.1,2.3-0.3c0.6-0.2,1.1-0.6,1.5-1.1c0.4-0.5,0.7-1.2,0.8-2s0.3-1.9,0.3-3.1c0-1.2-0.1-2.2-0.3-3.1
		c-0.2-0.8-0.5-1.5-0.9-2c-0.4-0.5-0.9-0.9-1.5-1.1c-0.6-0.2-1.4-0.4-2.3-0.4s-1.6,0.1-2.3,0.4c-0.6,0.2-1.1,0.6-1.5,1.1
		c-0.4,0.5-0.7,1.2-0.9,2c-0.2,0.8-0.3,1.9-0.3,3.1c0,1.2,0.1,2.2,0.3,3.1c0.2,0.8,0.5,1.5,0.9,2c0.4,0.5,0.9,0.9,1.5,1.1
		C297.4,139.2,298.2,139.3,299.1,139.3z"/>
	<path id="XMLID_74_" class="st13" d="M318.2,143c-0.5,0-1.1,0-1.7-0.1c-0.6,0-1.2-0.1-1.9-0.2c-0.6-0.1-1.3-0.2-1.9-0.3
		c-0.6-0.1-1.2-0.2-1.8-0.4v-3.7c1.3,0.3,2.5,0.5,3.7,0.7s2.2,0.2,3.2,0.2c1.3,0,2.2-0.2,2.8-0.5c0.6-0.4,0.9-0.9,0.9-1.6
		c0-0.8-0.3-1.4-1-1.8c-0.6-0.4-1.6-0.7-2.7-0.9c-1.1-0.2-2.1-0.5-2.9-0.8c-0.8-0.3-1.5-0.7-2.1-1.2c-0.5-0.5-1-1.1-1.2-1.8
		c-0.3-0.7-0.4-1.5-0.4-2.5c0-0.9,0.2-1.7,0.5-2.5c0.4-0.7,0.9-1.3,1.6-1.8c0.7-0.5,1.5-0.9,2.5-1.2c1-0.3,2.1-0.4,3.3-0.4
		c0.4,0,0.9,0,1.3,0c0.4,0,0.9,0.1,1.4,0.1c0.5,0.1,1,0.1,1.6,0.2c0.6,0.1,1.2,0.2,1.9,0.4v3.7c-0.9-0.3-1.9-0.5-2.9-0.6
		c-1-0.2-1.9-0.2-2.8-0.2c-1.2,0-2.1,0.2-2.7,0.6c-0.6,0.4-0.9,0.9-0.9,1.6c0,0.8,0.3,1.3,0.9,1.7c0.6,0.4,1.6,0.7,3,1.1
		c1,0.2,1.9,0.5,2.7,0.8s1.5,0.7,2,1.2c0.5,0.5,1,1,1.2,1.7s0.4,1.4,0.4,2.3c0,2-0.7,3.5-2,4.6C322.8,142.5,320.8,143,318.2,143z"/>
	<path id="XMLID_76_" class="st13" d="M340.3,136.3l-7.5-13.6h5l3.8,7.4l0.8,2.1h0.2l0.8-2.1l3.8-7.4h5l-7.4,13.4v6.5h-4.6V136.3z"
		/>
	<path id="XMLID_78_" class="st13" d="M358.2,142.5l6.6-19.7h6.9l6.6,19.7v0.2h-4.5l-1.6-4.8h-7.9l-1.6,4.8h-4.5V142.5z
		 M371.1,134.3l-1.5-4.5l-1.2-3.9H368l-1.2,3.9l-1.5,4.5H371.1z"/>
	<path id="XMLID_81_" class="st13" d="M388.4,136c-0.3,0-0.6,0-1,0c-0.3,0-0.7,0-1,0c-0.1,0-0.2,0-0.3,0c-0.1,0-0.3,0-0.5,0
		c-0.2,0-0.3,0-0.5,0c-0.2,0-0.3,0-0.4,0v6.7h-4.6v-19.8c2.1-0.3,4.1-0.4,6-0.4c1.8,0,3.3,0.1,4.6,0.4c1.3,0.3,2.4,0.7,3.2,1.2
		c0.8,0.6,1.5,1.3,1.8,2.1c0.4,0.9,0.6,1.9,0.6,3.1c0,2.9-1.3,4.9-4,5.9l4.9,7.5h-5.1L388.4,136z M387.1,132.5
		c0.9,0,1.6-0.1,2.2-0.2c0.6-0.1,1.1-0.3,1.5-0.6c0.4-0.3,0.6-0.6,0.8-1s0.2-0.9,0.2-1.5c0-0.6-0.1-1.1-0.2-1.5
		c-0.2-0.4-0.4-0.8-0.8-1c-0.4-0.3-0.8-0.4-1.4-0.6s-1.3-0.2-2.2-0.2c-0.3,0-0.7,0-1.2,0.1c-0.5,0-0.8,0.1-1.1,0.1v6.2
		c0.2,0.1,0.5,0.1,0.9,0.1C386.1,132.5,386.6,132.5,387.1,132.5z"/>
	<path id="XMLID_84_" class="st13" d="M399.7,122.7h6.3l3.8,9.8l1.3,4.1h0.2l1.3-4.1l3.8-9.8h6.3v20h-4.1v-14.8h-0.2l-1.9,5.5
		l-3.4,8.5h-3.8l-3.4-8.5l-1.9-5.5h-0.2v14.8h-4.1V122.7z"/>
	<path id="XMLID_86_" class="st13" d="M426.7,122.7h14.5v3.6h-9.9v4.5h9v3.6h-9v4.7h10.1v3.6h-14.7V122.7z"/>
	<path id="XMLID_88_" class="st13" d="M444.5,122.7h3.7l8.5,10.9l1.6,2.3h0.2v-13.1h4v20h-3.7l-8.3-10.7l-1.8-2.5h-0.2v13.1h-4
		V122.7z"/>
	<path id="XMLID_90_" class="st13" d="M475.3,143c-3.2,0-5.5-0.9-7.2-2.6c-1.6-1.7-2.5-4.3-2.5-7.6c0-3.4,0.8-6,2.5-7.7
		s4-2.6,7.2-2.6c3.1,0,5.5,0.9,7.2,2.6c1.6,1.7,2.5,4.3,2.5,7.7c0,3.4-0.8,5.9-2.5,7.6C480.9,142.1,478.5,143,475.3,143z
		 M475.3,139.3c0.9,0,1.7-0.1,2.3-0.3c0.6-0.2,1.1-0.6,1.5-1.1c0.4-0.5,0.7-1.2,0.9-2c0.2-0.8,0.3-1.9,0.3-3.1
		c0-1.2-0.1-2.2-0.3-3.1c-0.2-0.8-0.5-1.5-0.9-2c-0.4-0.5-0.9-0.9-1.5-1.1c-0.6-0.2-1.4-0.4-2.3-0.4c-0.9,0-1.6,0.1-2.3,0.4
		c-0.6,0.2-1.1,0.6-1.5,1.1c-0.4,0.5-0.7,1.2-0.9,2c-0.2,0.8-0.3,1.9-0.3,3.1c0,1.2,0.1,2.2,0.3,3.1c0.2,0.8,0.5,1.5,0.8,2
		c0.4,0.5,0.9,0.9,1.5,1.1C473.7,139.2,474.4,139.3,475.3,139.3z"/>
	<path id="XMLID_93_" class="st13" d="M494.4,143c-0.5,0-1.1,0-1.7-0.1c-0.6,0-1.2-0.1-1.9-0.2c-0.6-0.1-1.3-0.2-1.9-0.3
		s-1.2-0.2-1.8-0.4v-3.7c1.3,0.3,2.5,0.5,3.7,0.7c1.2,0.2,2.2,0.2,3.2,0.2c1.3,0,2.2-0.2,2.8-0.5s0.9-0.9,0.9-1.6
		c0-0.8-0.3-1.4-1-1.8c-0.6-0.4-1.6-0.7-2.7-0.9c-1.1-0.2-2.1-0.5-2.9-0.8c-0.8-0.3-1.5-0.7-2.1-1.2c-0.5-0.5-1-1.1-1.2-1.8
		c-0.3-0.7-0.4-1.5-0.4-2.5c0-0.9,0.2-1.7,0.5-2.5c0.4-0.7,0.9-1.3,1.6-1.8c0.7-0.5,1.5-0.9,2.5-1.2c1-0.3,2.1-0.4,3.3-0.4
		c0.4,0,0.9,0,1.3,0c0.4,0,0.9,0.1,1.4,0.1c0.5,0.1,1,0.1,1.6,0.2c0.6,0.1,1.2,0.2,1.9,0.4v3.7c-0.9-0.3-1.9-0.5-2.9-0.6
		c-1-0.2-1.9-0.2-2.8-0.2c-1.2,0-2.1,0.2-2.7,0.6s-0.9,0.9-0.9,1.6c0,0.8,0.3,1.3,0.9,1.7c0.6,0.4,1.6,0.7,3,1.1
		c1,0.2,1.9,0.5,2.7,0.8c0.8,0.3,1.5,0.7,2,1.2c0.5,0.5,1,1,1.2,1.7s0.4,1.4,0.4,2.3c0,2-0.7,3.5-2,4.6
		C499.1,142.5,497.1,143,494.4,143z"/>
	<path id="XMLID_95_" class="st13" d="M511.2,122.7h14.5v3.6h-9.9v4.5h9v3.6h-9v4.7H526v3.6h-14.7V122.7z"/>
	<path id="XMLID_97_" class="st13" d="M529.1,122.7h4.6v16.4h8.6v3.6h-13.2V122.7z"/>
	<path id="XMLID_99_" class="st13" d="M550.6,122.7h6.3l3.8,9.8l1.3,4.1h0.2l1.3-4.1l3.8-9.8h6.3v20h-4.1v-14.8h-0.2l-1.9,5.5
		l-3.4,8.5h-3.8l-3.4-8.5l-1.9-5.5h-0.2v14.8h-4.1V122.7z"/>
	<path id="XMLID_101_" class="st13" d="M574.7,142.5l6.6-19.7h6.9l6.6,19.7v0.2h-4.5l-1.6-4.8h-7.9l-1.6,4.8h-4.5V142.5z
		 M587.5,134.3l-1.5-4.5l-1.2-3.9h-0.4l-1.2,3.9l-1.5,4.5H587.5z"/>
	<path id="XMLID_104_" class="st13" d="M595.8,122.9c2.1-0.3,4.1-0.4,6-0.4c1.8,0,3.4,0.1,4.7,0.4c1.3,0.3,2.4,0.7,3.2,1.3
		c0.8,0.6,1.4,1.3,1.8,2.3c0.4,0.9,0.6,2,0.6,3.3c0,2.5-0.8,4.3-2.5,5.5c-1.7,1.2-4.2,1.8-7.6,1.8c-0.3,0-0.5,0-0.8,0
		c-0.3,0-0.5,0-0.8,0v5.8h-4.6V122.9z M602.6,133.3c0.9,0,1.6-0.1,2.2-0.2c0.6-0.1,1.1-0.3,1.5-0.6c0.4-0.3,0.6-0.7,0.8-1.1
		c0.2-0.5,0.2-1,0.2-1.7c0-0.7-0.1-1.2-0.2-1.7c-0.2-0.5-0.4-0.8-0.8-1.1c-0.4-0.3-0.8-0.5-1.4-0.6c-0.6-0.1-1.3-0.2-2.2-0.2
		c-0.4,0-0.8,0-1.2,0.1c-0.5,0-0.8,0.1-1.1,0.1v7c0.3,0,0.6,0.1,1,0.1S602.3,133.3,602.6,133.3z"/>
	<path id="XMLID_107_" class="st13" d="M611.9,142.5l6.6-19.7h6.9l6.6,19.7v0.2h-4.5l-1.6-4.8h-7.9l-1.6,4.8h-4.5V142.5z
		 M624.7,134.3l-1.5-4.5l-1.2-3.9h-0.4l-1.2,3.9l-1.5,4.5H624.7z"/>
</g>
<g id="XMLID_110_">
	<path id="XMLID_111_" class="st13" d="M219.5,602.4h2.5V613h6v1.9h-8.5V602.4z"/>
	<path id="XMLID_113_" class="st13" d="M228.3,614.8l4.6-12.4h3.7l4.6,12.4v0.2h-2.5l-1.2-3.2H232l-1.2,3.2h-2.5V614.8z
		 M236.9,609.7l-1.2-3.1l-0.9-2.5h-0.2l-0.9,2.5l-1.2,3.1H236.9z"/>
	<path id="XMLID_116_" class="st13" d="M246.4,615.1c-0.3,0-0.7,0-1.1,0s-0.8-0.1-1.2-0.1c-0.4,0-0.8-0.1-1.2-0.2s-0.8-0.1-1.2-0.2
		v-2.1c0.9,0.2,1.7,0.3,2.5,0.4c0.7,0.1,1.4,0.1,2,0.1c1.8,0,2.7-0.5,2.7-1.5c0-0.3-0.1-0.6-0.2-0.8c-0.1-0.2-0.3-0.4-0.5-0.5
		s-0.5-0.3-0.8-0.3c-0.3-0.1-0.7-0.2-1.1-0.3c-0.8-0.1-1.5-0.3-2-0.6s-1-0.5-1.4-0.8c-0.4-0.3-0.6-0.7-0.8-1.1
		c-0.2-0.4-0.2-0.9-0.2-1.5c0-0.6,0.1-1.1,0.3-1.5c0.2-0.5,0.6-0.8,1-1.2c0.4-0.3,1-0.6,1.6-0.7c0.6-0.2,1.3-0.3,2.1-0.3
		c0.3,0,0.5,0,0.8,0c0.3,0,0.6,0,0.9,0.1s0.7,0.1,1,0.2c0.4,0.1,0.8,0.1,1.2,0.2v2c-0.6-0.2-1.2-0.3-1.9-0.4s-1.3-0.1-1.8-0.1
		c-0.8,0-1.5,0.1-1.9,0.4s-0.7,0.7-0.7,1.2c0,0.3,0,0.5,0.1,0.7s0.2,0.4,0.4,0.5c0.2,0.2,0.5,0.3,0.8,0.4c0.3,0.1,0.8,0.2,1.3,0.3
		c0.7,0.1,1.3,0.3,1.8,0.5c0.5,0.2,1,0.4,1.4,0.7s0.7,0.6,0.9,1c0.2,0.4,0.3,0.9,0.3,1.5c0,1.2-0.4,2.2-1.3,2.8
		C249.4,614.8,248.1,615.1,246.4,615.1z"/>
	<path id="XMLID_118_" class="st13" d="M257.7,602.4h3.4l2.7,6.5l1,2.9h0.1l1-2.9l2.7-6.5h3.4v12.6H270v-9.8h-0.1l-1.5,4l-2.3,5.3
		h-2.1l-2.4-5.3l-1.5-4h-0.1v9.8h-2.2V602.4z"/>
	<path id="XMLID_120_" class="st13" d="M273.7,614.8l4.6-12.4h3.7l4.6,12.4v0.2h-2.5l-1.2-3.2h-5.6l-1.2,3.2h-2.5V614.8z
		 M282.3,609.7l-1.2-3.1l-0.9-2.5H280l-0.9,2.5l-1.2,3.1H282.3z"/>
	<path id="XMLID_123_" class="st13" d="M288.1,602.4h2.5V613h6v1.9h-8.5V602.4z"/>
	<path id="XMLID_125_" class="st13" d="M295.4,602.4h2.7l2.8,7.6l0.8,2.6h0.2l0.8-2.6l2.8-7.6h2.7l-4.7,12.6h-3.3L295.4,602.4z"/>
	<path id="XMLID_127_" class="st13" d="M309.7,602.4h2.5v12.6h-2.5V602.4z"/>
	<path id="XMLID_129_" class="st13" d="M315.1,602.4h2l6.1,7.5l1.1,1.5h0.1v-9h2.2v12.6h-2l-6-7.4l-1.2-1.6h-0.1v9h-2.2V602.4z"/>
	<path id="XMLID_131_" class="st13" d="M328.2,614.8l4.6-12.4h3.7l4.6,12.4v0.2h-2.5l-1.2-3.2h-5.6l-1.2,3.2h-2.5V614.8z
		 M336.8,609.7l-1.2-3.1l-0.9-2.5h-0.2l-0.9,2.5l-1.2,3.1H336.8z"/>
	<path id="XMLID_134_" class="st13" d="M346.3,615.1c-0.3,0-0.7,0-1.1,0c-0.4,0-0.8-0.1-1.2-0.1c-0.4,0-0.8-0.1-1.2-0.2
		s-0.8-0.1-1.2-0.2v-2.1c0.9,0.2,1.7,0.3,2.5,0.4c0.7,0.1,1.4,0.1,2,0.1c1.8,0,2.7-0.5,2.7-1.5c0-0.3-0.1-0.6-0.2-0.8
		c-0.1-0.2-0.3-0.4-0.5-0.5s-0.5-0.3-0.8-0.3s-0.7-0.2-1.1-0.3c-0.8-0.1-1.5-0.3-2-0.6c-0.6-0.2-1-0.5-1.4-0.8s-0.6-0.7-0.8-1.1
		s-0.2-0.9-0.2-1.5c0-0.6,0.1-1.1,0.3-1.5c0.2-0.5,0.6-0.8,1-1.2c0.4-0.3,1-0.6,1.6-0.7s1.3-0.3,2.1-0.3c0.3,0,0.5,0,0.8,0
		c0.3,0,0.6,0,0.9,0.1s0.7,0.1,1,0.2c0.4,0.1,0.8,0.1,1.2,0.2v2c-0.6-0.2-1.2-0.3-1.9-0.4s-1.3-0.1-1.8-0.1c-0.8,0-1.5,0.1-1.9,0.4
		s-0.7,0.7-0.7,1.2c0,0.3,0,0.5,0.1,0.7s0.2,0.4,0.4,0.5c0.2,0.2,0.5,0.3,0.8,0.4c0.3,0.1,0.8,0.2,1.3,0.3c0.7,0.1,1.3,0.3,1.8,0.5
		c0.5,0.2,1,0.4,1.4,0.7s0.7,0.6,0.9,1c0.2,0.4,0.3,0.9,0.3,1.5c0,1.2-0.4,2.2-1.3,2.8C349.3,614.8,348,615.1,346.3,615.1z"/>
	<path id="XMLID_136_" class="st13" d="M361.5,615.1c-0.3,0-0.7,0-1.1,0c-0.4,0-0.8-0.1-1.2-0.1c-0.4,0-0.8-0.1-1.2-0.2
		s-0.8-0.1-1.2-0.2v-2.1c0.9,0.2,1.7,0.3,2.5,0.4c0.7,0.1,1.4,0.1,2,0.1c1.8,0,2.7-0.5,2.7-1.5c0-0.3-0.1-0.6-0.2-0.8
		c-0.1-0.2-0.3-0.4-0.5-0.5s-0.5-0.3-0.8-0.3c-0.3-0.1-0.7-0.2-1.1-0.3c-0.8-0.1-1.5-0.3-2-0.6c-0.6-0.2-1-0.5-1.4-0.8
		c-0.4-0.3-0.6-0.7-0.8-1.1c-0.2-0.4-0.2-0.9-0.2-1.5c0-0.6,0.1-1.1,0.3-1.5s0.6-0.8,1-1.2c0.4-0.3,1-0.6,1.6-0.7
		c0.6-0.2,1.3-0.3,2.1-0.3c0.3,0,0.5,0,0.8,0c0.3,0,0.6,0,0.9,0.1s0.7,0.1,1,0.2c0.4,0.1,0.8,0.1,1.2,0.2v2
		c-0.6-0.2-1.2-0.3-1.9-0.4s-1.3-0.1-1.8-0.1c-0.8,0-1.5,0.1-1.9,0.4s-0.7,0.7-0.7,1.2c0,0.3,0,0.5,0.1,0.7s0.2,0.4,0.4,0.5
		c0.2,0.2,0.5,0.3,0.8,0.4c0.3,0.1,0.8,0.2,1.3,0.3c0.7,0.1,1.3,0.3,1.8,0.5c0.5,0.2,1,0.4,1.4,0.7s0.7,0.6,0.9,1
		c0.2,0.4,0.3,0.9,0.3,1.5c0,1.2-0.4,2.2-1.3,2.8C364.6,614.8,363.3,615.1,361.5,615.1z"/>
	<path id="XMLID_138_" class="st13" d="M374.4,615.1c-2,0-3.5-0.5-4.6-1.6c-1.1-1.1-1.6-2.7-1.6-4.8c0-2.1,0.5-3.7,1.6-4.8
		c1.1-1.1,2.6-1.7,4.6-1.7c2,0,3.5,0.6,4.6,1.7c1.1,1.1,1.6,2.7,1.6,4.8c0,2.1-0.5,3.7-1.6,4.8C377.9,614.6,376.4,615.1,374.4,615.1
		z M374.4,613.1c0.6,0,1.2-0.1,1.6-0.2c0.5-0.2,0.8-0.4,1.1-0.8c0.3-0.4,0.5-0.8,0.7-1.4c0.1-0.6,0.2-1.2,0.2-2
		c0-1.6-0.3-2.7-0.9-3.4c-0.6-0.7-1.5-1.1-2.8-1.1c-1.3,0-2.2,0.3-2.8,1c-0.6,0.7-0.9,1.8-0.9,3.4c0,0.8,0.1,1.5,0.2,2
		c0.1,0.6,0.4,1,0.7,1.4c0.3,0.4,0.7,0.6,1.1,0.8C373.2,613,373.7,613.1,374.4,613.1z"/>
	<path id="XMLID_141_" class="st13" d="M382.8,602.4h2l6.1,7.5l1.1,1.5h0.1v-9h2.2v12.6h-2l-6-7.4l-1.2-1.6H385v9h-2.2V602.4z"/>
	<path id="XMLID_143_" class="st13" d="M399.9,614.8l4.6-12.4h3.7l4.6,12.4v0.2h-2.5l-1.2-3.2h-5.6l-1.2,3.2h-2.5V614.8z
		 M408.5,609.7l-1.2-3.1l-0.9-2.5h-0.2l-0.9,2.5l-1.2,3.1H408.5z"/>
	<path id="XMLID_146_" class="st13" d="M419.7,610.6c-0.5,0-1,0.1-1.5,0.1c-0.2,0-0.4,0-0.6,0c-0.3,0-0.5,0-0.7-0.1v4.4h-2.5v-12.5
		c1.3-0.2,2.6-0.3,3.7-0.3c2.3,0,4,0.3,5,1c1,0.7,1.6,1.7,1.6,3.2c0,1.9-0.9,3.1-2.7,3.8l3.3,4.8h-2.9L419.7,610.6z M418.6,608.7
		c0.7,0,1.2,0,1.7-0.1c0.4-0.1,0.8-0.2,1.1-0.4c0.3-0.2,0.5-0.4,0.6-0.7s0.2-0.6,0.2-1.1s-0.1-0.8-0.2-1.1c-0.1-0.3-0.3-0.5-0.6-0.7
		c-0.3-0.2-0.6-0.3-1.1-0.4c-0.4-0.1-1-0.1-1.6-0.1c-0.3,0-0.6,0-0.9,0c-0.3,0-0.6,0.1-0.8,0.1v4.3c0.1,0,0.4,0.1,0.7,0.1
		C417.8,608.7,418.2,608.7,418.6,608.7z"/>
	<path id="XMLID_149_" class="st13" d="M432.3,615.1c-4.3,0-6.5-2.1-6.5-6.4c0-4.4,2.2-6.5,6.7-6.5c0.6,0,1.2,0,1.9,0.1
		s1.3,0.2,1.8,0.3v2.1c-0.8-0.2-1.5-0.3-2-0.3c-0.6-0.1-1.1-0.1-1.5-0.1c-0.8,0-1.4,0.1-2,0.2c-0.5,0.2-1,0.4-1.3,0.8
		c-0.3,0.4-0.6,0.8-0.7,1.4s-0.2,1.2-0.2,2c0,0.8,0.1,1.5,0.2,2c0.1,0.6,0.4,1,0.7,1.4s0.7,0.6,1.2,0.8c0.5,0.2,1.1,0.2,1.8,0.2
		c0.2,0,0.5,0,0.8,0c0.3,0,0.6-0.1,0.9-0.1v-4.4h2.3v5.9c-0.3,0.1-0.6,0.2-1,0.3c-0.4,0.1-0.7,0.2-1.1,0.2c-0.4,0.1-0.7,0.1-1.1,0.1
		C432.9,615.1,432.6,615.1,432.3,615.1z"/>
	<path id="XMLID_151_" class="st13" d="M438.9,602.4h9.2v2h-6.7v3.3h6.2v2h-6.2v3.4h6.9v2h-9.4V602.4z"/>
	<path id="XMLID_153_" class="st13" d="M450.5,602.4h2l6.1,7.5l1.1,1.5h0.1v-9h2.2v12.6h-2l-6-7.4l-1.2-1.6h-0.1v9h-2.2V602.4z"/>
	<path id="XMLID_155_" class="st13" d="M467.9,604.3h-4.1v-2h10.7v2h-4.1v10.6h-2.5V604.3z"/>
	<path id="XMLID_157_" class="st13" d="M476.4,602.4h2.5v12.6h-2.5V602.4z"/>
	<path id="XMLID_159_" class="st13" d="M481.8,602.4h2l6.1,7.5l1.1,1.5h0.1v-9h2.2v12.6h-2l-6-7.4l-1.2-1.6H484v9h-2.2V602.4z"/>
	<path id="XMLID_161_" class="st13" d="M494.8,614.8l4.6-12.4h3.7l4.6,12.4v0.2h-2.5l-1.2-3.2h-5.6l-1.2,3.2h-2.5V614.8z
		 M503.4,609.7l-1.2-3.1l-0.9-2.5h-0.2l-0.9,2.5l-1.2,3.1H503.4z"/>
	<path id="XMLID_164_" class="st13" d="M512.9,615.1c-0.3,0-0.7,0-1.1,0c-0.4,0-0.8-0.1-1.2-0.1c-0.4,0-0.8-0.1-1.2-0.2
		s-0.8-0.1-1.2-0.2v-2.1c0.9,0.2,1.7,0.3,2.5,0.4c0.7,0.1,1.4,0.1,2,0.1c1.8,0,2.7-0.5,2.7-1.5c0-0.3-0.1-0.6-0.2-0.8
		c-0.1-0.2-0.3-0.4-0.5-0.5c-0.2-0.1-0.5-0.3-0.8-0.3c-0.3-0.1-0.7-0.2-1.1-0.3c-0.8-0.1-1.5-0.3-2-0.6c-0.6-0.2-1-0.5-1.4-0.8
		c-0.4-0.3-0.6-0.7-0.8-1.1s-0.2-0.9-0.2-1.5c0-0.6,0.1-1.1,0.3-1.5s0.6-0.8,1-1.2c0.4-0.3,1-0.6,1.6-0.7c0.6-0.2,1.3-0.3,2.1-0.3
		c0.3,0,0.5,0,0.8,0c0.3,0,0.6,0,0.9,0.1s0.7,0.1,1,0.2c0.4,0.1,0.8,0.1,1.2,0.2v2c-0.6-0.2-1.2-0.3-1.9-0.4
		c-0.7-0.1-1.3-0.1-1.8-0.1c-0.8,0-1.5,0.1-1.9,0.4s-0.7,0.7-0.7,1.2c0,0.3,0,0.5,0.1,0.7c0.1,0.2,0.2,0.4,0.4,0.5
		c0.2,0.2,0.5,0.3,0.8,0.4c0.3,0.1,0.8,0.2,1.3,0.3c0.7,0.1,1.3,0.3,1.8,0.5c0.5,0.2,1,0.4,1.4,0.7s0.7,0.6,0.9,1
		c0.2,0.4,0.3,0.9,0.3,1.5c0,1.2-0.4,2.2-1.3,2.8C515.9,614.8,514.6,615.1,512.9,615.1z"/>
</g>
</svg>
