<?xml version="1.0" encoding="UTF-8" standalone="no"?>
<svg
   xmlns:dc="http://purl.org/dc/elements/1.1/"
   xmlns:cc="http://creativecommons.org/ns#"
   xmlns:rdf="http://www.w3.org/1999/02/22-rdf-syntax-ns#"
   xmlns:svg="http://www.w3.org/2000/svg"
   xmlns="http://www.w3.org/2000/svg"
   xmlns:xlink="http://www.w3.org/1999/xlink"
   xmlns:sodipodi="http://sodipodi.sourceforge.net/DTD/sodipodi-0.dtd"
   xmlns:inkscape="http://www.inkscape.org/namespaces/inkscape"
   height="216.40001"
   width="744"
   xml:space="preserve"
   viewBox="74 64.5 743.99999 216.4"
   y="0px"
   x="0px"
   id="Capa_1"
   version="1.1"
   sodipodi:docname="top.svg"
   inkscape:version="0.92.4 5da689c313, 2019-01-14"><sodipodi:namedview
   pagecolor="#ffffff"
   bordercolor="#666666"
   borderopacity="1"
   objecttolerance="10"
   gridtolerance="10"
   guidetolerance="10"
   inkscape:pageopacity="0"
   inkscape:pageshadow="2"
   inkscape:window-width="1920"
   inkscape:window-height="1036"
   id="namedview1677"
   showgrid="false"
   inkscape:zoom="1.8655914"
   inkscape:cx="372"
   inkscape:cy="108.2"
   inkscape:window-x="1920"
   inkscape:window-y="44"
   inkscape:window-maximized="0"
   inkscape:current-layer="Capa_1" /><metadata
   id="metadata230"><rdf:RDF><cc:Work
       rdf:about=""><dc:format>image/svg+xml</dc:format><dc:type
         rdf:resource="http://purl.org/dc/dcmitype/StillImage" /><dc:title /></cc:Work></rdf:RDF></metadata><defs
   id="defs228" />
<style
   id="style2"
   type="text/css">
	.st0{fill:#1D8FCA;}
	.st1{fill:#E3AF3D;}
	.st2{clip-path:url(#SVGID_2_);fill:#E6B641;}
	.st3{clip-path:url(#SVGID_4_);fill:#E6B641;}
	.st4{clip-path:url(#SVGID_6_);fill:#E6B641;}
	.st5{clip-path:url(#SVGID_8_);fill:#E6B641;}
	.st6{clip-path:url(#SVGID_10_);fill:#E6B641;}
	.st7{clip-path:url(#SVGID_12_);fill:#E6B641;}
	.st8{clip-path:url(#SVGID_14_);fill:#E6B641;}
	.st9{clip-path:url(#SVGID_16_);fill:#E6B641;}
	.st10{fill:#3861A4;}
	.st11{fill:#CE847F;}
	.st12{fill:#C13A57;}
	.st13{fill:#479D6D;}
	.st14{fill:#E6B641;}
	.st15{fill:#BE3480;}
	.st16{fill:#1D8EC9;}
	.st17{fill:#CA7370;}
	.st18{fill:#DCA831;}
	.st19{clip-path:url(#SVGID_18_);fill:#FFFFFF;}
	.st20{clip-path:url(#SVGID_20_);fill:#FFFFFF;}
	.st21{clip-path:url(#SVGID_22_);fill:#FFFFFF;}
	.st22{clip-path:url(#SVGID_24_);fill:#FFFFFF;}
	.st23{clip-path:url(#SVGID_26_);fill:#FFFFFF;}
	.st24{clip-path:url(#SVGID_28_);fill:#FFFFFF;}
	.st25{clip-path:url(#SVGID_30_);fill:#FFFFFF;}
	.st26{clip-path:url(#SVGID_32_);fill:#FFFFFF;}
	.st27{fill:#FFFFFF;}
</style>
<rect
   style="fill:#ffffff;stroke-width:0.3660152"
   transform="scale(1,-1)"
   height="76.763161"
   width="743.59998"
   class="st0"
   y="-141.36398"
   x="74"
   id="XMLID_2575_" />
<path
   style="fill:#e3af3d"
   d="m 74.600002,195.1 c 22.4,0 40.499998,18.1 40.499998,40.4 0,22.3 -18.099998,40.4 -40.499998,40.4"
   class="st1"
   id="XMLID_1830_" />


<rect
   style="fill:#ce847f"
   height="5.6999998"
   width="51.700001"
   class="st11"
   y="275.20001"
   x="766.30005"
   id="XMLID_1646_" />






<path
   style="fill:#3861a4"
   d="m 818,175 c -17.3,0 -31.3,-14 -31.3,-31.3 0,-17.3 14,-31.3 31.3,-31.3"
   class="st10"
   id="XMLID_1700_" />









<path
   style="fill:#be3480"
   d="M 74.000002,78.599998 V 141.4 H 130.5 C 130.7,103.2 109.9,77.799998 74.000002,78.599998"
   class="st15"
   id="XMLID_16_" />
<rect
   style="fill:#ca7370"
   height="12.1"
   width="77.099998"
   class="st17"
   y="64.5"
   x="111.6"
   id="XMLID_19_" />
<rect
   style="fill:#dca831"
   height="17.700001"
   width="116.3"
   class="st18"
   y="77.599998"
   x="685.30005"
   id="XMLID_18_" />
<g
   transform="translate(0.40000153,-0.90000153)"
   id="XMLID_21_">
	<g
   id="g107">
		<defs
   id="defs101">
			<rect
   height="109.9"
   width="69"
   y="152.3"
   x="73.599998"
   id="SVGID_17_" />
		</defs>
		<clipPath
   id="SVGID_18_">
			<use
   height="100%"
   width="100%"
   y="0"
   x="0"
   id="use103"
   style="overflow:visible"
   xlink:href="#SVGID_17_" />
		</clipPath>
		<path
   style="fill:#ffffff"
   clip-path="url(#SVGID_18_)"
   d="m 131.4,179.2 c -0.2,0.2 -0.5,0.3 -0.7,0.5 -1.6,1.1 -3.3,2.2 -5.5,2.2 -2.2,0 -3.9,-1.1 -5.5,-2.2 -1.5,-1 -3,-2 -4.9,-2 -1.9,0 -3.3,1 -4.9,2 -1.6,1.1 -3.3,2.2 -5.5,2.2 -2.2,0 -3.9,-1.1 -5.5,-2.2 -1.5,-1 -3,-2 -4.9,-2 -1.9,0 -3.3,1 -4.9,2 -1.6,1.1 -3.3,2.2 -5.5,2.2 -2.2,0 -3.9,-1.1 -5.5,-2.2 -1.5,-1 -3,-2 -4.9,-2 -1.9,0 -3.3,1 -4.9,2 -1.6,1.1 -3.3,2.2 -5.5,2.2 -2.2,0 -3.9,-1.1 -5.5,-2.2 -1.5,-1 -3,-2 -4.9,-2 -1.9,0 -3.3,1 -4.9,2 -1.6,1.1 -3.3,2.2 -5.5,2.2 -2.2,0 -3.9,-1.1 -5.5,-2.2 -0.2,-0.2 -0.5,-0.3 -0.7,-0.5 l 0.6,-1.4 c 0.2,0.2 0.5,0.3 0.7,0.5 1.5,1 3,2 4.9,2 1.9,0 3.3,-1 4.9,-2 1.6,-1.1 3.3,-2.2 5.5,-2.2 2.2,0 3.9,1.1 5.5,2.2 1.5,1 3,2 4.9,2 1.9,0 3.3,-1 4.9,-2 1.6,-1.1 3.3,-2.2 5.5,-2.2 2.2,0 3.9,1.1 5.5,2.2 1.5,1 3,2 4.9,2 1.9,0 3.3,-1 4.9,-2 1.6,-1.1 3.3,-2.2 5.5,-2.2 2.2,0 3.9,1.1 5.5,2.2 1.5,1 3,2 4.9,2 1.9,0 3.3,-1 4.9,-2 1.6,-1.1 3.3,-2.2 5.5,-2.2 2.2,0 3.9,1.1 5.5,2.2 1.5,1 3,2 4.9,2 1.9,0 3.3,-1 4.9,-2 0.2,-0.2 0.5,-0.3 0.7,-0.5 z"
   class="st19"
   id="XMLID_8_" />
	</g>
	<g
   id="g116">
		<defs
   id="defs110">
			<rect
   height="109.9"
   width="69"
   y="152.3"
   x="73.599998"
   id="SVGID_19_" />
		</defs>
		<clipPath
   id="SVGID_20_">
			<use
   height="100%"
   width="100%"
   y="0"
   x="0"
   id="use112"
   style="overflow:visible"
   xlink:href="#SVGID_19_" />
		</clipPath>
		<path
   style="fill:#ffffff"
   clip-path="url(#SVGID_20_)"
   d="m 125.1,186.5 c -2.1,0 -3.8,-1.1 -5.4,-2.2 -1.5,-1 -3,-2 -4.9,-2 -1.9,0 -3.3,1 -4.9,2 -1.6,1.1 -3.3,2.2 -5.5,2.2 -2.2,0 -3.9,-1.1 -5.5,-2.2 -1.5,-1 -3,-2 -4.9,-2 -1.9,0 -3.3,1 -4.9,2 -1.6,1.1 -3.3,2.2 -5.5,2.2 -2.2,0 -3.9,-1.1 -5.5,-2.2 -1.5,-1 -3,-2 -4.9,-2 -1.9,0 -3.3,1 -4.9,2 -1.6,1.1 -3.3,2.2 -5.5,2.2 -2.2,0 -3.9,-1.1 -5.5,-2.2 -1.5,-1 -3,-2 -4.9,-2 -1.9,0 -3.3,1 -4.9,2 -1.6,1 -3.3,2.1 -5.4,2.2 v -1.6 c 1.8,0 3.2,-1 4.8,-2 1.6,-1.1 3.3,-2.2 5.5,-2.2 2.2,0 3.9,1.1 5.5,2.2 1.5,1 3,2 4.9,2 1.9,0 3.3,-1 4.9,-2 1.6,-1.1 3.3,-2.2 5.5,-2.2 2.2,0 3.9,1.1 5.5,2.2 1.5,1 3,2 4.9,2 1.9,0 3.3,-1 4.9,-2 1.6,-1.1 3.3,-2.2 5.5,-2.2 2.2,0 3.9,1.1 5.5,2.2 1.5,1 3,2 4.9,2 1.9,0 3.3,-1 4.9,-2 1.6,-1.1 3.3,-2.2 5.5,-2.2 2.2,0 3.9,1.1 5.5,2.2 1.5,1 3,1.9 4.8,2 z"
   class="st20"
   id="XMLID_7_" />
	</g>
	<g
   id="g125">
		<defs
   id="defs119">
			<rect
   height="109.9"
   width="69"
   y="152.3"
   x="73.599998"
   id="SVGID_21_" />
		</defs>
		<clipPath
   id="SVGID_22_">
			<use
   height="100%"
   width="100%"
   y="0"
   x="0"
   id="use121"
   style="overflow:visible"
   xlink:href="#SVGID_21_" />
		</clipPath>
		<path
   style="fill:#ffffff"
   clip-path="url(#SVGID_22_)"
   d="m 131.4,188.7 c -0.2,0.2 -0.5,0.3 -0.7,0.5 -1.6,1.1 -3.3,2.2 -5.5,2.2 -2.2,0 -3.9,-1.1 -5.5,-2.2 -1.5,-1 -3,-2 -4.9,-2 -1.9,0 -3.3,1 -4.9,2 -1.6,1.1 -3.3,2.2 -5.5,2.2 -2.2,0 -3.9,-1.1 -5.5,-2.2 -1.5,-1 -3,-2 -4.9,-2 -1.9,0 -3.3,1 -4.9,2 -1.6,1.1 -3.3,2.2 -5.5,2.2 -2.2,0 -3.9,-1.1 -5.5,-2.2 -1.5,-1 -3,-2 -4.9,-2 -1.9,0 -3.3,1 -4.9,2 -1.6,1.1 -3.3,2.2 -5.5,2.2 -2.2,0 -3.9,-1.1 -5.5,-2.2 -1.5,-1 -3,-2 -4.9,-2 -1.9,0 -3.3,1 -4.9,2 -1.6,1.1 -3.3,2.2 -5.5,2.2 -2.2,0 -3.9,-1.1 -5.5,-2.2 -0.2,-0.2 -0.5,-0.3 -0.7,-0.5 l 0.6,-1.4 c 0.2,0.2 0.5,0.3 0.7,0.5 1.5,1 3,2 4.9,2 1.9,0 3.3,-1 4.9,-2 1.6,-1.1 3.3,-2.2 5.5,-2.2 2.2,0 3.9,1.1 5.5,2.2 1.5,1 3,2 4.9,2 1.9,0 3.3,-1 4.9,-2 1.6,-1.1 3.3,-2.2 5.5,-2.2 2.2,0 3.9,1.1 5.5,2.2 1.5,1 3,2 4.9,2 1.9,0 3.3,-1 4.9,-2 1.6,-1.1 3.3,-2.2 5.5,-2.2 2.2,0 3.9,1.1 5.5,2.2 1.5,1 3,2 4.9,2 1.9,0 3.3,-1 4.9,-2 1.6,-1.1 3.3,-2.2 5.5,-2.2 2.2,0 3.9,1.1 5.5,2.2 1.5,1 3,2 4.9,2 1.9,0 3.3,-1 4.9,-2 0.2,-0.2 0.5,-0.3 0.7,-0.5 z"
   class="st21"
   id="XMLID_6_" />
	</g>
	<g
   id="g134">
		<defs
   id="defs128">
			<rect
   height="109.9"
   width="69"
   y="152.3"
   x="73.599998"
   id="SVGID_23_" />
		</defs>
		<clipPath
   id="SVGID_24_">
			<use
   height="100%"
   width="100%"
   y="0"
   x="0"
   id="use130"
   style="overflow:visible"
   xlink:href="#SVGID_23_" />
		</clipPath>
		<path
   style="fill:#ffffff"
   clip-path="url(#SVGID_24_)"
   d="m 125.1,196 c -2.1,0 -3.8,-1.1 -5.4,-2.2 -1.5,-1 -3,-2 -4.9,-2 -1.9,0 -3.3,1 -4.9,2 -1.6,1.1 -3.3,2.2 -5.5,2.2 -2.2,0 -3.9,-1.1 -5.5,-2.2 -1.5,-1 -3,-2 -4.9,-2 -1.9,0 -3.3,1 -4.9,2 -1.6,1.1 -3.3,2.2 -5.5,2.2 -2.2,0 -3.9,-1.1 -5.5,-2.2 -1.5,-1 -3,-2 -4.9,-2 -1.9,0 -3.3,1 -4.9,2 -1.6,1.1 -3.3,2.2 -5.5,2.2 -2.2,0 -3.9,-1.1 -5.5,-2.2 -1.5,-1 -3,-2 -4.9,-2 -1.9,0 -3.3,1 -4.9,2 -1.6,1 -3.3,2.1 -5.4,2.2 v -1.6 c 1.8,0 3.2,-1 4.8,-2 1.6,-1.1 3.3,-2.2 5.5,-2.2 2.2,0 3.9,1.1 5.5,2.2 1.5,1 3,2 4.9,2 1.9,0 3.3,-1 4.9,-2 1.6,-1.1 3.3,-2.2 5.5,-2.2 2.2,0 3.9,1.1 5.5,2.2 1.5,1 3,2 4.9,2 1.9,0 3.3,-1 4.9,-2 1.6,-1.1 3.3,-2.2 5.5,-2.2 2.2,0 3.9,1.1 5.5,2.2 1.5,1 3,2 4.9,2 1.9,0 3.3,-1 4.9,-2 1.6,-1.1 3.3,-2.2 5.5,-2.2 2.2,0 3.9,1.1 5.5,2.2 1.5,1 3,1.9 4.8,2 z"
   class="st22"
   id="XMLID_5_" />
	</g>
	<g
   id="g143">
		<defs
   id="defs137">
			<rect
   height="109.9"
   width="69"
   y="152.3"
   x="73.599998"
   id="SVGID_25_" />
		</defs>
		<clipPath
   id="SVGID_26_">
			<use
   height="100%"
   width="100%"
   y="0"
   x="0"
   id="use139"
   style="overflow:visible"
   xlink:href="#SVGID_25_" />
		</clipPath>
		<path
   style="fill:#ffffff"
   clip-path="url(#SVGID_26_)"
   d="m 131.4,198.5 c -0.2,0.2 -0.5,0.3 -0.7,0.5 -1.6,1.1 -3.3,2.2 -5.5,2.2 -2.2,0 -3.9,-1.1 -5.5,-2.2 -1.5,-1 -3,-2 -4.9,-2 -1.9,0 -3.3,1 -4.9,2 -1.6,1.1 -3.3,2.2 -5.5,2.2 -2.2,0 -3.9,-1.1 -5.5,-2.2 -1.5,-1 -3,-2 -4.9,-2 -1.9,0 -3.3,1 -4.9,2 -1.6,1.1 -3.3,2.2 -5.5,2.2 -2.2,0 -3.9,-1.1 -5.5,-2.2 -1.5,-1 -3,-2 -4.9,-2 -1.9,0 -3.3,1 -4.9,2 -1.6,1.1 -3.3,2.2 -5.5,2.2 -2.2,0 -3.9,-1.1 -5.5,-2.2 -1.5,-1 -3,-2 -4.9,-2 -1.9,0 -3.3,1 -4.9,2 -1.6,1.1 -3.3,2.2 -5.5,2.2 -2.2,0 -3.9,-1.1 -5.5,-2.2 -0.2,-0.2 -0.5,-0.3 -0.7,-0.5 l 0.6,-1.4 c 0.2,0.2 0.5,0.3 0.7,0.5 1.5,1 3,2 4.9,2 1.9,0 3.3,-1 4.9,-2 1.6,-1.1 3.3,-2.2 5.5,-2.2 2.2,0 3.9,1.1 5.5,2.2 1.5,1 3,2 4.9,2 1.9,0 3.3,-1 4.9,-2 1.6,-1.1 3.3,-2.2 5.5,-2.2 2.2,0 3.9,1.1 5.5,2.2 1.5,1 3,2 4.9,2 1.9,0 3.3,-1 4.9,-2 1.6,-1.1 3.3,-2.2 5.5,-2.2 2.2,0 3.9,1.1 5.5,2.2 1.5,1 3,2 4.9,2 1.9,0 3.3,-1 4.9,-2 1.6,-1.1 3.3,-2.2 5.5,-2.2 2.2,0 3.9,1.1 5.5,2.2 1.5,1 3,2 4.9,2 1.9,0 3.3,-1 4.9,-2 0.2,-0.2 0.5,-0.3 0.7,-0.5 z"
   class="st23"
   id="XMLID_4_" />
	</g>
	<g
   id="g152">
		<defs
   id="defs146">
			<rect
   height="109.9"
   width="69"
   y="152.3"
   x="73.599998"
   id="SVGID_27_" />
		</defs>
		<clipPath
   id="SVGID_28_">
			<use
   height="100%"
   width="100%"
   y="0"
   x="0"
   id="use148"
   style="overflow:visible"
   xlink:href="#SVGID_27_" />
		</clipPath>
		<path
   style="fill:#ffffff"
   clip-path="url(#SVGID_28_)"
   d="m 125.1,205.8 c -2.1,0 -3.8,-1.1 -5.4,-2.2 -1.5,-1 -3,-2 -4.9,-2 -1.9,0 -3.3,1 -4.9,2 -1.6,1.1 -3.3,2.2 -5.5,2.2 -2.2,0 -3.9,-1.1 -5.5,-2.2 -1.5,-1 -3,-2 -4.9,-2 -1.9,0 -3.3,1 -4.9,2 -1.6,1.1 -3.3,2.2 -5.5,2.2 -2.2,0 -3.9,-1.1 -5.5,-2.2 -1.5,-1 -3,-2 -4.9,-2 -1.9,0 -3.3,1 -4.9,2 -1.6,1.1 -3.3,2.2 -5.5,2.2 -2.2,0 -3.9,-1.1 -5.5,-2.2 -1.5,-1 -3,-2 -4.9,-2 -1.9,0 -3.3,1 -4.9,2 -1.6,1 -3.3,2.1 -5.4,2.2 v -1.6 c 1.8,0 3.2,-1 4.8,-2 1.6,-1.1 3.3,-2.2 5.5,-2.2 2.2,0 3.9,1.1 5.5,2.2 1.5,1 3,2 4.9,2 1.9,0 3.3,-1 4.9,-2 1.6,-1.1 3.3,-2.2 5.5,-2.2 2.2,0 3.9,1.1 5.5,2.2 1.5,1 3,2 4.9,2 1.9,0 3.3,-1 4.9,-2 1.6,-1.1 3.3,-2.2 5.5,-2.2 2.2,0 3.9,1.1 5.5,2.2 1.5,1 3,2 4.9,2 1.9,0 3.3,-1 4.9,-2 1.6,-1.1 3.3,-2.2 5.5,-2.2 2.2,0 3.9,1.1 5.5,2.2 1.5,1 3,1.9 4.8,2 z"
   class="st24"
   id="XMLID_3_" />
	</g>
	<g
   id="g161">
		<defs
   id="defs155">
			<rect
   height="109.9"
   width="69"
   y="152.3"
   x="73.599998"
   id="SVGID_29_" />
		</defs>
		<clipPath
   id="SVGID_30_">
			<use
   height="100%"
   width="100%"
   y="0"
   x="0"
   id="use157"
   style="overflow:visible"
   xlink:href="#SVGID_29_" />
		</clipPath>
		<path
   style="fill:#ffffff"
   clip-path="url(#SVGID_30_)"
   d="m 131.4,208 c -0.2,0.2 -0.5,0.3 -0.7,0.5 -1.6,1.1 -3.3,2.2 -5.5,2.2 -2.2,0 -3.9,-1.1 -5.5,-2.2 -1.5,-1 -3,-2 -4.9,-2 -1.9,0 -3.3,1 -4.9,2 -1.6,1.1 -3.3,2.2 -5.5,2.2 -2.2,0 -3.9,-1.1 -5.5,-2.2 -1.5,-1 -3,-2 -4.9,-2 -1.9,0 -3.3,1 -4.9,2 -1.6,1.1 -3.3,2.2 -5.5,2.2 -2.2,0 -3.7,-1.2 -5.4,-2.2 -1.5,-1 -3,-2 -4.9,-2 -1.9,0 -3.3,1 -4.9,2 -1.6,1.1 -3.3,2.2 -5.5,2.2 -2.2,0 -3.9,-1.1 -5.5,-2.2 -1.5,-1 -3,-2 -4.9,-2 -1.9,0 -3.3,1 -4.9,2 -1.6,1.1 -3.3,2.2 -5.5,2.2 -2.2,0 -3.9,-1.1 -5.5,-2.2 -0.2,-0.2 -0.5,-0.3 -0.7,-0.5 l 0.6,-1.4 c 0.2,0.2 0.5,0.3 0.7,0.5 1.5,1 3,2 4.9,2 1.9,0 3.3,-1 4.9,-2 1.6,-1.1 3.3,-2.2 5.5,-2.2 2.2,0 3.9,1.1 5.5,2.2 1.5,1 3,2 4.9,2 1.9,0 3.3,-1 4.9,-2 1.6,-1.1 3.3,-2.2 5.5,-2.2 2.2,0 3.9,1.1 5.5,2.2 1.5,1 3,2 4.9,2 1.9,0 3.3,-1 4.9,-2 1.6,-1.1 3.3,-2.2 5.5,-2.2 2.2,0 3.9,1.1 5.5,2.2 1.5,1 3,2 4.9,2 1.9,0 3.3,-1 4.9,-2 1.6,-1.1 3.3,-2.2 5.5,-2.2 2.2,0 3.9,1.1 5.5,2.2 1.5,1 3,2 4.9,2 1.9,0 3.3,-1 4.9,-2 0.2,-0.2 0.5,-0.3 0.7,-0.5 z"
   class="st25"
   id="XMLID_2_" />
	</g>
	<g
   id="g170">
		<defs
   id="defs164">
			<rect
   height="109.9"
   width="69"
   y="152.3"
   x="73.599998"
   id="SVGID_31_" />
		</defs>
		<clipPath
   id="SVGID_32_">
			<use
   height="100%"
   width="100%"
   y="0"
   x="0"
   id="use166"
   style="overflow:visible"
   xlink:href="#SVGID_31_" />
		</clipPath>
		<path
   style="fill:#ffffff"
   clip-path="url(#SVGID_32_)"
   d="m 125.1,215.3 c -2.1,0 -3.8,-1.1 -5.4,-2.2 -1.5,-1 -3,-2 -4.9,-2 -1.9,0 -3.3,1 -4.9,2 -1.6,1.1 -3.3,2.2 -5.5,2.2 -2.2,0 -3.9,-1.1 -5.5,-2.2 -1.5,-1 -3,-2 -4.9,-2 -1.9,0 -3.3,1 -4.9,2 -1.6,1.1 -3.3,2.2 -5.5,2.2 -2.2,0 -3.9,-1.1 -5.5,-2.2 -1.5,-1 -3,-2 -4.9,-2 -1.9,0 -3.3,1 -4.9,2 -1.6,1.1 -3.3,2.2 -5.5,2.2 -2.2,0 -3.9,-1.1 -5.5,-2.2 -1.5,-1 -3,-2 -4.9,-2 -1.9,0 -3.3,1 -4.9,2 -1.6,1 -3.3,2.1 -5.4,2.2 v -1.6 c 1.8,0 3.2,-1 4.8,-2 1.6,-1.1 3.3,-2.2 5.5,-2.2 2.2,0 3.9,1.1 5.5,2.2 1.5,1 3,2 4.9,2 1.9,0 3.3,-1 4.9,-2 1.6,-1.1 3.3,-2.2 5.5,-2.2 2.2,0 3.9,1.1 5.5,2.2 1.5,1 3,2 4.9,2 1.9,0 3.3,-1 4.9,-2 1.6,-1.1 3.3,-2.2 5.5,-2.2 2.2,0 3.9,1.1 5.5,2.2 1.5,1 3,2 4.9,2 1.9,0 3.3,-1 4.9,-2 1.6,-1.1 3.3,-2.2 5.5,-2.2 2.2,0 3.9,1.1 5.5,2.2 1.5,1 3,1.9 4.8,2 z"
   class="st26"
   id="XMLID_10_" />
	</g>
</g>
<polygon
   transform="translate(0.40000153,-0.90000153)"
   style="fill:#c13a57"
   points="809.5,236.5 785.9,250 809.4,263.7 "
   class="st12"
   id="XMLID_1839_" />


</svg>