<?xml version="1.0" encoding="UTF-8" standalone="no"?>
<!-- Generator: Adobe Illustrator 19.0.0, SVG Export Plug-In . SVG Version: 6.00 Build 0)  -->

<svg
   xmlns:dc="http://purl.org/dc/elements/1.1/"
   xmlns:cc="http://creativecommons.org/ns#"
   xmlns:rdf="http://www.w3.org/1999/02/22-rdf-syntax-ns#"
   xmlns:svg="http://www.w3.org/2000/svg"
   xmlns="http://www.w3.org/2000/svg"
   xmlns:sodipodi="http://sodipodi.sourceforge.net/DTD/sodipodi-0.dtd"
   xmlns:inkscape="http://www.inkscape.org/namespaces/inkscape"
   version="1.1"
   id="Capa_1"
   x="0px"
   y="0px"
   viewBox="0 0 512 512"
   style="enable-background:new 0 0 512 512;"
   xml:space="preserve"
   sodipodi:docname="fruit.svg"
   inkscape:version="0.92.5 (2060ec1f9f, 2020-04-08)"><metadata
   id="metadata151"><rdf:RDF><cc:Work
       rdf:about=""><dc:format>image/svg+xml</dc:format><dc:type
         rdf:resource="http://purl.org/dc/dcmitype/StillImage" /></cc:Work></rdf:RDF></metadata><defs
   id="defs149"><marker
     inkscape:stockid="SemiCircleIn"
     orient="auto"
     refY="0.0"
     refX="0.0"
     id="SemiCircleIn"
     style="overflow:visible"
     inkscape:isstock="true"><path
       id="path4879"
       d="M -0.37450702,-0.045692580 C -0.37450702,2.7143074 1.8654930,4.9543074 4.6254930,4.9543074 L 4.6254930,-5.0456926 C 1.8654930,-5.0456926 -0.37450702,-2.8056926 -0.37450702,-0.045692580 z "
       style="fill-rule:evenodd;stroke:none;stroke-width:1pt;stroke-opacity:1;fill:#000000;fill-opacity:1"
       transform="scale(0.6)" /></marker><marker
     inkscape:stockid="DotL"
     orient="auto"
     refY="0.0"
     refX="0.0"
     id="marker4985"
     style="overflow:visible"
     inkscape:isstock="true"><path
       id="path4983"
       d="M -2.5,-1.0 C -2.5,1.7600000 -4.7400000,4.0 -7.5,4.0 C -10.260000,4.0 -12.5,1.7600000 -12.5,-1.0 C -12.5,-3.7600000 -10.260000,-6.0 -7.5,-6.0 C -4.7400000,-6.0 -2.5,-3.7600000 -2.5,-1.0 z "
       style="fill-rule:evenodd;stroke:none;stroke-width:1pt;stroke-opacity:1;fill:#000000;fill-opacity:1"
       transform="scale(0.8) translate(7.4, 1)" /></marker><marker
     inkscape:stockid="DotL"
     orient="auto"
     refY="0.0"
     refX="0.0"
     id="DotL"
     style="overflow:visible"
     inkscape:isstock="true"><path
       id="path4762"
       d="M -2.5,-1.0 C -2.5,1.7600000 -4.7400000,4.0 -7.5,4.0 C -10.260000,4.0 -12.5,1.7600000 -12.5,-1.0 C -12.5,-3.7600000 -10.260000,-6.0 -7.5,-6.0 C -4.7400000,-6.0 -2.5,-3.7600000 -2.5,-1.0 z "
       style="fill-rule:evenodd;stroke:none;stroke-width:1pt;stroke-opacity:1;fill:#000000;fill-opacity:1"
       transform="scale(0.8) translate(7.4, 1)" /></marker><inkscape:path-effect
     effect="sketch"
     id="path-effect994"
     is_visible="true"
     nbiter_approxstrokes="5"
     strokelength="100"
     strokelength_rdm="0.3;1"
     strokeoverlap="0.3"
     strokeoverlap_rdm="0.3;1"
     ends_tolerance="0.1;1"
     parallel_offset="5;1"
     tremble_size="5;1"
     tremble_frequency="1"
     nbtangents="5"
     tgt_places_rdmness="1;1"
     tgtscale="10"
     tgtlength="100"
     tgtlength_rdm="0.3;1" /><inkscape:path-effect
     effect="interpolate"
     id="path-effect992"
     is_visible="true"
     trajectory="M 0,0 V 0"
     equidistant_spacing="true"
     steps="5" /></defs><sodipodi:namedview
   pagecolor="#ffffff"
   bordercolor="#666666"
   borderopacity="1"
   objecttolerance="10"
   gridtolerance="10"
   guidetolerance="10"
   inkscape:pageopacity="0"
   inkscape:pageshadow="2"
   inkscape:window-width="1920"
   inkscape:window-height="1036"
   id="namedview147"
   showgrid="false"
   inkscape:zoom="0.921875"
   inkscape:cx="148.41405"
   inkscape:cy="360.49347"
   inkscape:window-x="1920"
   inkscape:window-y="44"
   inkscape:window-maximized="0"
   inkscape:current-layer="Capa_1" />
<circle
   style="fill:#F7F0E6;"
   cx="255.999"
   cy="255.96"
   r="248.46"
   id="circle2" />
<circle
   style="fill:#EEE2D4;"
   cx="255.999"
   cy="255.96"
   r="222.76"
   id="circle4" />
<circle
   style="fill:#FFAF5D;"
   cx="255.999"
   cy="255.96"
   r="197.06"
   id="circle6" />
<circle
   style="fill:#FFBE64;"
   cx="255.999"
   cy="255.96"
   r="171.35"
   id="circle8" />
<g
   id="g28">
	<circle
   style="fill:#FACC88;"
   cx="277.419"
   cy="298.8"
   r="25.703"
   id="circle10" />
	<circle
   style="fill:#FACC88;"
   cx="366.289"
   cy="277.72"
   r="17.473"
   id="circle12" />
	<circle
   style="fill:#FACC88;"
   cx="212.779"
   cy="117.79"
   r="17.473"
   id="circle14" />
	<circle
   style="fill:#FACC88;"
   cx="111.779"
   cy="208.13"
   r="14.286"
   id="circle16" />
	<circle
   style="fill:#FACC88;"
   cx="313.829"
   cy="380.93"
   r="17.473"
   id="circle18" />
	<circle
   style="fill:#FACC88;"
   cx="344.529"
   cy="153.88"
   r="21.386"
   id="circle20" />
	<circle
   style="fill:#FACC88;"
   cx="169.229"
   cy="341.98"
   r="17.473"
   id="circle22" />
	<circle
   style="fill:#FACC88;"
   cx="274.559"
   cy="167.43"
   r="25.703"
   id="circle24" />
	<circle
   style="fill:#FACC88;"
   cx="202.429"
   cy="265.24"
   r="32.11"
   id="circle26" />
</g>
<g
   id="g36">
	<path
   style="fill:#87CD6E;"
   d="M210.234,307.152c8.749,18.661,20.078,34.062,31.638,44.371c2.184,1.947,5.608,0.342,5.508-2.582   c-0.531-15.479-5.124-34.038-13.873-52.7c-8.749-18.661-20.078-34.062-31.638-44.371c-2.184-1.947-5.608-0.342-5.508,2.582   C196.892,269.931,201.485,288.49,210.234,307.152z"
   id="path30" />
	<path
   style="fill:#87CD6E;"
   d="M274.039,181.774c-4.836,16.848-5.633,33.207-3.075,46.513c0.52,2.707,3.802,3.704,5.681,1.686   c9.242-9.926,17.258-24.235,22.1-41.108c4.835-16.848,5.633-33.207,3.075-46.513c-0.52-2.707-3.802-3.704-5.681-1.686   C286.898,150.592,278.882,164.901,274.039,181.774z"
   id="path32" />
	<path
   style="fill:#87CD6E;"
   d="M327.311,272.307c-17.244,11.305-30.893,24.704-39.463,37.61c-1.629,2.453,0.482,5.582,3.381,5.065   c15.241-2.719,32.95-9.887,50.174-21.179c17.244-11.305,30.893-24.704,39.463-37.61c1.629-2.453-0.482-5.582-3.381-5.065   C362.245,253.847,344.535,261.016,327.311,272.307z"
   id="path34" />
</g>
<path
   style="fill:#EEE2D4;"
   d="M147.567,208.849c0.478,2.009,1.187,5.062,4.032,8.19c11.411-30.537,35.779-54.663,66.475-65.746  c-2.384-1.851-5.339-2.925-9.339-3.611c-2.053-0.352-4.034-0.838-6.02-1.074c-22.298-2.65-43.408-11.418-59.286-27.296L36.635,12.52  c-7.352-7.362-19.755-6.627-26.099,2.204c-4.984,6.936-3.498,16.659,2.541,22.699l106.119,106.119  c15.878,15.878,24.646,36.988,27.296,59.286C146.729,204.815,147.085,206.823,147.567,208.849z"
   id="path38" />
<path
   d="M436.991,75.046c-48.344-48.345-112.622-74.97-180.992-74.97c-59.432,0-117.011,20.702-162.734,58.391L42.018,7.22  c-5.117-5.123-12.196-7.723-19.421-7.139C15.376,0.666,8.789,4.409,4.521,10.349c-6.923,9.637-5.492,23.557,3.33,32.378  l50.577,50.577c-37.697,45.733-58.39,103.268-58.39,162.735c0,68.37,26.625,132.648,74.97,180.992  C123.352,485.376,187.629,512,255.999,512s132.647-26.625,180.992-74.97c48.345-48.344,74.97-112.622,74.97-180.992  S485.336,123.39,436.991,75.046z M16.704,19.1c1.718-2.391,4.241-3.836,7.105-4.068c2.821-0.228,5.597,0.787,7.599,2.792  l99.892,99.892c17.916,17.916,41.49,29.379,68.59,33.501c-20.669,11.073-37.654,28.044-48.717,48.684  c-4.126-27.088-15.587-50.652-33.497-68.561L18.457,32.12C14.833,28.495,14.063,22.777,16.704,19.1z M426.385,426.424  C380.873,471.936,320.362,497,255.999,497s-124.874-25.064-170.386-70.576S15.037,320.401,15.037,256.038  c0-55.498,19.152-109.203,54.055-152.07l25.885,25.886c-59.622,75.872-58.051,183.463,4.384,257.677  c1.483,1.763,3.606,2.672,5.743,2.672c1.704,0,3.418-0.578,4.824-1.761c3.17-2.667,3.578-7.398,0.911-10.567  c-57.461-68.303-59.278-167.11-5.167-237.326l1.396,1.396c17.438,17.437,27.919,41.194,30.312,68.702  c0.186,2.141,0.476,4.312,0.861,6.453c0.587,3.263,1.438,6.513,2.524,9.667c-0.445,1.76-0.866,3.529-1.232,5.32  c-0.831,4.058,1.786,8.021,5.844,8.851c0.507,0.104,1.013,0.154,1.511,0.154c3.488,0,6.613-2.447,7.34-5.998  c8.172-39.936,39.158-71.503,78.94-80.421c4.042-0.906,6.584-4.917,5.678-8.959s-4.919-6.584-8.959-5.678  c-1.066,0.239-2.122,0.507-3.177,0.774c-3.154-1.084-6.387-1.941-9.649-2.529c-2.139-0.385-4.31-0.675-6.453-0.861  c-27.509-2.393-51.266-12.875-68.703-30.312l-1.396-1.396c70.216-54.111,169.023-52.295,237.326,5.167  c1.406,1.183,3.12,1.761,4.824,1.761c2.137,0,4.26-0.909,5.743-2.672c2.667-3.17,2.259-7.901-0.911-10.567  c-74.215-62.435-181.807-64.006-257.678-4.383l-25.889-25.89c42.86-34.897,96.609-54.052,152.075-54.052  c64.363,0,124.874,25.064,170.386,70.576s70.576,106.022,70.576,170.386S471.897,380.912,426.385,426.424z"
   id="path40" />
<path
   d="M412.637,124.545c-2.666-3.169-7.398-3.578-10.567-0.911c-3.17,2.667-3.578,7.398-0.911,10.567  c30.423,36.164,46.126,82.183,44.217,129.58c-1.921,47.677-21.574,92.529-55.339,126.294s-78.617,53.418-126.294,55.339  c-47.396,1.907-93.417-13.793-129.58-44.216c-3.169-2.666-7.9-2.258-10.567,0.911s-2.259,7.901,0.911,10.567  c36.908,31.049,83.319,47.894,131.501,47.894c2.774,0,5.555-0.056,8.339-0.168c51.454-2.073,99.859-23.282,136.297-59.72  s57.647-84.843,59.721-136.297C462.423,213.24,445.474,163.577,412.637,124.545z"
   id="path42" />
<path
   d="M193.227,240.604c-2.508,1.176-4.164,3.639-4.306,6.405c-0.967,18.799,4.19,41.289,14.522,63.326  c10.333,22.039,24.322,40.388,39.392,51.667c1.321,0.989,2.902,1.496,4.495,1.496c1.082,0,2.168-0.234,3.183-0.709  c2.508-1.176,4.164-3.638,4.306-6.405c0.967-18.799-4.19-41.288-14.522-63.326c-10.333-22.039-24.322-40.388-39.392-51.667  C198.688,239.73,195.736,239.428,193.227,240.604z M226.716,299.424c6.036,12.875,10.172,26.15,12.057,38.323  c-8.152-9.235-15.711-20.904-21.748-33.78c-6.036-12.875-10.172-26.15-12.057-38.323  C213.12,274.879,220.679,286.548,226.716,299.424z"
   id="path44" />
<path
   d="M295.413,130.877c-12.64,11.305-22.791,28.646-28.583,48.829l0,0c-5.792,20.183-6.383,40.268-1.663,56.555  c0.718,2.476,2.657,4.41,5.135,5.121c0.682,0.196,1.377,0.291,2.068,0.291c1.821,0,3.607-0.664,5-1.91  c12.639-11.304,22.79-28.645,28.583-48.829c5.792-20.184,6.383-40.269,1.663-56.555c-0.718-2.476-2.657-4.41-5.135-5.121  C300.004,128.547,297.335,129.158,295.413,130.877z M291.536,186.796c-3.297,11.488-8.305,22.08-14.356,30.624  c-0.6-10.453,0.772-22.089,4.069-33.576l0,0c3.297-11.487,8.304-22.079,14.356-30.623  C296.205,163.673,294.833,175.308,291.536,186.796z"
   id="path46" />
<path
   d="M391.093,253.774c1.33-2.43,1.211-5.395-0.307-7.712c-1.52-2.317-4.189-3.61-6.95-3.357  c-18.746,1.699-40.281,9.985-60.637,23.33c-20.356,13.344-36.543,29.788-45.579,46.301c-1.33,2.43-1.211,5.395,0.307,7.712  c1.394,2.126,3.759,3.388,6.271,3.388c0.225,0,0.452-0.01,0.679-0.031c18.746-1.699,40.28-9.985,60.637-23.33  C365.871,286.731,382.058,270.287,391.093,253.774z M337.291,287.53c-11.893,7.797-24.449,13.768-36.233,17.354  c7.989-9.376,18.473-18.509,30.366-26.305l0,0c11.893-7.796,24.449-13.767,36.233-17.354  C359.668,270.601,349.184,279.734,337.291,287.53z"
   id="path48" />
<path
   d="M129.574,347.379c1.373,2.461,3.926,3.849,6.557,3.849c1.236,0,2.49-0.306,3.646-0.951  c3.618-2.017,4.915-6.585,2.897-10.203c-6.204-11.125-3.277-19.261,2.43-32.683c4.539-10.674,9.683-22.771,6.808-37.79  c-0.779-4.068-4.708-6.736-8.776-5.956c-4.068,0.779-6.735,4.708-5.956,8.776c2.016,10.533-1.819,19.552-5.879,29.101  C125.765,314.54,119.49,329.296,129.574,347.379z"
   id="path50" />
<path
   d="M346.203,389.637c0.233,0.021,0.464,0.032,0.693,0.032c3.833,0,7.103-2.924,7.46-6.816c0.378-4.125-2.659-7.775-6.784-8.153  c-10.679-0.979-18.284-7.161-26.335-13.706c-10.977-8.924-23.417-19.038-43.588-14.355c-4.035,0.937-6.546,4.968-5.609,9.002  c0.937,4.034,4.964,6.545,9.002,5.609c12.409-2.883,19.415,2.183,30.732,11.383C320.775,379.948,330.976,388.241,346.203,389.637z"
   id="path52" />
<path
   d="M328.062,207.342c0.038,4.118,3.388,7.431,7.498,7.431c0.023,0,0.047,0,0.071,0c4.142-0.038,7.469-3.427,7.43-7.569  c-0.076-8.26,3.879-12.702,8.887-18.325c6.984-7.844,15.676-17.605,9.562-37.135c-1.237-3.953-5.448-6.152-9.398-4.917  c-3.953,1.238-6.154,5.445-4.917,9.398c3.575,11.42-0.198,15.657-6.45,22.678C335.036,185.314,327.932,193.293,328.062,207.342z"
   id="path54" />
<path
   d="M220.78,203.963c-0.843,5.987-2.118,15.033,9.42,23.744c1.353,1.021,2.939,1.515,4.513,1.515  c2.272,0,4.517-1.029,5.992-2.981c2.496-3.306,1.839-8.009-1.467-10.505c-4.491-3.39-4.285-4.848-3.604-9.68  c0.679-4.823,1.706-12.111-4.189-19.934c-2.494-3.308-7.195-3.969-10.504-1.476c-3.308,2.493-3.968,7.196-1.476,10.503  C221.537,197.898,221.377,199.727,220.78,203.963z"
   id="path56" />


<path
   d="M173.954,318.413c-3.239,2.582-3.772,7.3-1.191,10.54c2.145,2.692,2.035,4.524,1.553,8.775  c-0.681,6.007-1.711,15.085,10.058,23.481c1.32,0.942,2.842,1.395,4.349,1.395c2.342,0,4.648-1.093,6.112-3.145  c2.406-3.372,1.622-8.056-1.75-10.461c-4.581-3.268-4.415-4.731-3.865-9.579c0.549-4.84,1.378-12.153-4.727-19.814  C181.912,316.365,177.193,315.832,173.954,318.413z"
   id="path62" />
<path
   d="M104.394,259.974c0.555,0,1.119-0.062,1.682-0.191c4.038-0.925,6.561-4.948,5.635-8.986  c-1.257-5.484-0.162-6.469,3.468-9.73c3.623-3.255,9.098-8.175,9.616-17.957c0.22-4.136-2.956-7.667-7.092-7.886  c-4.132-0.219-7.667,2.956-7.886,7.093c-0.183,3.437-1.481,4.734-4.663,7.594c-4.497,4.041-11.292,10.147-8.063,24.238  C97.887,257.622,100.976,259.974,104.394,259.974z"
   id="path64" />
<path
   d="M397.81,323.5c2.751-3.096,2.472-7.837-0.625-10.588c-3.097-2.752-7.837-2.471-10.588,0.625  c-2.287,2.573-4.111,2.777-8.381,3.028c-6.035,0.354-15.156,0.888-21.42,13.917c-1.795,3.733-0.224,8.214,3.509,10.009  c1.048,0.504,2.155,0.742,3.245,0.742c2.792,0,5.474-1.567,6.765-4.252c2.438-5.071,3.908-5.157,8.779-5.443  C383.955,331.254,391.303,330.823,397.81,323.5z"
   id="path66" />
<path
   d="M365.363,209.821c-1.795,3.733-0.224,8.214,3.509,10.009c1.048,0.504,2.155,0.742,3.245,0.742  c2.792,0,5.474-1.567,6.765-4.252c2.438-5.071,3.908-5.157,8.779-5.443c4.862-0.285,12.21-0.716,18.716-8.039  c2.751-3.096,2.472-7.837-0.625-10.588c-3.097-2.752-7.837-2.471-10.588,0.625c-2.286,2.573-4.11,2.777-8.381,3.028  C380.748,196.257,371.627,196.792,365.363,209.821z"
   id="path68" />

<path
   d="M295.988,262.75c1.232,0,2.482-0.304,3.635-0.945l6.426-3.57c3.621-2.011,4.926-6.578,2.914-10.198  c-2.012-3.621-6.578-4.927-10.198-2.914l-6.426,3.57c-3.621,2.011-4.926,6.578-2.914,10.198  C290.796,261.358,293.353,262.75,295.988,262.75z"
   id="path72" />
<path
   d="M323.696,122.522c1.371,2.467,3.927,3.859,6.563,3.859c1.232,0,2.482-0.304,3.636-0.945  c3.621-2.012,4.925-6.578,2.914-10.198l-3.57-6.426c-2.011-3.621-6.576-4.925-10.199-2.914c-3.621,2.012-4.925,6.578-2.914,10.198  L323.696,122.522z"
   id="path74" />
<path
   d="M379.175,170.106c0.282,3.95,3.574,6.966,7.473,6.966c0.179,0,0.36-0.006,0.542-0.019c4.132-0.295,7.242-3.884,6.947-8.015  l-0.714-9.996c-0.295-4.132-3.883-7.24-8.015-6.947c-4.132,0.295-7.242,3.884-6.947,8.015L379.175,170.106z"
   id="path76" />
<path
   d="M420.71,237.37l-3.57-8.568c-1.593-3.824-5.985-5.632-9.808-4.039c-3.823,1.593-5.631,5.984-4.038,9.808l3.57,8.568  c1.2,2.881,3.988,4.617,6.926,4.617c0.961,0,1.939-0.186,2.882-0.579C420.495,245.585,422.303,241.194,420.71,237.37z"
   id="path78" />

<path
   d="M332.398,345.569c1.693,0,3.396-0.57,4.797-1.739c3.182-2.652,3.612-7.381,0.96-10.563l-3.57-4.284  c-2.652-3.183-7.382-3.612-10.563-0.96c-3.182,2.652-3.612,7.381-0.96,10.563l3.57,4.284  C328.116,344.65,330.249,345.569,332.398,345.569z"
   id="path82" />
<path
   d="M376.876,355.635l-5.712,2.856c-3.705,1.853-5.207,6.357-3.354,10.062c1.314,2.628,3.962,4.148,6.714,4.148  c1.127,0,2.271-0.255,3.348-0.793l5.712-2.856c3.705-1.853,5.207-6.357,3.354-10.062  C385.086,355.285,380.581,353.783,376.876,355.635z"
   id="path84" />
<path
   d="M306.155,392.316c1.964-3.647,0.599-8.196-3.048-10.159l-9.282-4.998c-3.646-1.965-8.196-0.6-10.159,3.048  c-1.964,3.647-0.599,8.196,3.048,10.159l9.282,4.998c1.131,0.609,2.349,0.898,3.549,0.898  C302.215,396.262,304.8,394.832,306.155,392.316z"
   id="path86" />
<path
   d="M227.072,372.586c-0.259-4.134-3.829-7.275-7.953-7.018l-11.423,0.714c-4.134,0.258-7.276,3.819-7.018,7.953  c0.249,3.975,3.55,7.032,7.478,7.032c0.158,0,0.316-0.005,0.475-0.015l11.423-0.714C224.188,380.28,227.33,376.72,227.072,372.586z"
   id="path88" />
<path
   d="M147.447,375.259l2.856,9.281c0.992,3.224,3.96,5.296,7.166,5.296c0.73,0,1.474-0.108,2.208-0.334  c3.959-1.218,6.181-5.415,4.963-9.374l-2.856-9.281c-1.218-3.959-5.416-6.18-9.374-4.962  C148.451,367.103,146.229,371.3,147.447,375.259z"
   id="path90" />
<path
   d="M188.612,386.271c-4.135-0.238-7.684,2.912-7.927,7.047l-0.714,12.137c-0.243,4.135,2.912,7.684,7.047,7.927  c0.15,0.009,0.299,0.013,0.447,0.013c3.941,0,7.246-3.075,7.48-7.06l0.714-12.137C195.902,390.064,192.747,386.514,188.612,386.271z  "
   id="path92" />
<path
   d="M289.771,408.469l-8.567,4.284c-3.705,1.853-5.206,6.357-3.354,10.062c1.314,2.628,3.963,4.147,6.714,4.147  c1.127,0,2.272-0.255,3.349-0.793l8.567-4.284c3.705-1.853,5.206-6.357,3.354-10.062  C297.982,408.118,293.477,406.617,289.771,408.469z"
   id="path94" />
<path
   d="M172.464,282.739c4.142,0,7.5-3.358,7.5-7.5v-6.426c0-4.142-3.358-7.5-7.5-7.5s-7.5,3.358-7.5,7.5v6.426  C164.964,279.381,168.322,282.739,172.464,282.739z"
   id="path96" />

<path
   d="M106.601,201.882c1.919,0,3.839-0.732,5.303-2.197l5.712-5.712c2.929-2.929,2.929-7.678,0-10.607  c-2.928-2.929-7.677-2.929-10.606,0l-5.712,5.712c-2.929,2.929-2.929,7.678,0,10.607  C102.762,201.15,104.681,201.882,106.601,201.882z"
   id="path100" />
<path
   d="M205.775,98.543l-11.424-0.714c-4.123-0.26-7.694,2.883-7.953,7.017c-0.258,4.134,2.883,7.695,7.018,7.953l11.424,0.714  c0.159,0.01,0.317,0.015,0.475,0.015c3.928,0,7.229-3.058,7.478-7.032C213.051,102.362,209.909,98.801,205.775,98.543z"
   id="path102" />
<path
   d="M189.132,217.506c1.219,2.844,3.987,4.548,6.897,4.548c0.986,0,1.988-0.196,2.951-0.608  c3.808-1.632,5.571-6.041,3.939-9.848l-4.284-9.996c-1.632-3.808-6.042-5.57-9.848-3.939c-3.808,1.632-5.571,6.041-3.939,9.848  L189.132,217.506z"
   id="path104" />
<path
   d="M256.892,156.009c1.919,0,3.839-0.733,5.304-2.197l2.855-2.856c2.929-2.929,2.928-7.678-0.001-10.606  c-2.929-2.929-7.678-2.928-10.606,0.001l-2.855,2.856c-2.929,2.929-2.928,7.678,0.001,10.606  C253.053,155.277,254.972,156.009,256.892,156.009z"
   id="path106" />
<path
   d="M333.112,244.901c1.038,0,2.093-0.217,3.099-0.674l7.854-3.57c3.771-1.714,5.438-6.16,3.724-9.931s-6.162-5.438-9.931-3.724  l-7.854,3.57c-3.771,1.714-5.438,6.16-3.724,9.931C327.537,243.267,330.262,244.901,333.112,244.901z"
   id="path108" />
<path
   d="M330.895,156.544c3.846-1.538,5.717-5.903,4.179-9.749l-1.428-3.57c-1.539-3.846-5.902-5.717-9.749-4.178  c-3.846,1.538-5.717,5.903-4.179,9.749l1.428,3.57c1.173,2.933,3.989,4.717,6.966,4.717  C329.039,157.082,329.982,156.909,330.895,156.544z"
   id="path110" />
<path
   d="M291.16,98.104c1.173,2.932,3.989,4.716,6.966,4.716c0.927,0,1.87-0.173,2.784-0.539c3.846-1.539,5.716-5.904,4.177-9.749  l-1.428-3.57c-1.539-3.845-5.901-5.717-9.75-4.177c-3.846,1.539-5.716,5.904-4.177,9.749L291.16,98.104z"
   id="path112" />
<path
   d="M362.331,133.677c1.483,1.78,3.617,2.699,5.766,2.699c1.693,0,3.396-0.57,4.797-1.739c3.182-2.652,3.612-7.381,0.96-10.563  l-3.57-4.284c-2.652-3.183-7.382-3.612-10.563-0.96c-3.182,2.652-3.612,7.381-0.96,10.563L362.331,133.677z"
   id="path114" />
<g
   id="g116">
</g>
<g
   id="g118">
</g>
<g
   id="g120">
</g>
<g
   id="g122">
</g>
<g
   id="g124">
</g>
<g
   id="g126">
</g>
<g
   id="g128">
</g>
<g
   id="g130">
</g>
<g
   id="g132">
</g>
<g
   id="g134">
</g>
<g
   id="g136">
</g>
<g
   id="g138">
</g>
<g
   id="g140">
</g>
<g
   id="g142">
</g>
<g
   id="g144">
</g>
<path
   d="m 270.3532,119.48717 -4.608,-9.28 h -17.728 l -4.672,9.28 h -9.216 l 20.992,-40.32 h 3.776 l 20.992,40.32 z m -13.44,-26.816 -5.76,11.328 h 11.456 z"
   style="font-style:normal;font-variant:normal;font-weight:800;font-stretch:extra-expanded;font-size:64px;line-height:1.25;font-family:Inconsolata;-inkscape-font-specification:'Inconsolata Ultra-Bold Extra-Expanded';letter-spacing:0px;word-spacing:0px;fill:#000000;fill-opacity:1;fill-rule:nonzero;stroke:none;paint-order:stroke markers fill"
   id="path979"
   inkscape:connector-curvature="0" /><path
   d="m 386.1385,287.40272 22.38845,-32.99293 14.77533,10.02628 q 6.30202,4.27645 9.34332,7.88711 3.07724,3.55769 3.46116,6.52526 0.38393,2.96757 -1.26915,5.40364 -1.61715,2.38312 -4.55446,3.40633 -2.93731,1.02321 -6.47606,-0.37265 3.04319,3.37991 3.79404,7.06052 0.78678,3.62766 -1.22566,6.59332 -2.08432,3.07158 -5.42828,3.89619 -3.29099,0.86055 -8.19342,-0.91928 -4.90242,-1.77982 -11.94586,-6.55938 z m 20.64446,-15.14973 6.88456,4.67174 q 5.8254,3.95302 8.94427,4.5999 3.11887,0.64687 4.44852,-1.31258 1.14997,-1.69466 -0.63925,-4.30099 -1.73626,-2.57039 -6.73135,-6.03732 l -7.73189,-5.24673 z m -9.81067,14.45757 8.52627,5.78578 q 5.29581,3.59366 8.78539,4.49209 3.52551,0.84547 4.92704,-1.2199 3.37803,-4.97807 -8.85531,-13.2794 l -7.2023,-4.88737 z"
   style="font-style:normal;font-variant:normal;font-weight:800;font-stretch:extra-expanded;font-size:64px;line-height:1.25;font-family:Inconsolata;-inkscape-font-specification:'Inconsolata Ultra-Bold Extra-Expanded';letter-spacing:0px;word-spacing:0px;fill:#000000;fill-opacity:1;stroke:none"
   id="path981"
   inkscape:connector-curvature="0" /><path
   d="m 250.42438,294.14851 -18.63476,-35.3218 13.35889,-7.04776 q 4.58504,-2.41894 8.08344,-3.46863 3.46854,-1.1063 6.27342,-1.13886 2.86149,-0.0624 5.42257,0.54016 3.91472,0.97384 7.14528,3.39404 3.2573,2.33373 5.40747,6.40933 2.78354,5.55045 2.29687,10.80008 -0.43007,5.21977 -4.58943,10.09147 -4.10276,4.84183 -12.42376,9.23175 z m 4.33314,-10.02861 4.58505,-2.41894 q 6.00017,-3.16552 8.96281,-6.46517 2.93277,-3.35626 3.28708,-6.79941 0.35431,-3.44314 -1.4375,-6.83947 -1.96786,-3.59289 -4.95639,-5.41717 -3.0184,-1.88088 -7.30438,-1.5011 -4.22939,0.34993 -9.88993,3.33627 l -5.49073,2.89675 z"
   style="font-style:normal;font-variant:normal;font-weight:800;font-stretch:extra-expanded;font-size:64px;line-height:1.25;font-family:Inconsolata;-inkscape-font-specification:'Inconsolata Ultra-Bold Extra-Expanded';letter-spacing:0px;word-spacing:0px;fill:#000000;fill-opacity:1;stroke:none"
   id="path985"
   inkscape:connector-curvature="0" /><path
   d="m 251.7169,430.26482 -32.36254,-23.3998 23.0623,-31.89576 5.54935,4.01246 -18.07485,24.99799 7.20897,5.21245 15.03737,-20.79708 5.54934,4.01247 -15.03737,20.79708 8.5574,6.18744 17.92485,-24.79053 5.49748,3.97497 z"
   style="font-style:normal;font-variant:normal;font-weight:800;font-stretch:extra-expanded;font-size:64px;line-height:1.25;font-family:Inconsolata;-inkscape-font-specification:'Inconsolata Ultra-Bold Extra-Expanded';letter-spacing:0px;word-spacing:0px;fill:#000000;fill-opacity:1;stroke:none"
   id="path987"
   inkscape:connector-curvature="0" /><path
   d="M 97.693527,323.47061 76.841016,289.411 l 31.876294,-19.51581 3.57567,5.84035 -24.998877,15.30521 4.277439,6.98659 20.468518,-12.53156 3.54225,5.78576 -20.468513,12.53156 9.457153,15.44691 z"
   style="font-style:normal;font-variant:normal;font-weight:800;font-stretch:extra-expanded;font-size:64px;line-height:1.25;font-family:Inconsolata;-inkscape-font-specification:'Inconsolata Ultra-Bold Extra-Expanded';letter-spacing:0px;word-spacing:0px;fill:#000000;fill-opacity:1;stroke:none"
   id="path989"
   inkscape:connector-curvature="0" /></svg>