<svg id="Layer_1" enable-background="new 0 0 512 512" height="512" viewBox="0 0 512 512" width="512" xmlns="http://www.w3.org/2000/svg"><g><path d="m458.64 397.567h-17.1c-3.43 0-6.79-.43-10.03-1.25-19.17-4.78-34.01-22.83-34.01-43.16 0 23.76-18.27 44.41-42.03 44.41h-198.9c-23.77 0-42.04-20.65-42.04-44.41 0 23.76-20.27 44.41-44.04 44.41h-17.1l24.51-230.02c9.22-86.54 79.09-153.21 164.62-159.61 4.46-.33 8.96-.5 13.5-.5 45.79 0 87.89 17.26 119.76 45.91s53.5 68.67 58.35 114.2z" fill="#4b6675"/><path d="m434.13 167.547 24.51 230.02h-27l-.13-1.25-24.38-228.77c-4.85-45.53-26.48-85.55-58.35-114.2-28.71-25.81-65.73-42.38-106.26-45.41 4.46-.33 8.96-.5 13.5-.5 45.79 0 87.89 17.26 119.76 45.91s53.5 68.67 58.35 114.2z" fill="#294a59"/><g fill="#ffc69f"><path d="m148.673 236.851c-17.808 0-32.306-14.317-32.524-32.119-.222-18.114 14.404-32.917 32.524-32.917z"/><path d="m362.895 171.85c18.12 0 32.746 14.803 32.524 32.917-.219 17.802-14.716 32.119-32.524 32.119z"/></g><g><path d="m462.766 482.557v21.88h-413.54v-21.88c0-29.36 20.82-54.59 49.65-60.17l90.62-17.54 28.71-5.56 74.62-.19 29.71 5.75 90.59 17.54c28.82 5.58 49.64 30.81 49.64 60.17z" fill="#99f5d2"/><path d="m462.766 482.557v21.88h-38.44v-11.88c0-29.36-11.04-50.33-38.41-60.17-23.26-8.36-93.09-33.29-93.09-33.29l29.71 5.75 90.59 17.54c28.82 5.58 49.64 30.81 49.64 60.17z" fill="#69d8e4"/><path d="m322.536 404.847v.77c-3.28 33.86-31.82 60.33-66.54 60.33-34.61 0-63.08-26.3-66.5-60.01v-1.09l28.71-5.56 74.62-.19z" fill="#e4f4ff"/><path d="m287.676 381.437c.67 5.97 2.39 11.83 5.15 17.31 0 10.3-4.17 19.63-10.93 26.38-6.75 6.75-16.08 10.93-26.38 10.93s-19.63-4.18-26.38-10.93-10.93-16.08-10.93-26.38c2.85-5.63 4.59-11.68 5.21-17.84.17-1.71.26-3.43.26-5.15 0-5.96-1.04-11.94-3.15-17.66l-2.32-6.3h74.62l-2.32 6.3c-2.78 7.53-3.71 15.52-2.83 23.34z" fill="#ffeac5"/><path d="m290.506 358.097c-2.78 7.53-3.71 15.52-2.83 23.34-9.67 5.19-20.54 7.94-31.65 7.92-11.48.02-22.71-2.92-32.61-8.45.17-1.71.26-3.43.26-5.15 0-5.96-1.04-11.94-3.15-17.66l-2.32-6.3h74.62z" fill="#ffc69f"/></g><path d="m361.96 258.557c0 25.33-21.53 55.58-64 89.94-11.91 9.68-26.81 14.96-42.16 14.92-15.38.03-30.29-5.25-42.21-14.95-42.45-34.33-63.98-64.59-63.98-89.91 0-2.68.1-5.38.33-7.96 1.1-11.19 1.34-45.83.73-78.78h28c.9 0 1.79 0 2.68-.01 112.7-.72 137.84-46.77 137.84-79.22 0 18.24 5.95 40.77 15.12 57.14 7.28 12.99 16.59 22.09 26.59 22.09v.03c-.6 32.92-.36 67.51.73 78.69.23 2.65.33 5.34.33 8.02z" fill="#ffeac5"/><path d="m334.31 149.727c-22.74 12.24-67.09 21.89-152.96 22.08 112.7-.72 137.84-46.77 137.84-79.22 0 18.24 5.95 40.77 15.12 57.14z" fill="#ffc69f"/><g><path d="m318.95 225.627-.05 65.6c-28.78 18.15-63.4 22.82-95.18 13.99-11-3.05-21.66-7.71-31.62-13.99l-.05-65.6c0-2.34 1.89-4.23 4.22-4.23h118.46c2.33 0 4.22 1.89 4.22 4.23z" fill="#e4f4ff"/></g><g><path d="m318.95 225.627-.05 65.6c-28.78 18.15-63.4 22.82-95.18 13.99 23.89-.91 51.03-6.66 72.06-19.93l.05-59.6c0-2.33-4.89-4.22-7.22-4.22l3.05-.07h23.07c2.33 0 4.22 1.89 4.22 4.23z" fill="#c0eaf7"/></g></g><g><path d="m414.549 415.105-53.349-10.324c15.479-1.878 28.807-11.263 36.57-24.582 9.19 14.827 25.559 24.928 43.769 24.928h17.098c2.127 0 4.154-.903 5.577-2.485 1.422-1.582 2.106-3.693 1.881-5.808l-24.51-230.024c-4.889-45.876-26.479-88.129-60.795-118.975-34.315-30.847-78.627-47.835-124.775-47.835-46.146 0-90.46 16.988-124.775 47.835-34.315 30.846-55.906 73.1-60.794 118.975l-24.51 230.025c-.226 2.115.459 4.226 1.881 5.808 1.423 1.582 3.45 2.485 5.577 2.485h17.098c18.21 0 34.578-10.101 43.769-24.928 7.76 13.314 21.082 22.697 36.554 24.58l-53.363 10.326c-32.285 6.247-55.717 34.643-55.717 67.517v21.879c0 4.141 3.357 7.498 7.5 7.498h27.771c4.143 0 7.5-3.357 7.5-7.498s-3.357-7.498-7.5-7.498h-20.272v-14.381c0-25.706 18.322-47.91 43.566-52.795l82.782-16.019c6.823 34.497 37.012 59.71 72.917 59.71 18.596 0 36.394-6.899 50.117-19.425 11.777-10.75 19.71-24.849 22.792-40.287l82.791 16.021c25.244 4.885 43.566 27.089 43.566 52.795v14.381h-343.357c-4.143 0-7.5 3.357-7.5 7.498s3.357 7.498 7.5 7.498h350.858c4.143 0 7.5-3.357 7.5-7.498v-21.879c0-32.875-23.432-61.27-55.717-67.518zm-129.26-14.647c-.848 15.68-13.875 28.178-29.767 28.178-15.646 0-28.515-12.115-29.718-27.455.453-.84.75-1.777.853-2.772 4.203-10.076 5.487-21.15 3.774-31.862 8.042 2.91 16.579 4.435 25.209 4.435h.291c8.436 0 16.776-1.454 24.648-4.229-1.776 11.38-.176 23.158 4.71 33.705zm68.873-149.217c.2 2.338.302 4.822.302 7.383 0 8.734-3.156 18.43-9.334 28.909l-18.73-2.653.037-43.995 26.83-10.632c.172 9.126.462 16.583.895 20.988zm14.108-71.255c4.684 1.019 8.978 3.369 12.431 6.863 4.738 4.796 7.302 11.149 7.22 17.889-.145 11.792-8.571 21.682-19.671 24.131-.235-13.322-.239-30.779.02-48.883zm-15.177 34.205-26.678 10.572c-.473-6.034-5.534-10.799-11.688-10.799h-65.498c-4.143 0-7.5 3.357-7.5 7.498s3.357 7.498 7.5 7.498h62.22l-.049 58.1c-34.384 19.939-77.414 19.94-111.798 0l-.05-58.1h14.696c4.143 0 7.5-3.357 7.5-7.498s-3.357-7.498-7.5-7.498h-17.974c-6.119 0-11.158 4.711-11.68 10.7l-26.114-10.349c.052-11.162-.018-23.355-.184-34.941h20.377c52.939 0 92.607-9.712 117.903-28.867 9.499-7.193 16.069-15.055 20.585-22.779 2.062 7.012 4.648 13.843 7.659 20.066 7.97 16.475 17.878 26.961 28.474 30.366-.176 11.907-.253 24.519-.201 36.031zm-209.79-34.243c.259 18.09.255 35.539.021 48.886-11.102-2.448-19.53-12.338-19.676-24.132-.082-6.741 2.482-13.095 7.221-17.891 3.454-3.494 7.748-5.845 12.434-6.863zm14.099 71.449c.435-4.435.728-11.899.9-21.02l26.259 10.406.038 43.994-18.257 2.586c-6.113-10.413-9.235-20.053-9.235-28.742.001-2.567.102-5.024.295-7.224zm33.076 47.694c19.645 11.797 42.064 18.018 65.022 18.018 22.903 0 45.271-6.193 64.883-17.936l15.219 2.156c-10.168 12.942-24.361 26.842-42.375 41.414-10.509 8.543-23.748 13.243-37.323 13.243-.077 0-.156 0-.233 0-13.567 0-26.828-4.711-37.367-13.285-18.07-14.616-32.294-28.557-42.463-41.536zm-68.449 54.127c0-4.141-3.357-7.498-7.5-7.498s-7.5 3.357-7.5 7.498c0 19.664-17.073 36.913-36.537 36.913h-8.756l23.626-221.732c4.495-42.188 24.35-81.045 55.907-109.412 31.558-28.367 72.309-43.99 114.747-43.99s83.188 15.623 114.746 43.99c31.557 28.367 51.412 67.224 55.907 109.412l23.625 221.732h-8.756c-19.464 0-36.537-17.249-36.537-36.913 0-4.141-3.357-7.498-7.5-7.498s-7.5 3.357-7.5 7.498c0 20.354-15.493 36.913-34.536 36.913h-58.189c-3.274-9.452-3.221-19.869.271-29.339l1.283-3.481c1.311-.93 2.594-1.904 3.846-2.921 44.316-35.849 66.787-68.069 66.787-95.765 0-2.987-.12-5.901-.365-8.755-.147-1.496-.279-3.468-.395-5.847 19.095-2.814 33.972-19.276 34.216-39.1.133-10.781-3.968-20.942-11.546-28.613-7.563-7.654-17.649-11.876-28.407-11.895l-1.93-.035c-.045-.001-.091-.001-.136-.001-15.347 0-34.21-39.551-34.21-71.728 0-4.141-3.357-7.498-7.5-7.498s-7.5 3.357-7.5 7.498c0 12.592-4.193 30.777-24.17 45.903-22.63 17.136-59.252 25.825-108.847 25.825h-30c-10.784 0-20.896 4.224-28.476 11.894-7.579 7.67-11.681 17.832-11.548 28.614.243 19.826 15.124 36.289 34.222 39.101-.119 2.452-.255 4.483-.406 6.021-.237 2.711-.358 5.609-.358 8.613 0 27.695 22.461 59.906 66.743 95.724 1.036.842 2.092 1.655 3.169 2.438l1.478 4.008c3.492 9.47 3.545 19.888.271 29.339h-57.203c-19.043 0-34.536-16.56-34.536-36.913zm133.971 105.305c-28.632 0-52.71-20.078-58.188-47.564l13.901-2.69c4.346 20.187 22.338 35.363 43.81 35.363 21.534 0 39.569-15.266 43.847-35.542l14.821 2.868c-5.471 27.502-29.51 47.565-58.191 47.565z"/><path d="m232.812 264.537c0 4.141 3.357 7.498 7.5 7.498h30.376c4.143 0 7.5-3.357 7.5-7.498s-3.357-7.498-7.5-7.498h-30.376c-4.143 0-7.5 3.357-7.5 7.498z"/></g></svg>